<?xml version="1.0" encoding="utf-8" standalone="no"?>
<!DOCTYPE svg PUBLIC "-//W3C//DTD SVG 1.1//EN"
  "http://www.w3.org/Graphics/SVG/1.1/DTD/svg11.dtd">
<!-- Created with matplotlib (https://matplotlib.org/) -->
<svg height="357.537344pt" version="1.1" viewBox="0 0 488.582812 357.537344" width="488.582812pt" xmlns="http://www.w3.org/2000/svg" xmlns:xlink="http://www.w3.org/1999/xlink">
 <metadata>
  <rdf:RDF xmlns:cc="http://creativecommons.org/ns#" xmlns:dc="http://purl.org/dc/elements/1.1/" xmlns:rdf="http://www.w3.org/1999/02/22-rdf-syntax-ns#">
   <cc:Work>
    <dc:type rdf:resource="http://purl.org/dc/dcmitype/StillImage"/>
    <dc:date>2021-05-27T04:44:22.148257</dc:date>
    <dc:format>image/svg+xml</dc:format>
    <dc:creator>
     <cc:Agent>
      <dc:title>Matplotlib v3.3.4, https://matplotlib.org/</dc:title>
     </cc:Agent>
    </dc:creator>
   </cc:Work>
  </rdf:RDF>
 </metadata>
 <defs>
  <style type="text/css">*{stroke-linecap:butt;stroke-linejoin:round;}</style>
 </defs>
 <g id="figure_1">
  <g id="patch_1">
   <path d="M 0 357.537344 
L 488.582812 357.537344 
L 488.582812 0 
L 0 0 
z
" style="fill:none;"/>
  </g>
  <g id="axes_1">
   <g id="patch_2">
    <path d="M 34.982813 337.159219 
L 481.382812 337.159219 
L 481.382812 10.999219 
L 34.982813 10.999219 
z
" style="fill:#ffffff;"/>
   </g>
   <g id="matplotlib.axis_1">
    <g id="xtick_1">
     <g id="line2d_1">
      <defs>
       <path d="M 0 0 
L 0 -4 
" id="ma9e7c08786" style="stroke:#000000;stroke-width:1.25;"/>
      </defs>
      <g>
       <use style="stroke:#000000;stroke-width:1.25;" x="55.273722" xlink:href="#ma9e7c08786" y="337.159219"/>
      </g>
     </g>
     <g id="line2d_2">
      <defs>
       <path d="M 0 0 
L 0 4 
" id="m3784cb009d" style="stroke:#000000;stroke-width:1.25;"/>
      </defs>
      <g>
       <use style="stroke:#000000;stroke-width:1.25;" x="55.273722" xlink:href="#m3784cb009d" y="10.999219"/>
      </g>
     </g>
     <g id="text_1">
      <!-- 0.0 -->
      <g transform="translate(47.322159 348.257656)scale(0.1 -0.1)">
       <defs>
        <path d="M 31.78125 66.40625 
Q 24.171875 66.40625 20.328125 58.90625 
Q 16.5 51.421875 16.5 36.375 
Q 16.5 21.390625 20.328125 13.890625 
Q 24.171875 6.390625 31.78125 6.390625 
Q 39.453125 6.390625 43.28125 13.890625 
Q 47.125 21.390625 47.125 36.375 
Q 47.125 51.421875 43.28125 58.90625 
Q 39.453125 66.40625 31.78125 66.40625 
z
M 31.78125 74.21875 
Q 44.046875 74.21875 50.515625 64.515625 
Q 56.984375 54.828125 56.984375 36.375 
Q 56.984375 17.96875 50.515625 8.265625 
Q 44.046875 -1.421875 31.78125 -1.421875 
Q 19.53125 -1.421875 13.0625 8.265625 
Q 6.59375 17.96875 6.59375 36.375 
Q 6.59375 54.828125 13.0625 64.515625 
Q 19.53125 74.21875 31.78125 74.21875 
z
" id="DejaVuSans-48"/>
        <path d="M 10.6875 12.40625 
L 21 12.40625 
L 21 0 
L 10.6875 0 
z
" id="DejaVuSans-46"/>
       </defs>
       <use xlink:href="#DejaVuSans-48"/>
       <use x="63.623047" xlink:href="#DejaVuSans-46"/>
       <use x="95.410156" xlink:href="#DejaVuSans-48"/>
      </g>
     </g>
    </g>
    <g id="xtick_2">
     <g id="line2d_3">
      <g>
       <use style="stroke:#000000;stroke-width:1.25;" x="157.238089" xlink:href="#ma9e7c08786" y="337.159219"/>
      </g>
     </g>
     <g id="line2d_4">
      <g>
       <use style="stroke:#000000;stroke-width:1.25;" x="157.238089" xlink:href="#m3784cb009d" y="10.999219"/>
      </g>
     </g>
     <g id="text_2">
      <!-- 0.5 -->
      <g transform="translate(149.286526 348.257656)scale(0.1 -0.1)">
       <defs>
        <path d="M 10.796875 72.90625 
L 49.515625 72.90625 
L 49.515625 64.59375 
L 19.828125 64.59375 
L 19.828125 46.734375 
Q 21.96875 47.46875 24.109375 47.828125 
Q 26.265625 48.1875 28.421875 48.1875 
Q 40.625 48.1875 47.75 41.5 
Q 54.890625 34.8125 54.890625 23.390625 
Q 54.890625 11.625 47.5625 5.09375 
Q 40.234375 -1.421875 26.90625 -1.421875 
Q 22.3125 -1.421875 17.546875 -0.640625 
Q 12.796875 0.140625 7.71875 1.703125 
L 7.71875 11.625 
Q 12.109375 9.234375 16.796875 8.0625 
Q 21.484375 6.890625 26.703125 6.890625 
Q 35.15625 6.890625 40.078125 11.328125 
Q 45.015625 15.765625 45.015625 23.390625 
Q 45.015625 31 40.078125 35.4375 
Q 35.15625 39.890625 26.703125 39.890625 
Q 22.75 39.890625 18.8125 39.015625 
Q 14.890625 38.140625 10.796875 36.28125 
z
" id="DejaVuSans-53"/>
       </defs>
       <use xlink:href="#DejaVuSans-48"/>
       <use x="63.623047" xlink:href="#DejaVuSans-46"/>
       <use x="95.410156" xlink:href="#DejaVuSans-53"/>
      </g>
     </g>
    </g>
    <g id="xtick_3">
     <g id="line2d_5">
      <g>
       <use style="stroke:#000000;stroke-width:1.25;" x="259.202456" xlink:href="#ma9e7c08786" y="337.159219"/>
      </g>
     </g>
     <g id="line2d_6">
      <g>
       <use style="stroke:#000000;stroke-width:1.25;" x="259.202456" xlink:href="#m3784cb009d" y="10.999219"/>
      </g>
     </g>
     <g id="text_3">
      <!-- 1.0 -->
      <g transform="translate(251.250894 348.257656)scale(0.1 -0.1)">
       <defs>
        <path d="M 12.40625 8.296875 
L 28.515625 8.296875 
L 28.515625 63.921875 
L 10.984375 60.40625 
L 10.984375 69.390625 
L 28.421875 72.90625 
L 38.28125 72.90625 
L 38.28125 8.296875 
L 54.390625 8.296875 
L 54.390625 0 
L 12.40625 0 
z
" id="DejaVuSans-49"/>
       </defs>
       <use xlink:href="#DejaVuSans-49"/>
       <use x="63.623047" xlink:href="#DejaVuSans-46"/>
       <use x="95.410156" xlink:href="#DejaVuSans-48"/>
      </g>
     </g>
    </g>
    <g id="xtick_4">
     <g id="line2d_7">
      <g>
       <use style="stroke:#000000;stroke-width:1.25;" x="361.166823" xlink:href="#ma9e7c08786" y="337.159219"/>
      </g>
     </g>
     <g id="line2d_8">
      <g>
       <use style="stroke:#000000;stroke-width:1.25;" x="361.166823" xlink:href="#m3784cb009d" y="10.999219"/>
      </g>
     </g>
     <g id="text_4">
      <!-- 1.5 -->
      <g transform="translate(353.215261 348.257656)scale(0.1 -0.1)">
       <use xlink:href="#DejaVuSans-49"/>
       <use x="63.623047" xlink:href="#DejaVuSans-46"/>
       <use x="95.410156" xlink:href="#DejaVuSans-53"/>
      </g>
     </g>
    </g>
    <g id="xtick_5">
     <g id="line2d_9">
      <g>
       <use style="stroke:#000000;stroke-width:1.25;" x="463.131191" xlink:href="#ma9e7c08786" y="337.159219"/>
      </g>
     </g>
     <g id="line2d_10">
      <g>
       <use style="stroke:#000000;stroke-width:1.25;" x="463.131191" xlink:href="#m3784cb009d" y="10.999219"/>
      </g>
     </g>
     <g id="text_5">
      <!-- 2.0 -->
      <g transform="translate(455.179628 348.257656)scale(0.1 -0.1)">
       <defs>
        <path d="M 19.1875 8.296875 
L 53.609375 8.296875 
L 53.609375 0 
L 7.328125 0 
L 7.328125 8.296875 
Q 12.9375 14.109375 22.625 23.890625 
Q 32.328125 33.6875 34.8125 36.53125 
Q 39.546875 41.84375 41.421875 45.53125 
Q 43.3125 49.21875 43.3125 52.78125 
Q 43.3125 58.59375 39.234375 62.25 
Q 35.15625 65.921875 28.609375 65.921875 
Q 23.96875 65.921875 18.8125 64.3125 
Q 13.671875 62.703125 7.8125 59.421875 
L 7.8125 69.390625 
Q 13.765625 71.78125 18.9375 73 
Q 24.125 74.21875 28.421875 74.21875 
Q 39.75 74.21875 46.484375 68.546875 
Q 53.21875 62.890625 53.21875 53.421875 
Q 53.21875 48.921875 51.53125 44.890625 
Q 49.859375 40.875 45.40625 35.40625 
Q 44.1875 33.984375 37.640625 27.21875 
Q 31.109375 20.453125 19.1875 8.296875 
z
" id="DejaVuSans-50"/>
       </defs>
       <use xlink:href="#DejaVuSans-50"/>
       <use x="63.623047" xlink:href="#DejaVuSans-46"/>
       <use x="95.410156" xlink:href="#DejaVuSans-48"/>
      </g>
     </g>
    </g>
    <g id="xtick_6">
     <g id="line2d_11">
      <defs>
       <path d="M 0 0 
L 0 -2 
" id="meca614427e" style="stroke:#000000;stroke-width:1.25;"/>
      </defs>
      <g>
       <use style="stroke:#000000;stroke-width:1.25;" x="75.666595" xlink:href="#meca614427e" y="337.159219"/>
      </g>
     </g>
     <g id="line2d_12">
      <defs>
       <path d="M 0 0 
L 0 2 
" id="m52b40254c9" style="stroke:#000000;stroke-width:1.25;"/>
      </defs>
      <g>
       <use style="stroke:#000000;stroke-width:1.25;" x="75.666595" xlink:href="#m52b40254c9" y="10.999219"/>
      </g>
     </g>
    </g>
    <g id="xtick_7">
     <g id="line2d_13">
      <g>
       <use style="stroke:#000000;stroke-width:1.25;" x="96.059469" xlink:href="#meca614427e" y="337.159219"/>
      </g>
     </g>
     <g id="line2d_14">
      <g>
       <use style="stroke:#000000;stroke-width:1.25;" x="96.059469" xlink:href="#m52b40254c9" y="10.999219"/>
      </g>
     </g>
    </g>
    <g id="xtick_8">
     <g id="line2d_15">
      <g>
       <use style="stroke:#000000;stroke-width:1.25;" x="116.452342" xlink:href="#meca614427e" y="337.159219"/>
      </g>
     </g>
     <g id="line2d_16">
      <g>
       <use style="stroke:#000000;stroke-width:1.25;" x="116.452342" xlink:href="#m52b40254c9" y="10.999219"/>
      </g>
     </g>
    </g>
    <g id="xtick_9">
     <g id="line2d_17">
      <g>
       <use style="stroke:#000000;stroke-width:1.25;" x="136.845215" xlink:href="#meca614427e" y="337.159219"/>
      </g>
     </g>
     <g id="line2d_18">
      <g>
       <use style="stroke:#000000;stroke-width:1.25;" x="136.845215" xlink:href="#m52b40254c9" y="10.999219"/>
      </g>
     </g>
    </g>
    <g id="xtick_10">
     <g id="line2d_19">
      <g>
       <use style="stroke:#000000;stroke-width:1.25;" x="177.630962" xlink:href="#meca614427e" y="337.159219"/>
      </g>
     </g>
     <g id="line2d_20">
      <g>
       <use style="stroke:#000000;stroke-width:1.25;" x="177.630962" xlink:href="#m52b40254c9" y="10.999219"/>
      </g>
     </g>
    </g>
    <g id="xtick_11">
     <g id="line2d_21">
      <g>
       <use style="stroke:#000000;stroke-width:1.25;" x="198.023836" xlink:href="#meca614427e" y="337.159219"/>
      </g>
     </g>
     <g id="line2d_22">
      <g>
       <use style="stroke:#000000;stroke-width:1.25;" x="198.023836" xlink:href="#m52b40254c9" y="10.999219"/>
      </g>
     </g>
    </g>
    <g id="xtick_12">
     <g id="line2d_23">
      <g>
       <use style="stroke:#000000;stroke-width:1.25;" x="218.416709" xlink:href="#meca614427e" y="337.159219"/>
      </g>
     </g>
     <g id="line2d_24">
      <g>
       <use style="stroke:#000000;stroke-width:1.25;" x="218.416709" xlink:href="#m52b40254c9" y="10.999219"/>
      </g>
     </g>
    </g>
    <g id="xtick_13">
     <g id="line2d_25">
      <g>
       <use style="stroke:#000000;stroke-width:1.25;" x="238.809583" xlink:href="#meca614427e" y="337.159219"/>
      </g>
     </g>
     <g id="line2d_26">
      <g>
       <use style="stroke:#000000;stroke-width:1.25;" x="238.809583" xlink:href="#m52b40254c9" y="10.999219"/>
      </g>
     </g>
    </g>
    <g id="xtick_14">
     <g id="line2d_27">
      <g>
       <use style="stroke:#000000;stroke-width:1.25;" x="279.59533" xlink:href="#meca614427e" y="337.159219"/>
      </g>
     </g>
     <g id="line2d_28">
      <g>
       <use style="stroke:#000000;stroke-width:1.25;" x="279.59533" xlink:href="#m52b40254c9" y="10.999219"/>
      </g>
     </g>
    </g>
    <g id="xtick_15">
     <g id="line2d_29">
      <g>
       <use style="stroke:#000000;stroke-width:1.25;" x="299.988203" xlink:href="#meca614427e" y="337.159219"/>
      </g>
     </g>
     <g id="line2d_30">
      <g>
       <use style="stroke:#000000;stroke-width:1.25;" x="299.988203" xlink:href="#m52b40254c9" y="10.999219"/>
      </g>
     </g>
    </g>
    <g id="xtick_16">
     <g id="line2d_31">
      <g>
       <use style="stroke:#000000;stroke-width:1.25;" x="320.381077" xlink:href="#meca614427e" y="337.159219"/>
      </g>
     </g>
     <g id="line2d_32">
      <g>
       <use style="stroke:#000000;stroke-width:1.25;" x="320.381077" xlink:href="#m52b40254c9" y="10.999219"/>
      </g>
     </g>
    </g>
    <g id="xtick_17">
     <g id="line2d_33">
      <g>
       <use style="stroke:#000000;stroke-width:1.25;" x="340.77395" xlink:href="#meca614427e" y="337.159219"/>
      </g>
     </g>
     <g id="line2d_34">
      <g>
       <use style="stroke:#000000;stroke-width:1.25;" x="340.77395" xlink:href="#m52b40254c9" y="10.999219"/>
      </g>
     </g>
    </g>
    <g id="xtick_18">
     <g id="line2d_35">
      <g>
       <use style="stroke:#000000;stroke-width:1.25;" x="381.559697" xlink:href="#meca614427e" y="337.159219"/>
      </g>
     </g>
     <g id="line2d_36">
      <g>
       <use style="stroke:#000000;stroke-width:1.25;" x="381.559697" xlink:href="#m52b40254c9" y="10.999219"/>
      </g>
     </g>
    </g>
    <g id="xtick_19">
     <g id="line2d_37">
      <g>
       <use style="stroke:#000000;stroke-width:1.25;" x="401.95257" xlink:href="#meca614427e" y="337.159219"/>
      </g>
     </g>
     <g id="line2d_38">
      <g>
       <use style="stroke:#000000;stroke-width:1.25;" x="401.95257" xlink:href="#m52b40254c9" y="10.999219"/>
      </g>
     </g>
    </g>
    <g id="xtick_20">
     <g id="line2d_39">
      <g>
       <use style="stroke:#000000;stroke-width:1.25;" x="422.345444" xlink:href="#meca614427e" y="337.159219"/>
      </g>
     </g>
     <g id="line2d_40">
      <g>
       <use style="stroke:#000000;stroke-width:1.25;" x="422.345444" xlink:href="#m52b40254c9" y="10.999219"/>
      </g>
     </g>
    </g>
    <g id="xtick_21">
     <g id="line2d_41">
      <g>
       <use style="stroke:#000000;stroke-width:1.25;" x="442.738317" xlink:href="#meca614427e" y="337.159219"/>
      </g>
     </g>
     <g id="line2d_42">
      <g>
       <use style="stroke:#000000;stroke-width:1.25;" x="442.738317" xlink:href="#m52b40254c9" y="10.999219"/>
      </g>
     </g>
    </g>
   </g>
   <g id="matplotlib.axis_2">
    <g id="ytick_1">
     <g id="line2d_43">
      <defs>
       <path d="M 0 0 
L 4 0 
" id="m38f0239d9e" style="stroke:#000000;stroke-width:1.25;"/>
      </defs>
      <g>
       <use style="stroke:#000000;stroke-width:1.25;" x="34.982813" xlink:href="#m38f0239d9e" y="337.159219"/>
      </g>
     </g>
     <g id="line2d_44">
      <defs>
       <path d="M 0 0 
L -4 0 
" id="m07f8d0fb1b" style="stroke:#000000;stroke-width:1.25;"/>
      </defs>
      <g>
       <use style="stroke:#000000;stroke-width:1.25;" x="481.382812" xlink:href="#m07f8d0fb1b" y="337.159219"/>
      </g>
     </g>
     <g id="text_6">
      <!-- −1.0 -->
      <g transform="translate(7.2 340.958438)scale(0.1 -0.1)">
       <defs>
        <path d="M 10.59375 35.5 
L 73.1875 35.5 
L 73.1875 27.203125 
L 10.59375 27.203125 
z
" id="DejaVuSans-8722"/>
       </defs>
       <use xlink:href="#DejaVuSans-8722"/>
       <use x="83.789062" xlink:href="#DejaVuSans-49"/>
       <use x="147.412109" xlink:href="#DejaVuSans-46"/>
       <use x="179.199219" xlink:href="#DejaVuSans-48"/>
      </g>
     </g>
    </g>
    <g id="ytick_2">
     <g id="line2d_45">
      <g>
       <use style="stroke:#000000;stroke-width:1.25;" x="34.982813" xlink:href="#m38f0239d9e" y="255.619219"/>
      </g>
     </g>
     <g id="line2d_46">
      <g>
       <use style="stroke:#000000;stroke-width:1.25;" x="481.382812" xlink:href="#m07f8d0fb1b" y="255.619219"/>
      </g>
     </g>
     <g id="text_7">
      <!-- −0.5 -->
      <g transform="translate(7.2 259.418437)scale(0.1 -0.1)">
       <use xlink:href="#DejaVuSans-8722"/>
       <use x="83.789062" xlink:href="#DejaVuSans-48"/>
       <use x="147.412109" xlink:href="#DejaVuSans-46"/>
       <use x="179.199219" xlink:href="#DejaVuSans-53"/>
      </g>
     </g>
    </g>
    <g id="ytick_3">
     <g id="line2d_47">
      <g>
       <use style="stroke:#000000;stroke-width:1.25;" x="34.982813" xlink:href="#m38f0239d9e" y="174.079219"/>
      </g>
     </g>
     <g id="line2d_48">
      <g>
       <use style="stroke:#000000;stroke-width:1.25;" x="481.382812" xlink:href="#m07f8d0fb1b" y="174.079219"/>
      </g>
     </g>
     <g id="text_8">
      <!-- 0.0 -->
      <g transform="translate(15.579688 177.878437)scale(0.1 -0.1)">
       <use xlink:href="#DejaVuSans-48"/>
       <use x="63.623047" xlink:href="#DejaVuSans-46"/>
       <use x="95.410156" xlink:href="#DejaVuSans-48"/>
      </g>
     </g>
    </g>
    <g id="ytick_4">
     <g id="line2d_49">
      <g>
       <use style="stroke:#000000;stroke-width:1.25;" x="34.982813" xlink:href="#m38f0239d9e" y="92.539219"/>
      </g>
     </g>
     <g id="line2d_50">
      <g>
       <use style="stroke:#000000;stroke-width:1.25;" x="481.382812" xlink:href="#m07f8d0fb1b" y="92.539219"/>
      </g>
     </g>
     <g id="text_9">
      <!-- 0.5 -->
      <g transform="translate(15.579688 96.338437)scale(0.1 -0.1)">
       <use xlink:href="#DejaVuSans-48"/>
       <use x="63.623047" xlink:href="#DejaVuSans-46"/>
       <use x="95.410156" xlink:href="#DejaVuSans-53"/>
      </g>
     </g>
    </g>
    <g id="ytick_5">
     <g id="line2d_51">
      <g>
       <use style="stroke:#000000;stroke-width:1.25;" x="34.982813" xlink:href="#m38f0239d9e" y="10.999219"/>
      </g>
     </g>
     <g id="line2d_52">
      <g>
       <use style="stroke:#000000;stroke-width:1.25;" x="481.382812" xlink:href="#m07f8d0fb1b" y="10.999219"/>
      </g>
     </g>
     <g id="text_10">
      <!-- 1.0 -->
      <g transform="translate(15.579688 14.798437)scale(0.1 -0.1)">
       <use xlink:href="#DejaVuSans-49"/>
       <use x="63.623047" xlink:href="#DejaVuSans-46"/>
       <use x="95.410156" xlink:href="#DejaVuSans-48"/>
      </g>
     </g>
    </g>
    <g id="ytick_6">
     <g id="line2d_53">
      <defs>
       <path d="M 0 0 
L 2 0 
" id="ma64793a771" style="stroke:#000000;stroke-width:1.25;"/>
      </defs>
      <g>
       <use style="stroke:#000000;stroke-width:1.25;" x="34.982813" xlink:href="#ma64793a771" y="320.851219"/>
      </g>
     </g>
     <g id="line2d_54">
      <defs>
       <path d="M 0 0 
L -2 0 
" id="m3a0075909e" style="stroke:#000000;stroke-width:1.25;"/>
      </defs>
      <g>
       <use style="stroke:#000000;stroke-width:1.25;" x="481.382812" xlink:href="#m3a0075909e" y="320.851219"/>
      </g>
     </g>
    </g>
    <g id="ytick_7">
     <g id="line2d_55">
      <g>
       <use style="stroke:#000000;stroke-width:1.25;" x="34.982813" xlink:href="#ma64793a771" y="304.543219"/>
      </g>
     </g>
     <g id="line2d_56">
      <g>
       <use style="stroke:#000000;stroke-width:1.25;" x="481.382812" xlink:href="#m3a0075909e" y="304.543219"/>
      </g>
     </g>
    </g>
    <g id="ytick_8">
     <g id="line2d_57">
      <g>
       <use style="stroke:#000000;stroke-width:1.25;" x="34.982813" xlink:href="#ma64793a771" y="288.235219"/>
      </g>
     </g>
     <g id="line2d_58">
      <g>
       <use style="stroke:#000000;stroke-width:1.25;" x="481.382812" xlink:href="#m3a0075909e" y="288.235219"/>
      </g>
     </g>
    </g>
    <g id="ytick_9">
     <g id="line2d_59">
      <g>
       <use style="stroke:#000000;stroke-width:1.25;" x="34.982813" xlink:href="#ma64793a771" y="271.927219"/>
      </g>
     </g>
     <g id="line2d_60">
      <g>
       <use style="stroke:#000000;stroke-width:1.25;" x="481.382812" xlink:href="#m3a0075909e" y="271.927219"/>
      </g>
     </g>
    </g>
    <g id="ytick_10">
     <g id="line2d_61">
      <g>
       <use style="stroke:#000000;stroke-width:1.25;" x="34.982813" xlink:href="#ma64793a771" y="239.311219"/>
      </g>
     </g>
     <g id="line2d_62">
      <g>
       <use style="stroke:#000000;stroke-width:1.25;" x="481.382812" xlink:href="#m3a0075909e" y="239.311219"/>
      </g>
     </g>
    </g>
    <g id="ytick_11">
     <g id="line2d_63">
      <g>
       <use style="stroke:#000000;stroke-width:1.25;" x="34.982813" xlink:href="#ma64793a771" y="223.003219"/>
      </g>
     </g>
     <g id="line2d_64">
      <g>
       <use style="stroke:#000000;stroke-width:1.25;" x="481.382812" xlink:href="#m3a0075909e" y="223.003219"/>
      </g>
     </g>
    </g>
    <g id="ytick_12">
     <g id="line2d_65">
      <g>
       <use style="stroke:#000000;stroke-width:1.25;" x="34.982813" xlink:href="#ma64793a771" y="206.695219"/>
      </g>
     </g>
     <g id="line2d_66">
      <g>
       <use style="stroke:#000000;stroke-width:1.25;" x="481.382812" xlink:href="#m3a0075909e" y="206.695219"/>
      </g>
     </g>
    </g>
    <g id="ytick_13">
     <g id="line2d_67">
      <g>
       <use style="stroke:#000000;stroke-width:1.25;" x="34.982813" xlink:href="#ma64793a771" y="190.387219"/>
      </g>
     </g>
     <g id="line2d_68">
      <g>
       <use style="stroke:#000000;stroke-width:1.25;" x="481.382812" xlink:href="#m3a0075909e" y="190.387219"/>
      </g>
     </g>
    </g>
    <g id="ytick_14">
     <g id="line2d_69">
      <g>
       <use style="stroke:#000000;stroke-width:1.25;" x="34.982813" xlink:href="#ma64793a771" y="157.771219"/>
      </g>
     </g>
     <g id="line2d_70">
      <g>
       <use style="stroke:#000000;stroke-width:1.25;" x="481.382812" xlink:href="#m3a0075909e" y="157.771219"/>
      </g>
     </g>
    </g>
    <g id="ytick_15">
     <g id="line2d_71">
      <g>
       <use style="stroke:#000000;stroke-width:1.25;" x="34.982813" xlink:href="#ma64793a771" y="141.463219"/>
      </g>
     </g>
     <g id="line2d_72">
      <g>
       <use style="stroke:#000000;stroke-width:1.25;" x="481.382812" xlink:href="#m3a0075909e" y="141.463219"/>
      </g>
     </g>
    </g>
    <g id="ytick_16">
     <g id="line2d_73">
      <g>
       <use style="stroke:#000000;stroke-width:1.25;" x="34.982813" xlink:href="#ma64793a771" y="125.155219"/>
      </g>
     </g>
     <g id="line2d_74">
      <g>
       <use style="stroke:#000000;stroke-width:1.25;" x="481.382812" xlink:href="#m3a0075909e" y="125.155219"/>
      </g>
     </g>
    </g>
    <g id="ytick_17">
     <g id="line2d_75">
      <g>
       <use style="stroke:#000000;stroke-width:1.25;" x="34.982813" xlink:href="#ma64793a771" y="108.847219"/>
      </g>
     </g>
     <g id="line2d_76">
      <g>
       <use style="stroke:#000000;stroke-width:1.25;" x="481.382812" xlink:href="#m3a0075909e" y="108.847219"/>
      </g>
     </g>
    </g>
    <g id="ytick_18">
     <g id="line2d_77">
      <g>
       <use style="stroke:#000000;stroke-width:1.25;" x="34.982813" xlink:href="#ma64793a771" y="76.231219"/>
      </g>
     </g>
     <g id="line2d_78">
      <g>
       <use style="stroke:#000000;stroke-width:1.25;" x="481.382812" xlink:href="#m3a0075909e" y="76.231219"/>
      </g>
     </g>
    </g>
    <g id="ytick_19">
     <g id="line2d_79">
      <g>
       <use style="stroke:#000000;stroke-width:1.25;" x="34.982813" xlink:href="#ma64793a771" y="59.923219"/>
      </g>
     </g>
     <g id="line2d_80">
      <g>
       <use style="stroke:#000000;stroke-width:1.25;" x="481.382812" xlink:href="#m3a0075909e" y="59.923219"/>
      </g>
     </g>
    </g>
    <g id="ytick_20">
     <g id="line2d_81">
      <g>
       <use style="stroke:#000000;stroke-width:1.25;" x="34.982813" xlink:href="#ma64793a771" y="43.615219"/>
      </g>
     </g>
     <g id="line2d_82">
      <g>
       <use style="stroke:#000000;stroke-width:1.25;" x="481.382812" xlink:href="#m3a0075909e" y="43.615219"/>
      </g>
     </g>
    </g>
    <g id="ytick_21">
     <g id="line2d_83">
      <g>
       <use style="stroke:#000000;stroke-width:1.25;" x="34.982813" xlink:href="#ma64793a771" y="27.307219"/>
      </g>
     </g>
     <g id="line2d_84">
      <g>
       <use style="stroke:#000000;stroke-width:1.25;" x="481.382812" xlink:href="#m3a0075909e" y="27.307219"/>
      </g>
     </g>
    </g>
   </g>
   <g id="line2d_85">
    <path clip-path="url(#pbae63b9080)" d="M 55.273722 92.539219 
L 59.352296 97.820058 
L 63.430871 103.401858 
L 67.509446 109.262589 
L 73.627308 118.525806 
L 79.74517 128.28212 
L 85.863032 138.444932 
L 94.020181 152.471347 
L 106.255905 174.079219 
L 120.530917 199.234401 
L 128.688066 213.140773 
L 134.805928 223.177947 
L 140.92379 232.779316 
L 147.041652 241.85966 
L 151.120227 247.583749 
L 155.198802 253.01775 
L 159.277376 258.140217 
L 163.355951 262.930933 
L 167.434526 267.370992 
L 171.5131 271.442871 
L 175.591675 275.130501 
L 179.67025 278.419327 
L 183.748824 281.29637 
L 187.827399 283.750276 
L 191.905974 285.771361 
L 195.984548 287.351647 
L 200.063123 288.4849 
L 202.10241 288.882421 
L 204.141698 289.166645 
L 206.180985 289.337292 
L 208.220273 289.394193 
L 210.25956 289.337292 
L 212.298847 289.166645 
L 214.338135 288.882421 
L 218.416709 287.974474 
L 222.495284 286.617035 
L 226.573859 284.81546 
L 230.652433 282.57686 
L 234.731008 279.910069 
L 238.809583 276.825613 
L 242.888157 273.335663 
L 246.966732 269.453994 
L 251.045307 265.195923 
L 255.123881 260.578257 
L 259.202456 255.619219 
L 263.281031 250.338379 
L 267.359606 244.75658 
L 271.43818 238.895849 
L 277.556042 229.632631 
L 283.673904 219.876317 
L 289.791766 209.713505 
L 297.948916 195.68709 
L 310.18464 174.079219 
L 324.459651 148.924037 
L 332.616801 135.017664 
L 338.734663 124.980491 
L 344.852525 115.379121 
L 350.970387 106.298778 
L 355.048961 100.574688 
L 359.127536 95.140687 
L 363.206111 90.018221 
L 367.284686 85.227504 
L 371.36326 80.787445 
L 375.441835 76.715566 
L 379.52041 73.027937 
L 383.598984 69.739111 
L 387.677559 66.862068 
L 391.756134 64.408161 
L 395.834708 62.387077 
L 399.913283 60.80679 
L 403.991858 59.673538 
L 406.031145 59.276017 
L 408.070432 58.991793 
L 410.10972 58.821146 
L 412.149007 58.764245 
L 414.188294 58.821146 
L 416.227582 58.991793 
L 418.266869 59.276017 
L 422.345444 60.183964 
L 426.424019 61.541403 
L 430.502593 63.342977 
L 434.581168 65.581577 
L 438.659743 68.248368 
L 442.738317 71.332825 
L 446.816892 74.822774 
L 450.895467 78.704444 
L 454.974041 82.962514 
L 459.052616 87.58018 
L 461.091903 90.018221 
L 461.091903 90.018221 
" style="fill:none;stroke:#1f77b4;stroke-dasharray:5.55,2.4;stroke-dashoffset:0;stroke-width:1.5;"/>
   </g>
   <g id="line2d_86">
    <path clip-path="url(#pbae63b9080)" d="M 55.273722 92.539219 
L 59.352296 97.820058 
L 63.430871 103.401858 
L 67.509446 109.262589 
L 73.627308 118.525806 
L 79.74517 128.28212 
L 85.863032 138.444932 
L 94.020181 152.471347 
L 106.255905 174.079219 
L 120.530917 199.234401 
L 128.688066 213.140773 
L 134.805928 223.177947 
L 140.92379 232.779316 
L 147.041652 241.85966 
L 151.120227 247.583749 
L 155.198802 253.01775 
L 159.277376 258.140217 
L 163.355951 262.930933 
L 167.434526 267.370992 
L 171.5131 271.442871 
L 175.591675 275.130501 
L 179.67025 278.419327 
L 183.748824 281.29637 
L 187.827399 283.750276 
L 191.905974 285.771361 
L 195.984548 287.351647 
L 200.063123 288.4849 
L 202.10241 288.882421 
L 204.141698 289.166645 
L 206.180985 289.337292 
L 208.220273 289.394193 
L 210.25956 289.337292 
L 212.298847 289.166645 
L 214.338135 288.882421 
L 218.416709 287.974474 
L 222.495284 286.617035 
L 226.573859 284.81546 
L 230.652433 282.57686 
L 234.731008 279.910069 
L 238.809583 276.825613 
L 242.888157 273.335663 
L 246.966732 269.453994 
L 251.045307 265.195923 
L 255.123881 260.578257 
L 259.202456 255.619219 
L 263.281031 250.338379 
L 267.359606 244.75658 
L 271.43818 238.895849 
L 277.556042 229.632631 
L 283.673904 219.876317 
L 289.791766 209.713505 
L 297.948916 195.68709 
L 310.18464 174.079219 
L 324.459651 148.924037 
L 332.616801 135.017664 
L 338.734663 124.980491 
L 344.852525 115.379121 
L 350.970387 106.298778 
L 355.048961 100.574688 
L 359.127536 95.140687 
L 363.206111 90.018221 
L 367.284686 85.227504 
L 371.36326 80.787445 
L 375.441835 76.715566 
L 379.52041 73.027937 
L 383.598984 69.739111 
L 387.677559 66.862068 
L 391.756134 64.408161 
L 395.834708 62.387077 
L 399.913283 60.80679 
L 403.991858 59.673538 
L 406.031145 59.276017 
L 408.070432 58.991793 
L 410.10972 58.821146 
L 412.149007 58.764245 
L 414.188294 58.821146 
L 416.227582 58.991793 
L 418.266869 59.276017 
L 422.345444 60.183964 
L 426.424019 61.541403 
L 430.502593 63.342977 
L 434.581168 65.581577 
L 438.659743 68.248368 
L 442.738317 71.332825 
L 446.816892 74.822774 
L 450.895467 78.704444 
L 454.974041 82.962514 
L 459.052616 87.58018 
L 461.091903 90.018221 
L 461.091903 90.018221 
" style="fill:none;stroke:#ff7f0e;stroke-dasharray:1.5,2.475;stroke-dashoffset:0;stroke-width:1.5;"/>
   </g>
   <g id="line2d_87">
    <path clip-path="url(#pbae63b9080)" d="M 55.273722 92.539219 
L 59.352296 87.58018 
L 63.430871 82.962514 
L 67.509446 78.704444 
L 71.58802 74.822774 
L 75.666595 71.332825 
L 79.74517 68.248368 
L 83.823744 65.581577 
L 87.902319 63.342977 
L 91.980894 61.541403 
L 96.059469 60.183964 
L 100.138043 59.276017 
L 102.177331 58.991793 
L 104.216618 58.821146 
L 106.255905 58.764245 
L 108.295193 58.821146 
L 110.33448 58.991793 
L 112.373767 59.276017 
L 116.452342 60.183964 
L 120.530917 61.541403 
L 124.609491 63.342977 
L 128.688066 65.581577 
L 132.766641 68.248368 
L 136.845215 71.332825 
L 140.92379 74.822774 
L 145.002365 78.704444 
L 149.080939 82.962514 
L 153.159514 87.58018 
L 157.238089 92.539219 
L 161.316664 97.820058 
L 165.395238 103.401858 
L 169.473813 109.262589 
L 175.591675 118.525806 
L 181.709537 128.28212 
L 187.827399 138.444932 
L 195.984548 152.471347 
L 208.220273 174.079219 
L 222.495284 199.234401 
L 230.652433 213.140773 
L 236.770295 223.177947 
L 242.888157 232.779316 
L 249.006019 241.85966 
L 253.084594 247.583749 
L 257.163169 253.01775 
L 261.241744 258.140217 
L 265.320318 262.930933 
L 269.398893 267.370992 
L 273.477468 271.442871 
L 277.556042 275.130501 
L 281.634617 278.419327 
L 285.713192 281.29637 
L 289.791766 283.750276 
L 293.870341 285.771361 
L 297.948916 287.351647 
L 302.02749 288.4849 
L 304.066778 288.882421 
L 306.106065 289.166645 
L 308.145352 289.337292 
L 310.18464 289.394193 
L 312.223927 289.337292 
L 314.263215 289.166645 
L 316.302502 288.882421 
L 320.381077 287.974474 
L 324.459651 286.617035 
L 328.538226 284.81546 
L 332.616801 282.57686 
L 336.695375 279.910069 
L 340.77395 276.825613 
L 344.852525 273.335663 
L 348.931099 269.453994 
L 353.009674 265.195923 
L 357.088249 260.578257 
L 361.166823 255.619219 
L 365.245398 250.338379 
L 369.323973 244.75658 
L 373.402548 238.895849 
L 379.52041 229.632631 
L 385.638272 219.876317 
L 391.756134 209.713505 
L 399.913283 195.68709 
L 412.149007 174.079219 
L 426.424019 148.924037 
L 434.581168 135.017664 
L 440.69903 124.980491 
L 446.816892 115.379121 
L 452.934754 106.298778 
L 457.013329 100.574688 
L 461.091903 95.140687 
L 461.091903 95.140687 
" style="fill:none;stroke:#2ca02c;stroke-dasharray:5.55,2.4;stroke-dashoffset:0;stroke-width:1.5;"/>
   </g>
   <g id="line2d_88">
    <path clip-path="url(#pbae63b9080)" d="M 55.273722 92.539219 
L 59.352296 87.58018 
L 63.430871 82.962514 
L 67.509446 78.704444 
L 71.58802 74.822774 
L 75.666595 71.332825 
L 79.74517 68.248368 
L 83.823744 65.581577 
L 87.902319 63.342977 
L 91.980894 61.541403 
L 96.059469 60.183964 
L 100.138043 59.276017 
L 102.177331 58.991793 
L 104.216618 58.821146 
L 106.255905 58.764245 
L 108.295193 58.821146 
L 110.33448 58.991793 
L 112.373767 59.276017 
L 116.452342 60.183964 
L 120.530917 61.541403 
L 124.609491 63.342977 
L 128.688066 65.581577 
L 132.766641 68.248368 
L 136.845215 71.332825 
L 140.92379 74.822774 
L 145.002365 78.704444 
L 149.080939 82.962514 
L 153.159514 87.58018 
L 157.238089 92.539219 
L 161.316664 97.820058 
L 165.395238 103.401858 
L 169.473813 109.262589 
L 175.591675 118.525806 
L 181.709537 128.28212 
L 187.827399 138.444932 
L 195.984548 152.471347 
L 208.220273 174.079219 
L 222.495284 199.234401 
L 230.652433 213.140773 
L 236.770295 223.177947 
L 242.888157 232.779316 
L 249.006019 241.85966 
L 253.084594 247.583749 
L 257.163169 253.01775 
L 261.241744 258.140217 
L 265.320318 262.930933 
L 269.398893 267.370992 
L 273.477468 271.442871 
L 277.556042 275.130501 
L 281.634617 278.419327 
L 285.713192 281.29637 
L 289.791766 283.750276 
L 293.870341 285.771361 
L 297.948916 287.351647 
L 302.02749 288.4849 
L 304.066778 288.882421 
L 306.106065 289.166645 
L 308.145352 289.337292 
L 310.18464 289.394193 
L 312.223927 289.337292 
L 314.263215 289.166645 
L 316.302502 288.882421 
L 320.381077 287.974474 
L 324.459651 286.617035 
L 328.538226 284.81546 
L 332.616801 282.57686 
L 336.695375 279.910069 
L 340.77395 276.825613 
L 344.852525 273.335663 
L 348.931099 269.453994 
L 353.009674 265.195923 
L 357.088249 260.578257 
L 361.166823 255.619219 
L 365.245398 250.338379 
L 369.323973 244.75658 
L 373.402548 238.895849 
L 379.52041 229.632631 
L 385.638272 219.876317 
L 391.756134 209.713505 
L 399.913283 195.68709 
L 412.149007 174.079219 
L 426.424019 148.924037 
L 434.581168 135.017664 
L 440.69903 124.980491 
L 446.816892 115.379121 
L 452.934754 106.298778 
L 457.013329 100.574688 
L 461.091903 95.140687 
L 461.091903 95.140687 
" style="fill:none;stroke:#d62728;stroke-dasharray:1.5,2.475;stroke-dashoffset:0;stroke-width:1.5;"/>
   </g>
   <g id="patch_3">
    <path d="M 34.982813 337.159219 
L 34.982813 10.999219 
" style="fill:none;stroke:#000000;stroke-linecap:square;stroke-linejoin:miter;stroke-width:1.5;"/>
   </g>
   <g id="patch_4">
    <path d="M 481.382812 337.159219 
L 481.382812 10.999219 
" style="fill:none;stroke:#000000;stroke-linecap:square;stroke-linejoin:miter;stroke-width:1.5;"/>
   </g>
   <g id="patch_5">
    <path d="M 34.982813 337.159219 
L 481.382812 337.159219 
" style="fill:none;stroke:#000000;stroke-linecap:square;stroke-linejoin:miter;stroke-width:1.5;"/>
   </g>
   <g id="patch_6">
    <path d="M 34.982813 10.999219 
L 481.382812 10.999219 
" style="fill:none;stroke:#000000;stroke-linecap:square;stroke-linejoin:miter;stroke-width:1.5;"/>
   </g>
  </g>
 </g>
 <defs>
  <clipPath id="pbae63b9080">
   <rect height="326.16" width="446.4" x="34.982813" y="10.999219"/>
  </clipPath>
 </defs>
</svg>
