<?xml version="1.0" encoding="utf-8" standalone="no"?>
<!DOCTYPE svg PUBLIC "-//W3C//DTD SVG 1.1//EN"
  "http://www.w3.org/Graphics/SVG/1.1/DTD/svg11.dtd">
<!-- Created with matplotlib (https://matplotlib.org/) -->
<svg height="353.738125pt" version="1.1" viewBox="0 0 488.582812 353.738125" width="488.582812pt" xmlns="http://www.w3.org/2000/svg" xmlns:xlink="http://www.w3.org/1999/xlink">
 <metadata>
  <rdf:RDF xmlns:cc="http://creativecommons.org/ns#" xmlns:dc="http://purl.org/dc/elements/1.1/" xmlns:rdf="http://www.w3.org/1999/02/22-rdf-syntax-ns#">
   <cc:Work>
    <dc:type rdf:resource="http://purl.org/dc/dcmitype/StillImage"/>
    <dc:date>2021-05-27T04:44:23.259814</dc:date>
    <dc:format>image/svg+xml</dc:format>
    <dc:creator>
     <cc:Agent>
      <dc:title>Matplotlib v3.3.4, https://matplotlib.org/</dc:title>
     </cc:Agent>
    </dc:creator>
   </cc:Work>
  </rdf:RDF>
 </metadata>
 <defs>
  <style type="text/css">*{stroke-linecap:butt;stroke-linejoin:round;}</style>
 </defs>
 <g id="figure_1">
  <g id="patch_1">
   <path d="M 0 353.738125 
L 488.582812 353.738125 
L 488.582812 0 
L 0 0 
z
" style="fill:none;"/>
  </g>
  <g id="axes_1">
   <g id="patch_2">
    <path d="M 34.982813 333.36 
L 481.382812 333.36 
L 481.382812 7.2 
L 34.982813 7.2 
z
" style="fill:#ffffff;"/>
   </g>
   <g id="matplotlib.axis_1">
    <g id="xtick_1">
     <g id="line2d_1">
      <defs>
       <path d="M 0 0 
L 0 -4 
" id="m442f432a17" style="stroke:#000000;stroke-width:1.25;"/>
      </defs>
      <g>
       <use style="stroke:#000000;stroke-width:1.25;" x="55.273722" xlink:href="#m442f432a17" y="333.36"/>
      </g>
     </g>
     <g id="line2d_2">
      <defs>
       <path d="M 0 0 
L 0 4 
" id="m6ae9d9c809" style="stroke:#000000;stroke-width:1.25;"/>
      </defs>
      <g>
       <use style="stroke:#000000;stroke-width:1.25;" x="55.273722" xlink:href="#m6ae9d9c809" y="7.2"/>
      </g>
     </g>
     <g id="text_1">
      <!-- 0.0 -->
      <g transform="translate(47.322159 344.458437)scale(0.1 -0.1)">
       <defs>
        <path d="M 31.78125 66.40625 
Q 24.171875 66.40625 20.328125 58.90625 
Q 16.5 51.421875 16.5 36.375 
Q 16.5 21.390625 20.328125 13.890625 
Q 24.171875 6.390625 31.78125 6.390625 
Q 39.453125 6.390625 43.28125 13.890625 
Q 47.125 21.390625 47.125 36.375 
Q 47.125 51.421875 43.28125 58.90625 
Q 39.453125 66.40625 31.78125 66.40625 
z
M 31.78125 74.21875 
Q 44.046875 74.21875 50.515625 64.515625 
Q 56.984375 54.828125 56.984375 36.375 
Q 56.984375 17.96875 50.515625 8.265625 
Q 44.046875 -1.421875 31.78125 -1.421875 
Q 19.53125 -1.421875 13.0625 8.265625 
Q 6.59375 17.96875 6.59375 36.375 
Q 6.59375 54.828125 13.0625 64.515625 
Q 19.53125 74.21875 31.78125 74.21875 
z
" id="DejaVuSans-48"/>
        <path d="M 10.6875 12.40625 
L 21 12.40625 
L 21 0 
L 10.6875 0 
z
" id="DejaVuSans-46"/>
       </defs>
       <use xlink:href="#DejaVuSans-48"/>
       <use x="63.623047" xlink:href="#DejaVuSans-46"/>
       <use x="95.410156" xlink:href="#DejaVuSans-48"/>
      </g>
     </g>
    </g>
    <g id="xtick_2">
     <g id="line2d_3">
      <g>
       <use style="stroke:#000000;stroke-width:1.25;" x="157.238089" xlink:href="#m442f432a17" y="333.36"/>
      </g>
     </g>
     <g id="line2d_4">
      <g>
       <use style="stroke:#000000;stroke-width:1.25;" x="157.238089" xlink:href="#m6ae9d9c809" y="7.2"/>
      </g>
     </g>
     <g id="text_2">
      <!-- 0.5 -->
      <g transform="translate(149.286526 344.458437)scale(0.1 -0.1)">
       <defs>
        <path d="M 10.796875 72.90625 
L 49.515625 72.90625 
L 49.515625 64.59375 
L 19.828125 64.59375 
L 19.828125 46.734375 
Q 21.96875 47.46875 24.109375 47.828125 
Q 26.265625 48.1875 28.421875 48.1875 
Q 40.625 48.1875 47.75 41.5 
Q 54.890625 34.8125 54.890625 23.390625 
Q 54.890625 11.625 47.5625 5.09375 
Q 40.234375 -1.421875 26.90625 -1.421875 
Q 22.3125 -1.421875 17.546875 -0.640625 
Q 12.796875 0.140625 7.71875 1.703125 
L 7.71875 11.625 
Q 12.109375 9.234375 16.796875 8.0625 
Q 21.484375 6.890625 26.703125 6.890625 
Q 35.15625 6.890625 40.078125 11.328125 
Q 45.015625 15.765625 45.015625 23.390625 
Q 45.015625 31 40.078125 35.4375 
Q 35.15625 39.890625 26.703125 39.890625 
Q 22.75 39.890625 18.8125 39.015625 
Q 14.890625 38.140625 10.796875 36.28125 
z
" id="DejaVuSans-53"/>
       </defs>
       <use xlink:href="#DejaVuSans-48"/>
       <use x="63.623047" xlink:href="#DejaVuSans-46"/>
       <use x="95.410156" xlink:href="#DejaVuSans-53"/>
      </g>
     </g>
    </g>
    <g id="xtick_3">
     <g id="line2d_5">
      <g>
       <use style="stroke:#000000;stroke-width:1.25;" x="259.202456" xlink:href="#m442f432a17" y="333.36"/>
      </g>
     </g>
     <g id="line2d_6">
      <g>
       <use style="stroke:#000000;stroke-width:1.25;" x="259.202456" xlink:href="#m6ae9d9c809" y="7.2"/>
      </g>
     </g>
     <g id="text_3">
      <!-- 1.0 -->
      <g transform="translate(251.250894 344.458437)scale(0.1 -0.1)">
       <defs>
        <path d="M 12.40625 8.296875 
L 28.515625 8.296875 
L 28.515625 63.921875 
L 10.984375 60.40625 
L 10.984375 69.390625 
L 28.421875 72.90625 
L 38.28125 72.90625 
L 38.28125 8.296875 
L 54.390625 8.296875 
L 54.390625 0 
L 12.40625 0 
z
" id="DejaVuSans-49"/>
       </defs>
       <use xlink:href="#DejaVuSans-49"/>
       <use x="63.623047" xlink:href="#DejaVuSans-46"/>
       <use x="95.410156" xlink:href="#DejaVuSans-48"/>
      </g>
     </g>
    </g>
    <g id="xtick_4">
     <g id="line2d_7">
      <g>
       <use style="stroke:#000000;stroke-width:1.25;" x="361.166823" xlink:href="#m442f432a17" y="333.36"/>
      </g>
     </g>
     <g id="line2d_8">
      <g>
       <use style="stroke:#000000;stroke-width:1.25;" x="361.166823" xlink:href="#m6ae9d9c809" y="7.2"/>
      </g>
     </g>
     <g id="text_4">
      <!-- 1.5 -->
      <g transform="translate(353.215261 344.458437)scale(0.1 -0.1)">
       <use xlink:href="#DejaVuSans-49"/>
       <use x="63.623047" xlink:href="#DejaVuSans-46"/>
       <use x="95.410156" xlink:href="#DejaVuSans-53"/>
      </g>
     </g>
    </g>
    <g id="xtick_5">
     <g id="line2d_9">
      <g>
       <use style="stroke:#000000;stroke-width:1.25;" x="463.131191" xlink:href="#m442f432a17" y="333.36"/>
      </g>
     </g>
     <g id="line2d_10">
      <g>
       <use style="stroke:#000000;stroke-width:1.25;" x="463.131191" xlink:href="#m6ae9d9c809" y="7.2"/>
      </g>
     </g>
     <g id="text_5">
      <!-- 2.0 -->
      <g transform="translate(455.179628 344.458437)scale(0.1 -0.1)">
       <defs>
        <path d="M 19.1875 8.296875 
L 53.609375 8.296875 
L 53.609375 0 
L 7.328125 0 
L 7.328125 8.296875 
Q 12.9375 14.109375 22.625 23.890625 
Q 32.328125 33.6875 34.8125 36.53125 
Q 39.546875 41.84375 41.421875 45.53125 
Q 43.3125 49.21875 43.3125 52.78125 
Q 43.3125 58.59375 39.234375 62.25 
Q 35.15625 65.921875 28.609375 65.921875 
Q 23.96875 65.921875 18.8125 64.3125 
Q 13.671875 62.703125 7.8125 59.421875 
L 7.8125 69.390625 
Q 13.765625 71.78125 18.9375 73 
Q 24.125 74.21875 28.421875 74.21875 
Q 39.75 74.21875 46.484375 68.546875 
Q 53.21875 62.890625 53.21875 53.421875 
Q 53.21875 48.921875 51.53125 44.890625 
Q 49.859375 40.875 45.40625 35.40625 
Q 44.1875 33.984375 37.640625 27.21875 
Q 31.109375 20.453125 19.1875 8.296875 
z
" id="DejaVuSans-50"/>
       </defs>
       <use xlink:href="#DejaVuSans-50"/>
       <use x="63.623047" xlink:href="#DejaVuSans-46"/>
       <use x="95.410156" xlink:href="#DejaVuSans-48"/>
      </g>
     </g>
    </g>
    <g id="xtick_6">
     <g id="line2d_11">
      <defs>
       <path d="M 0 0 
L 0 -2 
" id="m6ffd7b22ea" style="stroke:#000000;stroke-width:1.25;"/>
      </defs>
      <g>
       <use style="stroke:#000000;stroke-width:1.25;" x="75.666595" xlink:href="#m6ffd7b22ea" y="333.36"/>
      </g>
     </g>
     <g id="line2d_12">
      <defs>
       <path d="M 0 0 
L 0 2 
" id="mdbddb4bf08" style="stroke:#000000;stroke-width:1.25;"/>
      </defs>
      <g>
       <use style="stroke:#000000;stroke-width:1.25;" x="75.666595" xlink:href="#mdbddb4bf08" y="7.2"/>
      </g>
     </g>
    </g>
    <g id="xtick_7">
     <g id="line2d_13">
      <g>
       <use style="stroke:#000000;stroke-width:1.25;" x="96.059469" xlink:href="#m6ffd7b22ea" y="333.36"/>
      </g>
     </g>
     <g id="line2d_14">
      <g>
       <use style="stroke:#000000;stroke-width:1.25;" x="96.059469" xlink:href="#mdbddb4bf08" y="7.2"/>
      </g>
     </g>
    </g>
    <g id="xtick_8">
     <g id="line2d_15">
      <g>
       <use style="stroke:#000000;stroke-width:1.25;" x="116.452342" xlink:href="#m6ffd7b22ea" y="333.36"/>
      </g>
     </g>
     <g id="line2d_16">
      <g>
       <use style="stroke:#000000;stroke-width:1.25;" x="116.452342" xlink:href="#mdbddb4bf08" y="7.2"/>
      </g>
     </g>
    </g>
    <g id="xtick_9">
     <g id="line2d_17">
      <g>
       <use style="stroke:#000000;stroke-width:1.25;" x="136.845215" xlink:href="#m6ffd7b22ea" y="333.36"/>
      </g>
     </g>
     <g id="line2d_18">
      <g>
       <use style="stroke:#000000;stroke-width:1.25;" x="136.845215" xlink:href="#mdbddb4bf08" y="7.2"/>
      </g>
     </g>
    </g>
    <g id="xtick_10">
     <g id="line2d_19">
      <g>
       <use style="stroke:#000000;stroke-width:1.25;" x="177.630962" xlink:href="#m6ffd7b22ea" y="333.36"/>
      </g>
     </g>
     <g id="line2d_20">
      <g>
       <use style="stroke:#000000;stroke-width:1.25;" x="177.630962" xlink:href="#mdbddb4bf08" y="7.2"/>
      </g>
     </g>
    </g>
    <g id="xtick_11">
     <g id="line2d_21">
      <g>
       <use style="stroke:#000000;stroke-width:1.25;" x="198.023836" xlink:href="#m6ffd7b22ea" y="333.36"/>
      </g>
     </g>
     <g id="line2d_22">
      <g>
       <use style="stroke:#000000;stroke-width:1.25;" x="198.023836" xlink:href="#mdbddb4bf08" y="7.2"/>
      </g>
     </g>
    </g>
    <g id="xtick_12">
     <g id="line2d_23">
      <g>
       <use style="stroke:#000000;stroke-width:1.25;" x="218.416709" xlink:href="#m6ffd7b22ea" y="333.36"/>
      </g>
     </g>
     <g id="line2d_24">
      <g>
       <use style="stroke:#000000;stroke-width:1.25;" x="218.416709" xlink:href="#mdbddb4bf08" y="7.2"/>
      </g>
     </g>
    </g>
    <g id="xtick_13">
     <g id="line2d_25">
      <g>
       <use style="stroke:#000000;stroke-width:1.25;" x="238.809583" xlink:href="#m6ffd7b22ea" y="333.36"/>
      </g>
     </g>
     <g id="line2d_26">
      <g>
       <use style="stroke:#000000;stroke-width:1.25;" x="238.809583" xlink:href="#mdbddb4bf08" y="7.2"/>
      </g>
     </g>
    </g>
    <g id="xtick_14">
     <g id="line2d_27">
      <g>
       <use style="stroke:#000000;stroke-width:1.25;" x="279.59533" xlink:href="#m6ffd7b22ea" y="333.36"/>
      </g>
     </g>
     <g id="line2d_28">
      <g>
       <use style="stroke:#000000;stroke-width:1.25;" x="279.59533" xlink:href="#mdbddb4bf08" y="7.2"/>
      </g>
     </g>
    </g>
    <g id="xtick_15">
     <g id="line2d_29">
      <g>
       <use style="stroke:#000000;stroke-width:1.25;" x="299.988203" xlink:href="#m6ffd7b22ea" y="333.36"/>
      </g>
     </g>
     <g id="line2d_30">
      <g>
       <use style="stroke:#000000;stroke-width:1.25;" x="299.988203" xlink:href="#mdbddb4bf08" y="7.2"/>
      </g>
     </g>
    </g>
    <g id="xtick_16">
     <g id="line2d_31">
      <g>
       <use style="stroke:#000000;stroke-width:1.25;" x="320.381077" xlink:href="#m6ffd7b22ea" y="333.36"/>
      </g>
     </g>
     <g id="line2d_32">
      <g>
       <use style="stroke:#000000;stroke-width:1.25;" x="320.381077" xlink:href="#mdbddb4bf08" y="7.2"/>
      </g>
     </g>
    </g>
    <g id="xtick_17">
     <g id="line2d_33">
      <g>
       <use style="stroke:#000000;stroke-width:1.25;" x="340.77395" xlink:href="#m6ffd7b22ea" y="333.36"/>
      </g>
     </g>
     <g id="line2d_34">
      <g>
       <use style="stroke:#000000;stroke-width:1.25;" x="340.77395" xlink:href="#mdbddb4bf08" y="7.2"/>
      </g>
     </g>
    </g>
    <g id="xtick_18">
     <g id="line2d_35">
      <g>
       <use style="stroke:#000000;stroke-width:1.25;" x="381.559697" xlink:href="#m6ffd7b22ea" y="333.36"/>
      </g>
     </g>
     <g id="line2d_36">
      <g>
       <use style="stroke:#000000;stroke-width:1.25;" x="381.559697" xlink:href="#mdbddb4bf08" y="7.2"/>
      </g>
     </g>
    </g>
    <g id="xtick_19">
     <g id="line2d_37">
      <g>
       <use style="stroke:#000000;stroke-width:1.25;" x="401.95257" xlink:href="#m6ffd7b22ea" y="333.36"/>
      </g>
     </g>
     <g id="line2d_38">
      <g>
       <use style="stroke:#000000;stroke-width:1.25;" x="401.95257" xlink:href="#mdbddb4bf08" y="7.2"/>
      </g>
     </g>
    </g>
    <g id="xtick_20">
     <g id="line2d_39">
      <g>
       <use style="stroke:#000000;stroke-width:1.25;" x="422.345444" xlink:href="#m6ffd7b22ea" y="333.36"/>
      </g>
     </g>
     <g id="line2d_40">
      <g>
       <use style="stroke:#000000;stroke-width:1.25;" x="422.345444" xlink:href="#mdbddb4bf08" y="7.2"/>
      </g>
     </g>
    </g>
    <g id="xtick_21">
     <g id="line2d_41">
      <g>
       <use style="stroke:#000000;stroke-width:1.25;" x="442.738317" xlink:href="#m6ffd7b22ea" y="333.36"/>
      </g>
     </g>
     <g id="line2d_42">
      <g>
       <use style="stroke:#000000;stroke-width:1.25;" x="442.738317" xlink:href="#mdbddb4bf08" y="7.2"/>
      </g>
     </g>
    </g>
   </g>
   <g id="matplotlib.axis_2">
    <g id="ytick_1">
     <g id="line2d_43">
      <defs>
       <path d="M 0 0 
L 4 0 
" id="m65da2b16e2" style="stroke:#000000;stroke-width:1.25;"/>
      </defs>
      <g>
       <use style="stroke:#000000;stroke-width:1.25;" x="34.982813" xlink:href="#m65da2b16e2" y="318.534545"/>
      </g>
     </g>
     <g id="line2d_44">
      <defs>
       <path d="M 0 0 
L -4 0 
" id="m60a32f9048" style="stroke:#000000;stroke-width:1.25;"/>
      </defs>
      <g>
       <use style="stroke:#000000;stroke-width:1.25;" x="481.382812" xlink:href="#m60a32f9048" y="318.534545"/>
      </g>
     </g>
     <g id="text_6">
      <!-- −1.0 -->
      <g transform="translate(7.2 322.333764)scale(0.1 -0.1)">
       <defs>
        <path d="M 10.59375 35.5 
L 73.1875 35.5 
L 73.1875 27.203125 
L 10.59375 27.203125 
z
" id="DejaVuSans-8722"/>
       </defs>
       <use xlink:href="#DejaVuSans-8722"/>
       <use x="83.789062" xlink:href="#DejaVuSans-49"/>
       <use x="147.412109" xlink:href="#DejaVuSans-46"/>
       <use x="179.199219" xlink:href="#DejaVuSans-48"/>
      </g>
     </g>
    </g>
    <g id="ytick_2">
     <g id="line2d_45">
      <g>
       <use style="stroke:#000000;stroke-width:1.25;" x="34.982813" xlink:href="#m65da2b16e2" y="244.407273"/>
      </g>
     </g>
     <g id="line2d_46">
      <g>
       <use style="stroke:#000000;stroke-width:1.25;" x="481.382812" xlink:href="#m60a32f9048" y="244.407273"/>
      </g>
     </g>
     <g id="text_7">
      <!-- −0.5 -->
      <g transform="translate(7.2 248.206491)scale(0.1 -0.1)">
       <use xlink:href="#DejaVuSans-8722"/>
       <use x="83.789062" xlink:href="#DejaVuSans-48"/>
       <use x="147.412109" xlink:href="#DejaVuSans-46"/>
       <use x="179.199219" xlink:href="#DejaVuSans-53"/>
      </g>
     </g>
    </g>
    <g id="ytick_3">
     <g id="line2d_47">
      <g>
       <use style="stroke:#000000;stroke-width:1.25;" x="34.982813" xlink:href="#m65da2b16e2" y="170.28"/>
      </g>
     </g>
     <g id="line2d_48">
      <g>
       <use style="stroke:#000000;stroke-width:1.25;" x="481.382812" xlink:href="#m60a32f9048" y="170.28"/>
      </g>
     </g>
     <g id="text_8">
      <!-- 0.0 -->
      <g transform="translate(15.579688 174.079219)scale(0.1 -0.1)">
       <use xlink:href="#DejaVuSans-48"/>
       <use x="63.623047" xlink:href="#DejaVuSans-46"/>
       <use x="95.410156" xlink:href="#DejaVuSans-48"/>
      </g>
     </g>
    </g>
    <g id="ytick_4">
     <g id="line2d_49">
      <g>
       <use style="stroke:#000000;stroke-width:1.25;" x="34.982813" xlink:href="#m65da2b16e2" y="96.152727"/>
      </g>
     </g>
     <g id="line2d_50">
      <g>
       <use style="stroke:#000000;stroke-width:1.25;" x="481.382812" xlink:href="#m60a32f9048" y="96.152727"/>
      </g>
     </g>
     <g id="text_9">
      <!-- 0.5 -->
      <g transform="translate(15.579688 99.951946)scale(0.1 -0.1)">
       <use xlink:href="#DejaVuSans-48"/>
       <use x="63.623047" xlink:href="#DejaVuSans-46"/>
       <use x="95.410156" xlink:href="#DejaVuSans-53"/>
      </g>
     </g>
    </g>
    <g id="ytick_5">
     <g id="line2d_51">
      <g>
       <use style="stroke:#000000;stroke-width:1.25;" x="34.982813" xlink:href="#m65da2b16e2" y="22.025455"/>
      </g>
     </g>
     <g id="line2d_52">
      <g>
       <use style="stroke:#000000;stroke-width:1.25;" x="481.382812" xlink:href="#m60a32f9048" y="22.025455"/>
      </g>
     </g>
     <g id="text_10">
      <!-- 1.0 -->
      <g transform="translate(15.579688 25.824673)scale(0.1 -0.1)">
       <use xlink:href="#DejaVuSans-49"/>
       <use x="63.623047" xlink:href="#DejaVuSans-46"/>
       <use x="95.410156" xlink:href="#DejaVuSans-48"/>
      </g>
     </g>
    </g>
    <g id="ytick_6">
     <g id="line2d_53">
      <defs>
       <path d="M 0 0 
L 2 0 
" id="m83b2f09aca" style="stroke:#000000;stroke-width:1.25;"/>
      </defs>
      <g>
       <use style="stroke:#000000;stroke-width:1.25;" x="34.982813" xlink:href="#m83b2f09aca" y="333.36"/>
      </g>
     </g>
     <g id="line2d_54">
      <defs>
       <path d="M 0 0 
L -2 0 
" id="m73a795f296" style="stroke:#000000;stroke-width:1.25;"/>
      </defs>
      <g>
       <use style="stroke:#000000;stroke-width:1.25;" x="481.382812" xlink:href="#m73a795f296" y="333.36"/>
      </g>
     </g>
    </g>
    <g id="ytick_7">
     <g id="line2d_55">
      <g>
       <use style="stroke:#000000;stroke-width:1.25;" x="34.982813" xlink:href="#m83b2f09aca" y="303.709091"/>
      </g>
     </g>
     <g id="line2d_56">
      <g>
       <use style="stroke:#000000;stroke-width:1.25;" x="481.382812" xlink:href="#m73a795f296" y="303.709091"/>
      </g>
     </g>
    </g>
    <g id="ytick_8">
     <g id="line2d_57">
      <g>
       <use style="stroke:#000000;stroke-width:1.25;" x="34.982813" xlink:href="#m83b2f09aca" y="288.883636"/>
      </g>
     </g>
     <g id="line2d_58">
      <g>
       <use style="stroke:#000000;stroke-width:1.25;" x="481.382812" xlink:href="#m73a795f296" y="288.883636"/>
      </g>
     </g>
    </g>
    <g id="ytick_9">
     <g id="line2d_59">
      <g>
       <use style="stroke:#000000;stroke-width:1.25;" x="34.982813" xlink:href="#m83b2f09aca" y="274.058182"/>
      </g>
     </g>
     <g id="line2d_60">
      <g>
       <use style="stroke:#000000;stroke-width:1.25;" x="481.382812" xlink:href="#m73a795f296" y="274.058182"/>
      </g>
     </g>
    </g>
    <g id="ytick_10">
     <g id="line2d_61">
      <g>
       <use style="stroke:#000000;stroke-width:1.25;" x="34.982813" xlink:href="#m83b2f09aca" y="259.232727"/>
      </g>
     </g>
     <g id="line2d_62">
      <g>
       <use style="stroke:#000000;stroke-width:1.25;" x="481.382812" xlink:href="#m73a795f296" y="259.232727"/>
      </g>
     </g>
    </g>
    <g id="ytick_11">
     <g id="line2d_63">
      <g>
       <use style="stroke:#000000;stroke-width:1.25;" x="34.982813" xlink:href="#m83b2f09aca" y="229.581818"/>
      </g>
     </g>
     <g id="line2d_64">
      <g>
       <use style="stroke:#000000;stroke-width:1.25;" x="481.382812" xlink:href="#m73a795f296" y="229.581818"/>
      </g>
     </g>
    </g>
    <g id="ytick_12">
     <g id="line2d_65">
      <g>
       <use style="stroke:#000000;stroke-width:1.25;" x="34.982813" xlink:href="#m83b2f09aca" y="214.756364"/>
      </g>
     </g>
     <g id="line2d_66">
      <g>
       <use style="stroke:#000000;stroke-width:1.25;" x="481.382812" xlink:href="#m73a795f296" y="214.756364"/>
      </g>
     </g>
    </g>
    <g id="ytick_13">
     <g id="line2d_67">
      <g>
       <use style="stroke:#000000;stroke-width:1.25;" x="34.982813" xlink:href="#m83b2f09aca" y="199.930909"/>
      </g>
     </g>
     <g id="line2d_68">
      <g>
       <use style="stroke:#000000;stroke-width:1.25;" x="481.382812" xlink:href="#m73a795f296" y="199.930909"/>
      </g>
     </g>
    </g>
    <g id="ytick_14">
     <g id="line2d_69">
      <g>
       <use style="stroke:#000000;stroke-width:1.25;" x="34.982813" xlink:href="#m83b2f09aca" y="185.105455"/>
      </g>
     </g>
     <g id="line2d_70">
      <g>
       <use style="stroke:#000000;stroke-width:1.25;" x="481.382812" xlink:href="#m73a795f296" y="185.105455"/>
      </g>
     </g>
    </g>
    <g id="ytick_15">
     <g id="line2d_71">
      <g>
       <use style="stroke:#000000;stroke-width:1.25;" x="34.982813" xlink:href="#m83b2f09aca" y="155.454545"/>
      </g>
     </g>
     <g id="line2d_72">
      <g>
       <use style="stroke:#000000;stroke-width:1.25;" x="481.382812" xlink:href="#m73a795f296" y="155.454545"/>
      </g>
     </g>
    </g>
    <g id="ytick_16">
     <g id="line2d_73">
      <g>
       <use style="stroke:#000000;stroke-width:1.25;" x="34.982813" xlink:href="#m83b2f09aca" y="140.629091"/>
      </g>
     </g>
     <g id="line2d_74">
      <g>
       <use style="stroke:#000000;stroke-width:1.25;" x="481.382812" xlink:href="#m73a795f296" y="140.629091"/>
      </g>
     </g>
    </g>
    <g id="ytick_17">
     <g id="line2d_75">
      <g>
       <use style="stroke:#000000;stroke-width:1.25;" x="34.982813" xlink:href="#m83b2f09aca" y="125.803636"/>
      </g>
     </g>
     <g id="line2d_76">
      <g>
       <use style="stroke:#000000;stroke-width:1.25;" x="481.382812" xlink:href="#m73a795f296" y="125.803636"/>
      </g>
     </g>
    </g>
    <g id="ytick_18">
     <g id="line2d_77">
      <g>
       <use style="stroke:#000000;stroke-width:1.25;" x="34.982813" xlink:href="#m83b2f09aca" y="110.978182"/>
      </g>
     </g>
     <g id="line2d_78">
      <g>
       <use style="stroke:#000000;stroke-width:1.25;" x="481.382812" xlink:href="#m73a795f296" y="110.978182"/>
      </g>
     </g>
    </g>
    <g id="ytick_19">
     <g id="line2d_79">
      <g>
       <use style="stroke:#000000;stroke-width:1.25;" x="34.982813" xlink:href="#m83b2f09aca" y="81.327273"/>
      </g>
     </g>
     <g id="line2d_80">
      <g>
       <use style="stroke:#000000;stroke-width:1.25;" x="481.382812" xlink:href="#m73a795f296" y="81.327273"/>
      </g>
     </g>
    </g>
    <g id="ytick_20">
     <g id="line2d_81">
      <g>
       <use style="stroke:#000000;stroke-width:1.25;" x="34.982813" xlink:href="#m83b2f09aca" y="66.501818"/>
      </g>
     </g>
     <g id="line2d_82">
      <g>
       <use style="stroke:#000000;stroke-width:1.25;" x="481.382812" xlink:href="#m73a795f296" y="66.501818"/>
      </g>
     </g>
    </g>
    <g id="ytick_21">
     <g id="line2d_83">
      <g>
       <use style="stroke:#000000;stroke-width:1.25;" x="34.982813" xlink:href="#m83b2f09aca" y="51.676364"/>
      </g>
     </g>
     <g id="line2d_84">
      <g>
       <use style="stroke:#000000;stroke-width:1.25;" x="481.382812" xlink:href="#m73a795f296" y="51.676364"/>
      </g>
     </g>
    </g>
    <g id="ytick_22">
     <g id="line2d_85">
      <g>
       <use style="stroke:#000000;stroke-width:1.25;" x="34.982813" xlink:href="#m83b2f09aca" y="36.850909"/>
      </g>
     </g>
     <g id="line2d_86">
      <g>
       <use style="stroke:#000000;stroke-width:1.25;" x="481.382812" xlink:href="#m73a795f296" y="36.850909"/>
      </g>
     </g>
    </g>
   </g>
   <g id="line2d_87">
    <path clip-path="url(#p62eab5b93b)" d="M 55.273722 170.28 
L 461.091903 170.28 
L 461.091903 170.28 
" style="fill:none;stroke:#1f77b4;stroke-linecap:square;stroke-width:1.5;"/>
   </g>
   <g id="line2d_88">
    <path clip-path="url(#p62eab5b93b)" d="M 55.273722 170.28 
L 461.091903 170.28 
L 461.091903 170.28 
" style="fill:none;stroke:#ff7f0e;stroke-dasharray:9.6,2.4,1.5,2.4;stroke-dashoffset:0;stroke-width:1.5;"/>
   </g>
   <g id="line2d_89">
    <path clip-path="url(#p62eab5b93b)" d="M 55.273722 170.28 
L 63.430871 133.410594 
L 67.509446 115.703862 
L 71.58802 98.857828 
L 75.666595 83.138165 
L 79.74517 68.79278 
L 81.784457 62.207087 
L 83.823744 56.047909 
L 85.863032 50.339553 
L 87.902319 45.104547 
L 89.941606 40.363551 
L 91.980894 36.135277 
L 94.020181 32.43641 
L 96.059469 29.281548 
L 98.098756 26.683144 
L 100.138043 24.65145 
L 102.177331 23.194486 
L 104.216618 22.318001 
L 106.255905 22.025455 
L 108.295193 22.318001 
L 110.33448 23.194486 
L 112.373767 24.65145 
L 114.413055 26.683144 
L 116.452342 29.281548 
L 118.491629 32.43641 
L 120.530917 36.135277 
L 122.570204 40.363551 
L 124.609491 45.104547 
L 126.648779 50.339553 
L 128.688066 56.047909 
L 130.727353 62.207087 
L 132.766641 68.79278 
L 136.845215 83.138165 
L 140.92379 98.857828 
L 145.002365 115.703862 
L 149.080939 133.410594 
L 155.198802 160.97102 
L 165.395238 207.149406 
L 169.473813 224.856138 
L 173.552388 241.702172 
L 177.630962 257.421835 
L 181.709537 271.76722 
L 183.748824 278.352913 
L 185.788112 284.512091 
L 187.827399 290.220447 
L 189.866686 295.455453 
L 191.905974 300.196449 
L 193.945261 304.424723 
L 195.984548 308.12359 
L 198.023836 311.278452 
L 200.063123 313.876856 
L 202.10241 315.90855 
L 204.141698 317.365514 
L 206.180985 318.241999 
L 208.220273 318.534545 
L 210.25956 318.241999 
L 212.298847 317.365514 
L 214.338135 315.90855 
L 216.377422 313.876856 
L 218.416709 311.278452 
L 220.455997 308.12359 
L 222.495284 304.424723 
L 224.534571 300.196449 
L 226.573859 295.455453 
L 228.613146 290.220447 
L 230.652433 284.512091 
L 232.691721 278.352913 
L 234.731008 271.76722 
L 238.809583 257.421835 
L 242.888157 241.702172 
L 246.966732 224.856138 
L 251.045307 207.149406 
L 257.163169 179.58898 
L 267.359606 133.410594 
L 271.43818 115.703862 
L 275.516755 98.857828 
L 279.59533 83.138165 
L 283.673904 68.79278 
L 285.713192 62.207087 
L 287.752479 56.047909 
L 289.791766 50.339553 
L 291.831054 45.104547 
L 293.870341 40.363551 
L 295.909628 36.135277 
L 297.948916 32.43641 
L 299.988203 29.281548 
L 302.02749 26.683144 
L 304.066778 24.65145 
L 306.106065 23.194486 
L 308.145352 22.318001 
L 310.18464 22.025455 
L 312.223927 22.318001 
L 314.263215 23.194486 
L 316.302502 24.65145 
L 318.341789 26.683144 
L 320.381077 29.281548 
L 322.420364 32.43641 
L 324.459651 36.135277 
L 326.498939 40.363551 
L 328.538226 45.104547 
L 330.577513 50.339553 
L 332.616801 56.047909 
L 334.656088 62.207087 
L 336.695375 68.79278 
L 340.77395 83.138165 
L 344.852525 98.857828 
L 348.931099 115.703862 
L 353.009674 133.410594 
L 359.127536 160.97102 
L 369.323973 207.149406 
L 373.402548 224.856138 
L 377.481122 241.702172 
L 381.559697 257.421835 
L 385.638272 271.76722 
L 387.677559 278.352913 
L 389.716846 284.512091 
L 391.756134 290.220447 
L 393.795421 295.455453 
L 395.834708 300.196449 
L 397.873996 304.424723 
L 399.913283 308.12359 
L 401.95257 311.278452 
L 403.991858 313.876856 
L 406.031145 315.90855 
L 408.070432 317.365514 
L 410.10972 318.241999 
L 412.149007 318.534545 
L 414.188294 318.241999 
L 416.227582 317.365514 
L 418.266869 315.90855 
L 420.306156 313.876856 
L 422.345444 311.278452 
L 424.384731 308.12359 
L 426.424019 304.424723 
L 428.463306 300.196449 
L 430.502593 295.455453 
L 432.541881 290.220447 
L 434.581168 284.512091 
L 436.620455 278.352913 
L 438.659743 271.76722 
L 442.738317 257.421835 
L 446.816892 241.702172 
L 450.895467 224.856138 
L 454.974041 207.149406 
L 461.091903 179.58898 
L 461.091903 179.58898 
" style="fill:none;stroke:#2ca02c;stroke-linecap:square;stroke-width:1.5;"/>
   </g>
   <g id="line2d_90">
    <path clip-path="url(#p62eab5b93b)" d="M 55.273722 22.025455 
L 57.313009 22.318001 
L 59.352296 23.194486 
L 61.391584 24.65145 
L 63.430871 26.683144 
L 65.470158 29.281548 
L 67.509446 32.43641 
L 69.548733 36.135277 
L 71.58802 40.363551 
L 73.627308 45.104547 
L 75.666595 50.339553 
L 77.705882 56.047909 
L 79.74517 62.207087 
L 81.784457 68.79278 
L 85.863032 83.138165 
L 89.941606 98.857828 
L 94.020181 115.703862 
L 98.098756 133.410594 
L 104.216618 160.97102 
L 114.413055 207.149406 
L 118.491629 224.856138 
L 122.570204 241.702172 
L 126.648779 257.421835 
L 130.727353 271.76722 
L 132.766641 278.352913 
L 134.805928 284.512091 
L 136.845215 290.220447 
L 138.884503 295.455453 
L 140.92379 300.196449 
L 142.963077 304.424723 
L 145.002365 308.12359 
L 147.041652 311.278452 
L 149.080939 313.876856 
L 151.120227 315.90855 
L 153.159514 317.365514 
L 155.198802 318.241999 
L 157.238089 318.534545 
L 159.277376 318.241999 
L 161.316664 317.365514 
L 163.355951 315.90855 
L 165.395238 313.876856 
L 167.434526 311.278452 
L 169.473813 308.12359 
L 171.5131 304.424723 
L 173.552388 300.196449 
L 175.591675 295.455453 
L 177.630962 290.220447 
L 179.67025 284.512091 
L 181.709537 278.352913 
L 183.748824 271.76722 
L 187.827399 257.421835 
L 191.905974 241.702172 
L 195.984548 224.856138 
L 200.063123 207.149406 
L 206.180985 179.58898 
L 216.377422 133.410594 
L 220.455997 115.703862 
L 224.534571 98.857828 
L 228.613146 83.138165 
L 232.691721 68.79278 
L 234.731008 62.207087 
L 236.770295 56.047909 
L 238.809583 50.339553 
L 240.84887 45.104547 
L 242.888157 40.363551 
L 244.927445 36.135277 
L 246.966732 32.43641 
L 249.006019 29.281548 
L 251.045307 26.683144 
L 253.084594 24.65145 
L 255.123881 23.194486 
L 257.163169 22.318001 
L 259.202456 22.025455 
L 261.241744 22.318001 
L 263.281031 23.194486 
L 265.320318 24.65145 
L 267.359606 26.683144 
L 269.398893 29.281548 
L 271.43818 32.43641 
L 273.477468 36.135277 
L 275.516755 40.363551 
L 277.556042 45.104547 
L 279.59533 50.339553 
L 281.634617 56.047909 
L 283.673904 62.207087 
L 285.713192 68.79278 
L 289.791766 83.138165 
L 293.870341 98.857828 
L 297.948916 115.703862 
L 302.02749 133.410594 
L 308.145352 160.97102 
L 318.341789 207.149406 
L 322.420364 224.856138 
L 326.498939 241.702172 
L 330.577513 257.421835 
L 334.656088 271.76722 
L 336.695375 278.352913 
L 338.734663 284.512091 
L 340.77395 290.220447 
L 342.813237 295.455453 
L 344.852525 300.196449 
L 346.891812 304.424723 
L 348.931099 308.12359 
L 350.970387 311.278452 
L 353.009674 313.876856 
L 355.048961 315.90855 
L 357.088249 317.365514 
L 359.127536 318.241999 
L 361.166823 318.534545 
L 363.206111 318.241999 
L 365.245398 317.365514 
L 367.284686 315.90855 
L 369.323973 313.876856 
L 371.36326 311.278452 
L 373.402548 308.12359 
L 375.441835 304.424723 
L 377.481122 300.196449 
L 379.52041 295.455453 
L 381.559697 290.220447 
L 383.598984 284.512091 
L 385.638272 278.352913 
L 387.677559 271.76722 
L 391.756134 257.421835 
L 395.834708 241.702172 
L 399.913283 224.856138 
L 403.991858 207.149406 
L 410.10972 179.58898 
L 420.306156 133.410594 
L 424.384731 115.703862 
L 428.463306 98.857828 
L 432.541881 83.138165 
L 436.620455 68.79278 
L 438.659743 62.207087 
L 440.69903 56.047909 
L 442.738317 50.339553 
L 444.777605 45.104547 
L 446.816892 40.363551 
L 448.856179 36.135277 
L 450.895467 32.43641 
L 452.934754 29.281548 
L 454.974041 26.683144 
L 457.013329 24.65145 
L 459.052616 23.194486 
L 461.091903 22.318001 
L 461.091903 22.318001 
" style="fill:none;stroke:#d62728;stroke-linecap:square;stroke-width:1.5;"/>
   </g>
   <g id="line2d_91">
    <path clip-path="url(#p62eab5b93b)" d="M 55.273722 22.025455 
L 57.313009 22.318001 
L 59.352296 23.194486 
L 61.391584 24.65145 
L 63.430871 26.683144 
L 65.470158 29.281548 
L 67.509446 32.43641 
L 69.548733 36.135277 
L 71.58802 40.363551 
L 73.627308 45.104547 
L 75.666595 50.339553 
L 77.705882 56.047909 
L 79.74517 62.207087 
L 81.784457 68.79278 
L 85.863032 83.138165 
L 89.941606 98.857828 
L 94.020181 115.703862 
L 98.098756 133.410594 
L 104.216618 160.97102 
L 114.413055 207.149406 
L 118.491629 224.856138 
L 122.570204 241.702172 
L 126.648779 257.421835 
L 130.727353 271.76722 
L 132.766641 278.352913 
L 134.805928 284.512091 
L 136.845215 290.220447 
L 138.884503 295.455453 
L 140.92379 300.196449 
L 142.963077 304.424723 
L 145.002365 308.12359 
L 147.041652 311.278452 
L 149.080939 313.876856 
L 151.120227 315.90855 
L 153.159514 317.365514 
L 155.198802 318.241999 
L 157.238089 318.534545 
L 159.277376 318.241999 
L 161.316664 317.365514 
L 163.355951 315.90855 
L 165.395238 313.876856 
L 167.434526 311.278452 
L 169.473813 308.12359 
L 171.5131 304.424723 
L 173.552388 300.196449 
L 175.591675 295.455453 
L 177.630962 290.220447 
L 179.67025 284.512091 
L 181.709537 278.352913 
L 183.748824 271.76722 
L 187.827399 257.421835 
L 191.905974 241.702172 
L 195.984548 224.856138 
L 200.063123 207.149406 
L 206.180985 179.58898 
L 216.377422 133.410594 
L 220.455997 115.703862 
L 224.534571 98.857828 
L 228.613146 83.138165 
L 232.691721 68.79278 
L 234.731008 62.207087 
L 236.770295 56.047909 
L 238.809583 50.339553 
L 240.84887 45.104547 
L 242.888157 40.363551 
L 244.927445 36.135277 
L 246.966732 32.43641 
L 249.006019 29.281548 
L 251.045307 26.683144 
L 253.084594 24.65145 
L 255.123881 23.194486 
L 257.163169 22.318001 
L 259.202456 22.025455 
L 261.241744 22.318001 
L 263.281031 23.194486 
L 265.320318 24.65145 
L 267.359606 26.683144 
L 269.398893 29.281548 
L 271.43818 32.43641 
L 273.477468 36.135277 
L 275.516755 40.363551 
L 277.556042 45.104547 
L 279.59533 50.339553 
L 281.634617 56.047909 
L 283.673904 62.207087 
L 285.713192 68.79278 
L 289.791766 83.138165 
L 293.870341 98.857828 
L 297.948916 115.703862 
L 302.02749 133.410594 
L 308.145352 160.97102 
L 318.341789 207.149406 
L 322.420364 224.856138 
L 326.498939 241.702172 
L 330.577513 257.421835 
L 334.656088 271.76722 
L 336.695375 278.352913 
L 338.734663 284.512091 
L 340.77395 290.220447 
L 342.813237 295.455453 
L 344.852525 300.196449 
L 346.891812 304.424723 
L 348.931099 308.12359 
L 350.970387 311.278452 
L 353.009674 313.876856 
L 355.048961 315.90855 
L 357.088249 317.365514 
L 359.127536 318.241999 
L 361.166823 318.534545 
L 363.206111 318.241999 
L 365.245398 317.365514 
L 367.284686 315.90855 
L 369.323973 313.876856 
L 371.36326 311.278452 
L 373.402548 308.12359 
L 375.441835 304.424723 
L 377.481122 300.196449 
L 379.52041 295.455453 
L 381.559697 290.220447 
L 383.598984 284.512091 
L 385.638272 278.352913 
L 387.677559 271.76722 
L 391.756134 257.421835 
L 395.834708 241.702172 
L 399.913283 224.856138 
L 403.991858 207.149406 
L 410.10972 179.58898 
L 420.306156 133.410594 
L 424.384731 115.703862 
L 428.463306 98.857828 
L 432.541881 83.138165 
L 436.620455 68.79278 
L 438.659743 62.207087 
L 440.69903 56.047909 
L 442.738317 50.339553 
L 444.777605 45.104547 
L 446.816892 40.363551 
L 448.856179 36.135277 
L 450.895467 32.43641 
L 452.934754 29.281548 
L 454.974041 26.683144 
L 457.013329 24.65145 
L 459.052616 23.194486 
L 461.091903 22.318001 
L 461.091903 22.318001 
" style="fill:none;stroke:#9467bd;stroke-dasharray:9.6,2.4,1.5,2.4;stroke-dashoffset:0;stroke-width:1.5;"/>
   </g>
   <g id="patch_3">
    <path d="M 34.982813 333.36 
L 34.982813 7.2 
" style="fill:none;stroke:#000000;stroke-linecap:square;stroke-linejoin:miter;stroke-width:1.5;"/>
   </g>
   <g id="patch_4">
    <path d="M 481.382812 333.36 
L 481.382812 7.2 
" style="fill:none;stroke:#000000;stroke-linecap:square;stroke-linejoin:miter;stroke-width:1.5;"/>
   </g>
   <g id="patch_5">
    <path d="M 34.982813 333.36 
L 481.382812 333.36 
" style="fill:none;stroke:#000000;stroke-linecap:square;stroke-linejoin:miter;stroke-width:1.5;"/>
   </g>
   <g id="patch_6">
    <path d="M 34.982813 7.2 
L 481.382812 7.2 
" style="fill:none;stroke:#000000;stroke-linecap:square;stroke-linejoin:miter;stroke-width:1.5;"/>
   </g>
  </g>
 </g>
 <defs>
  <clipPath id="p62eab5b93b">
   <rect height="326.16" width="446.4" x="34.982813" y="7.2"/>
  </clipPath>
 </defs>
</svg>
