<?xml version="1.0" encoding="utf-8" standalone="no"?>
<!DOCTYPE svg PUBLIC "-//W3C//DTD SVG 1.1//EN"
  "http://www.w3.org/Graphics/SVG/1.1/DTD/svg11.dtd">
<svg height="357.537344pt" version="1.1" viewBox="0 0 488.582812 357.537344" width="488.582812pt" xmlns="http://www.w3.org/2000/svg" xmlns:xlink="http://www.w3.org/1999/xlink">
 <metadata>
  <rdf:RDF xmlns:cc="http://creativecommons.org/ns#" xmlns:dc="http://purl.org/dc/elements/1.1/" xmlns:rdf="http://www.w3.org/1999/02/22-rdf-syntax-ns#">
   <cc:Work>
    <dc:type rdf:resource="http://purl.org/dc/dcmitype/StillImage"/>
    <dc:date>2021-08-20T23:29:27.528608</dc:date>
    <dc:format>image/svg+xml</dc:format>
    <dc:creator>
     <cc:Agent>
      <dc:title>Matplotlib v3.4.2, https://matplotlib.org/</dc:title>
     </cc:Agent>
    </dc:creator>
   </cc:Work>
  </rdf:RDF>
 </metadata>
 <defs>
  <style type="text/css">*{stroke-linecap:butt;stroke-linejoin:round;}</style>
 </defs>
 <g id="figure_1">
  <g id="patch_1">
   <path d="M 0 357.537344 
L 488.582812 357.537344 
L 488.582812 0 
L 0 0 
z
" style="fill:none;"/>
  </g>
  <g id="axes_1">
   <g id="patch_2">
    <path d="M 34.982813 337.159219 
L 481.382812 337.159219 
L 481.382812 10.999219 
L 34.982813 10.999219 
z
" style="fill:#ffffff;"/>
   </g>
   <g id="matplotlib.axis_1">
    <g id="xtick_1">
     <g id="line2d_1">
      <defs>
       <path d="M 0 0 
L 0 -4 
" id="m0f57ad011e" style="stroke:#000000;stroke-width:1.25;"/>
      </defs>
      <g>
       <use style="stroke:#000000;stroke-width:1.25;" x="55.273722" xlink:href="#m0f57ad011e" y="337.159219"/>
      </g>
     </g>
     <g id="line2d_2">
      <defs>
       <path d="M 0 0 
L 0 4 
" id="m304626f097" style="stroke:#000000;stroke-width:1.25;"/>
      </defs>
      <g>
       <use style="stroke:#000000;stroke-width:1.25;" x="55.273722" xlink:href="#m304626f097" y="10.999219"/>
      </g>
     </g>
     <g id="text_1">
      <!-- 0.0 -->
      <g transform="translate(47.322159 348.257656)scale(0.1 -0.1)">
       <defs>
        <path d="M 2034 4250 
Q 1547 4250 1301 3770 
Q 1056 3291 1056 2328 
Q 1056 1369 1301 889 
Q 1547 409 2034 409 
Q 2525 409 2770 889 
Q 3016 1369 3016 2328 
Q 3016 3291 2770 3770 
Q 2525 4250 2034 4250 
z
M 2034 4750 
Q 2819 4750 3233 4129 
Q 3647 3509 3647 2328 
Q 3647 1150 3233 529 
Q 2819 -91 2034 -91 
Q 1250 -91 836 529 
Q 422 1150 422 2328 
Q 422 3509 836 4129 
Q 1250 4750 2034 4750 
z
" id="DejaVuSans-30" transform="scale(0.015625)"/>
        <path d="M 684 794 
L 1344 794 
L 1344 0 
L 684 0 
L 684 794 
z
" id="DejaVuSans-2e" transform="scale(0.015625)"/>
       </defs>
       <use xlink:href="#DejaVuSans-30"/>
       <use x="63.623047" xlink:href="#DejaVuSans-2e"/>
       <use x="95.410156" xlink:href="#DejaVuSans-30"/>
      </g>
     </g>
    </g>
    <g id="xtick_2">
     <g id="line2d_3">
      <g>
       <use style="stroke:#000000;stroke-width:1.25;" x="157.238089" xlink:href="#m0f57ad011e" y="337.159219"/>
      </g>
     </g>
     <g id="line2d_4">
      <g>
       <use style="stroke:#000000;stroke-width:1.25;" x="157.238089" xlink:href="#m304626f097" y="10.999219"/>
      </g>
     </g>
     <g id="text_2">
      <!-- 0.5 -->
      <g transform="translate(149.286526 348.257656)scale(0.1 -0.1)">
       <defs>
        <path d="M 691 4666 
L 3169 4666 
L 3169 4134 
L 1269 4134 
L 1269 2991 
Q 1406 3038 1543 3061 
Q 1681 3084 1819 3084 
Q 2600 3084 3056 2656 
Q 3513 2228 3513 1497 
Q 3513 744 3044 326 
Q 2575 -91 1722 -91 
Q 1428 -91 1123 -41 
Q 819 9 494 109 
L 494 744 
Q 775 591 1075 516 
Q 1375 441 1709 441 
Q 2250 441 2565 725 
Q 2881 1009 2881 1497 
Q 2881 1984 2565 2268 
Q 2250 2553 1709 2553 
Q 1456 2553 1204 2497 
Q 953 2441 691 2322 
L 691 4666 
z
" id="DejaVuSans-35" transform="scale(0.015625)"/>
       </defs>
       <use xlink:href="#DejaVuSans-30"/>
       <use x="63.623047" xlink:href="#DejaVuSans-2e"/>
       <use x="95.410156" xlink:href="#DejaVuSans-35"/>
      </g>
     </g>
    </g>
    <g id="xtick_3">
     <g id="line2d_5">
      <g>
       <use style="stroke:#000000;stroke-width:1.25;" x="259.202456" xlink:href="#m0f57ad011e" y="337.159219"/>
      </g>
     </g>
     <g id="line2d_6">
      <g>
       <use style="stroke:#000000;stroke-width:1.25;" x="259.202456" xlink:href="#m304626f097" y="10.999219"/>
      </g>
     </g>
     <g id="text_3">
      <!-- 1.0 -->
      <g transform="translate(251.250894 348.257656)scale(0.1 -0.1)">
       <defs>
        <path d="M 794 531 
L 1825 531 
L 1825 4091 
L 703 3866 
L 703 4441 
L 1819 4666 
L 2450 4666 
L 2450 531 
L 3481 531 
L 3481 0 
L 794 0 
L 794 531 
z
" id="DejaVuSans-31" transform="scale(0.015625)"/>
       </defs>
       <use xlink:href="#DejaVuSans-31"/>
       <use x="63.623047" xlink:href="#DejaVuSans-2e"/>
       <use x="95.410156" xlink:href="#DejaVuSans-30"/>
      </g>
     </g>
    </g>
    <g id="xtick_4">
     <g id="line2d_7">
      <g>
       <use style="stroke:#000000;stroke-width:1.25;" x="361.166823" xlink:href="#m0f57ad011e" y="337.159219"/>
      </g>
     </g>
     <g id="line2d_8">
      <g>
       <use style="stroke:#000000;stroke-width:1.25;" x="361.166823" xlink:href="#m304626f097" y="10.999219"/>
      </g>
     </g>
     <g id="text_4">
      <!-- 1.5 -->
      <g transform="translate(353.215261 348.257656)scale(0.1 -0.1)">
       <use xlink:href="#DejaVuSans-31"/>
       <use x="63.623047" xlink:href="#DejaVuSans-2e"/>
       <use x="95.410156" xlink:href="#DejaVuSans-35"/>
      </g>
     </g>
    </g>
    <g id="xtick_5">
     <g id="line2d_9">
      <g>
       <use style="stroke:#000000;stroke-width:1.25;" x="463.131191" xlink:href="#m0f57ad011e" y="337.159219"/>
      </g>
     </g>
     <g id="line2d_10">
      <g>
       <use style="stroke:#000000;stroke-width:1.25;" x="463.131191" xlink:href="#m304626f097" y="10.999219"/>
      </g>
     </g>
     <g id="text_5">
      <!-- 2.0 -->
      <g transform="translate(455.179628 348.257656)scale(0.1 -0.1)">
       <defs>
        <path d="M 1228 531 
L 3431 531 
L 3431 0 
L 469 0 
L 469 531 
Q 828 903 1448 1529 
Q 2069 2156 2228 2338 
Q 2531 2678 2651 2914 
Q 2772 3150 2772 3378 
Q 2772 3750 2511 3984 
Q 2250 4219 1831 4219 
Q 1534 4219 1204 4116 
Q 875 4013 500 3803 
L 500 4441 
Q 881 4594 1212 4672 
Q 1544 4750 1819 4750 
Q 2544 4750 2975 4387 
Q 3406 4025 3406 3419 
Q 3406 3131 3298 2873 
Q 3191 2616 2906 2266 
Q 2828 2175 2409 1742 
Q 1991 1309 1228 531 
z
" id="DejaVuSans-32" transform="scale(0.015625)"/>
       </defs>
       <use xlink:href="#DejaVuSans-32"/>
       <use x="63.623047" xlink:href="#DejaVuSans-2e"/>
       <use x="95.410156" xlink:href="#DejaVuSans-30"/>
      </g>
     </g>
    </g>
    <g id="xtick_6">
     <g id="line2d_11">
      <defs>
       <path d="M 0 0 
L 0 -2 
" id="m1594decf60" style="stroke:#000000;stroke-width:1.25;"/>
      </defs>
      <g>
       <use style="stroke:#000000;stroke-width:1.25;" x="75.666595" xlink:href="#m1594decf60" y="337.159219"/>
      </g>
     </g>
     <g id="line2d_12">
      <defs>
       <path d="M 0 0 
L 0 2 
" id="m2769ef21cf" style="stroke:#000000;stroke-width:1.25;"/>
      </defs>
      <g>
       <use style="stroke:#000000;stroke-width:1.25;" x="75.666595" xlink:href="#m2769ef21cf" y="10.999219"/>
      </g>
     </g>
    </g>
    <g id="xtick_7">
     <g id="line2d_13">
      <g>
       <use style="stroke:#000000;stroke-width:1.25;" x="96.059469" xlink:href="#m1594decf60" y="337.159219"/>
      </g>
     </g>
     <g id="line2d_14">
      <g>
       <use style="stroke:#000000;stroke-width:1.25;" x="96.059469" xlink:href="#m2769ef21cf" y="10.999219"/>
      </g>
     </g>
    </g>
    <g id="xtick_8">
     <g id="line2d_15">
      <g>
       <use style="stroke:#000000;stroke-width:1.25;" x="116.452342" xlink:href="#m1594decf60" y="337.159219"/>
      </g>
     </g>
     <g id="line2d_16">
      <g>
       <use style="stroke:#000000;stroke-width:1.25;" x="116.452342" xlink:href="#m2769ef21cf" y="10.999219"/>
      </g>
     </g>
    </g>
    <g id="xtick_9">
     <g id="line2d_17">
      <g>
       <use style="stroke:#000000;stroke-width:1.25;" x="136.845215" xlink:href="#m1594decf60" y="337.159219"/>
      </g>
     </g>
     <g id="line2d_18">
      <g>
       <use style="stroke:#000000;stroke-width:1.25;" x="136.845215" xlink:href="#m2769ef21cf" y="10.999219"/>
      </g>
     </g>
    </g>
    <g id="xtick_10">
     <g id="line2d_19">
      <g>
       <use style="stroke:#000000;stroke-width:1.25;" x="177.630962" xlink:href="#m1594decf60" y="337.159219"/>
      </g>
     </g>
     <g id="line2d_20">
      <g>
       <use style="stroke:#000000;stroke-width:1.25;" x="177.630962" xlink:href="#m2769ef21cf" y="10.999219"/>
      </g>
     </g>
    </g>
    <g id="xtick_11">
     <g id="line2d_21">
      <g>
       <use style="stroke:#000000;stroke-width:1.25;" x="198.023836" xlink:href="#m1594decf60" y="337.159219"/>
      </g>
     </g>
     <g id="line2d_22">
      <g>
       <use style="stroke:#000000;stroke-width:1.25;" x="198.023836" xlink:href="#m2769ef21cf" y="10.999219"/>
      </g>
     </g>
    </g>
    <g id="xtick_12">
     <g id="line2d_23">
      <g>
       <use style="stroke:#000000;stroke-width:1.25;" x="218.416709" xlink:href="#m1594decf60" y="337.159219"/>
      </g>
     </g>
     <g id="line2d_24">
      <g>
       <use style="stroke:#000000;stroke-width:1.25;" x="218.416709" xlink:href="#m2769ef21cf" y="10.999219"/>
      </g>
     </g>
    </g>
    <g id="xtick_13">
     <g id="line2d_25">
      <g>
       <use style="stroke:#000000;stroke-width:1.25;" x="238.809583" xlink:href="#m1594decf60" y="337.159219"/>
      </g>
     </g>
     <g id="line2d_26">
      <g>
       <use style="stroke:#000000;stroke-width:1.25;" x="238.809583" xlink:href="#m2769ef21cf" y="10.999219"/>
      </g>
     </g>
    </g>
    <g id="xtick_14">
     <g id="line2d_27">
      <g>
       <use style="stroke:#000000;stroke-width:1.25;" x="279.59533" xlink:href="#m1594decf60" y="337.159219"/>
      </g>
     </g>
     <g id="line2d_28">
      <g>
       <use style="stroke:#000000;stroke-width:1.25;" x="279.59533" xlink:href="#m2769ef21cf" y="10.999219"/>
      </g>
     </g>
    </g>
    <g id="xtick_15">
     <g id="line2d_29">
      <g>
       <use style="stroke:#000000;stroke-width:1.25;" x="299.988203" xlink:href="#m1594decf60" y="337.159219"/>
      </g>
     </g>
     <g id="line2d_30">
      <g>
       <use style="stroke:#000000;stroke-width:1.25;" x="299.988203" xlink:href="#m2769ef21cf" y="10.999219"/>
      </g>
     </g>
    </g>
    <g id="xtick_16">
     <g id="line2d_31">
      <g>
       <use style="stroke:#000000;stroke-width:1.25;" x="320.381077" xlink:href="#m1594decf60" y="337.159219"/>
      </g>
     </g>
     <g id="line2d_32">
      <g>
       <use style="stroke:#000000;stroke-width:1.25;" x="320.381077" xlink:href="#m2769ef21cf" y="10.999219"/>
      </g>
     </g>
    </g>
    <g id="xtick_17">
     <g id="line2d_33">
      <g>
       <use style="stroke:#000000;stroke-width:1.25;" x="340.77395" xlink:href="#m1594decf60" y="337.159219"/>
      </g>
     </g>
     <g id="line2d_34">
      <g>
       <use style="stroke:#000000;stroke-width:1.25;" x="340.77395" xlink:href="#m2769ef21cf" y="10.999219"/>
      </g>
     </g>
    </g>
    <g id="xtick_18">
     <g id="line2d_35">
      <g>
       <use style="stroke:#000000;stroke-width:1.25;" x="381.559697" xlink:href="#m1594decf60" y="337.159219"/>
      </g>
     </g>
     <g id="line2d_36">
      <g>
       <use style="stroke:#000000;stroke-width:1.25;" x="381.559697" xlink:href="#m2769ef21cf" y="10.999219"/>
      </g>
     </g>
    </g>
    <g id="xtick_19">
     <g id="line2d_37">
      <g>
       <use style="stroke:#000000;stroke-width:1.25;" x="401.95257" xlink:href="#m1594decf60" y="337.159219"/>
      </g>
     </g>
     <g id="line2d_38">
      <g>
       <use style="stroke:#000000;stroke-width:1.25;" x="401.95257" xlink:href="#m2769ef21cf" y="10.999219"/>
      </g>
     </g>
    </g>
    <g id="xtick_20">
     <g id="line2d_39">
      <g>
       <use style="stroke:#000000;stroke-width:1.25;" x="422.345444" xlink:href="#m1594decf60" y="337.159219"/>
      </g>
     </g>
     <g id="line2d_40">
      <g>
       <use style="stroke:#000000;stroke-width:1.25;" x="422.345444" xlink:href="#m2769ef21cf" y="10.999219"/>
      </g>
     </g>
    </g>
    <g id="xtick_21">
     <g id="line2d_41">
      <g>
       <use style="stroke:#000000;stroke-width:1.25;" x="442.738317" xlink:href="#m1594decf60" y="337.159219"/>
      </g>
     </g>
     <g id="line2d_42">
      <g>
       <use style="stroke:#000000;stroke-width:1.25;" x="442.738317" xlink:href="#m2769ef21cf" y="10.999219"/>
      </g>
     </g>
    </g>
   </g>
   <g id="matplotlib.axis_2">
    <g id="ytick_1">
     <g id="line2d_43">
      <defs>
       <path d="M 0 0 
L 4 0 
" id="m03c16177de" style="stroke:#000000;stroke-width:1.25;"/>
      </defs>
      <g>
       <use style="stroke:#000000;stroke-width:1.25;" x="34.982813" xlink:href="#m03c16177de" y="337.159219"/>
      </g>
     </g>
     <g id="line2d_44">
      <defs>
       <path d="M 0 0 
L -4 0 
" id="mdd8174ca8f" style="stroke:#000000;stroke-width:1.25;"/>
      </defs>
      <g>
       <use style="stroke:#000000;stroke-width:1.25;" x="481.382812" xlink:href="#mdd8174ca8f" y="337.159219"/>
      </g>
     </g>
     <g id="text_6">
      <!-- −1.0 -->
      <g transform="translate(7.2 340.958438)scale(0.1 -0.1)">
       <defs>
        <path d="M 678 2272 
L 4684 2272 
L 4684 1741 
L 678 1741 
L 678 2272 
z
" id="DejaVuSans-2212" transform="scale(0.015625)"/>
       </defs>
       <use xlink:href="#DejaVuSans-2212"/>
       <use x="83.789062" xlink:href="#DejaVuSans-31"/>
       <use x="147.412109" xlink:href="#DejaVuSans-2e"/>
       <use x="179.199219" xlink:href="#DejaVuSans-30"/>
      </g>
     </g>
    </g>
    <g id="ytick_2">
     <g id="line2d_45">
      <g>
       <use style="stroke:#000000;stroke-width:1.25;" x="34.982813" xlink:href="#m03c16177de" y="255.619219"/>
      </g>
     </g>
     <g id="line2d_46">
      <g>
       <use style="stroke:#000000;stroke-width:1.25;" x="481.382812" xlink:href="#mdd8174ca8f" y="255.619219"/>
      </g>
     </g>
     <g id="text_7">
      <!-- −0.5 -->
      <g transform="translate(7.2 259.418437)scale(0.1 -0.1)">
       <use xlink:href="#DejaVuSans-2212"/>
       <use x="83.789062" xlink:href="#DejaVuSans-30"/>
       <use x="147.412109" xlink:href="#DejaVuSans-2e"/>
       <use x="179.199219" xlink:href="#DejaVuSans-35"/>
      </g>
     </g>
    </g>
    <g id="ytick_3">
     <g id="line2d_47">
      <g>
       <use style="stroke:#000000;stroke-width:1.25;" x="34.982813" xlink:href="#m03c16177de" y="174.079219"/>
      </g>
     </g>
     <g id="line2d_48">
      <g>
       <use style="stroke:#000000;stroke-width:1.25;" x="481.382812" xlink:href="#mdd8174ca8f" y="174.079219"/>
      </g>
     </g>
     <g id="text_8">
      <!-- 0.0 -->
      <g transform="translate(15.579688 177.878437)scale(0.1 -0.1)">
       <use xlink:href="#DejaVuSans-30"/>
       <use x="63.623047" xlink:href="#DejaVuSans-2e"/>
       <use x="95.410156" xlink:href="#DejaVuSans-30"/>
      </g>
     </g>
    </g>
    <g id="ytick_4">
     <g id="line2d_49">
      <g>
       <use style="stroke:#000000;stroke-width:1.25;" x="34.982813" xlink:href="#m03c16177de" y="92.539219"/>
      </g>
     </g>
     <g id="line2d_50">
      <g>
       <use style="stroke:#000000;stroke-width:1.25;" x="481.382812" xlink:href="#mdd8174ca8f" y="92.539219"/>
      </g>
     </g>
     <g id="text_9">
      <!-- 0.5 -->
      <g transform="translate(15.579688 96.338437)scale(0.1 -0.1)">
       <use xlink:href="#DejaVuSans-30"/>
       <use x="63.623047" xlink:href="#DejaVuSans-2e"/>
       <use x="95.410156" xlink:href="#DejaVuSans-35"/>
      </g>
     </g>
    </g>
    <g id="ytick_5">
     <g id="line2d_51">
      <g>
       <use style="stroke:#000000;stroke-width:1.25;" x="34.982813" xlink:href="#m03c16177de" y="10.999219"/>
      </g>
     </g>
     <g id="line2d_52">
      <g>
       <use style="stroke:#000000;stroke-width:1.25;" x="481.382812" xlink:href="#mdd8174ca8f" y="10.999219"/>
      </g>
     </g>
     <g id="text_10">
      <!-- 1.0 -->
      <g transform="translate(15.579688 14.798437)scale(0.1 -0.1)">
       <use xlink:href="#DejaVuSans-31"/>
       <use x="63.623047" xlink:href="#DejaVuSans-2e"/>
       <use x="95.410156" xlink:href="#DejaVuSans-30"/>
      </g>
     </g>
    </g>
    <g id="ytick_6">
     <g id="line2d_53">
      <defs>
       <path d="M 0 0 
L 2 0 
" id="mf5f38ab07d" style="stroke:#000000;stroke-width:1.25;"/>
      </defs>
      <g>
       <use style="stroke:#000000;stroke-width:1.25;" x="34.982813" xlink:href="#mf5f38ab07d" y="320.851219"/>
      </g>
     </g>
     <g id="line2d_54">
      <defs>
       <path d="M 0 0 
L -2 0 
" id="m0a8538f36b" style="stroke:#000000;stroke-width:1.25;"/>
      </defs>
      <g>
       <use style="stroke:#000000;stroke-width:1.25;" x="481.382812" xlink:href="#m0a8538f36b" y="320.851219"/>
      </g>
     </g>
    </g>
    <g id="ytick_7">
     <g id="line2d_55">
      <g>
       <use style="stroke:#000000;stroke-width:1.25;" x="34.982813" xlink:href="#mf5f38ab07d" y="304.543219"/>
      </g>
     </g>
     <g id="line2d_56">
      <g>
       <use style="stroke:#000000;stroke-width:1.25;" x="481.382812" xlink:href="#m0a8538f36b" y="304.543219"/>
      </g>
     </g>
    </g>
    <g id="ytick_8">
     <g id="line2d_57">
      <g>
       <use style="stroke:#000000;stroke-width:1.25;" x="34.982813" xlink:href="#mf5f38ab07d" y="288.235219"/>
      </g>
     </g>
     <g id="line2d_58">
      <g>
       <use style="stroke:#000000;stroke-width:1.25;" x="481.382812" xlink:href="#m0a8538f36b" y="288.235219"/>
      </g>
     </g>
    </g>
    <g id="ytick_9">
     <g id="line2d_59">
      <g>
       <use style="stroke:#000000;stroke-width:1.25;" x="34.982813" xlink:href="#mf5f38ab07d" y="271.927219"/>
      </g>
     </g>
     <g id="line2d_60">
      <g>
       <use style="stroke:#000000;stroke-width:1.25;" x="481.382812" xlink:href="#m0a8538f36b" y="271.927219"/>
      </g>
     </g>
    </g>
    <g id="ytick_10">
     <g id="line2d_61">
      <g>
       <use style="stroke:#000000;stroke-width:1.25;" x="34.982813" xlink:href="#mf5f38ab07d" y="239.311219"/>
      </g>
     </g>
     <g id="line2d_62">
      <g>
       <use style="stroke:#000000;stroke-width:1.25;" x="481.382812" xlink:href="#m0a8538f36b" y="239.311219"/>
      </g>
     </g>
    </g>
    <g id="ytick_11">
     <g id="line2d_63">
      <g>
       <use style="stroke:#000000;stroke-width:1.25;" x="34.982813" xlink:href="#mf5f38ab07d" y="223.003219"/>
      </g>
     </g>
     <g id="line2d_64">
      <g>
       <use style="stroke:#000000;stroke-width:1.25;" x="481.382812" xlink:href="#m0a8538f36b" y="223.003219"/>
      </g>
     </g>
    </g>
    <g id="ytick_12">
     <g id="line2d_65">
      <g>
       <use style="stroke:#000000;stroke-width:1.25;" x="34.982813" xlink:href="#mf5f38ab07d" y="206.695219"/>
      </g>
     </g>
     <g id="line2d_66">
      <g>
       <use style="stroke:#000000;stroke-width:1.25;" x="481.382812" xlink:href="#m0a8538f36b" y="206.695219"/>
      </g>
     </g>
    </g>
    <g id="ytick_13">
     <g id="line2d_67">
      <g>
       <use style="stroke:#000000;stroke-width:1.25;" x="34.982813" xlink:href="#mf5f38ab07d" y="190.387219"/>
      </g>
     </g>
     <g id="line2d_68">
      <g>
       <use style="stroke:#000000;stroke-width:1.25;" x="481.382812" xlink:href="#m0a8538f36b" y="190.387219"/>
      </g>
     </g>
    </g>
    <g id="ytick_14">
     <g id="line2d_69">
      <g>
       <use style="stroke:#000000;stroke-width:1.25;" x="34.982813" xlink:href="#mf5f38ab07d" y="157.771219"/>
      </g>
     </g>
     <g id="line2d_70">
      <g>
       <use style="stroke:#000000;stroke-width:1.25;" x="481.382812" xlink:href="#m0a8538f36b" y="157.771219"/>
      </g>
     </g>
    </g>
    <g id="ytick_15">
     <g id="line2d_71">
      <g>
       <use style="stroke:#000000;stroke-width:1.25;" x="34.982813" xlink:href="#mf5f38ab07d" y="141.463219"/>
      </g>
     </g>
     <g id="line2d_72">
      <g>
       <use style="stroke:#000000;stroke-width:1.25;" x="481.382812" xlink:href="#m0a8538f36b" y="141.463219"/>
      </g>
     </g>
    </g>
    <g id="ytick_16">
     <g id="line2d_73">
      <g>
       <use style="stroke:#000000;stroke-width:1.25;" x="34.982813" xlink:href="#mf5f38ab07d" y="125.155219"/>
      </g>
     </g>
     <g id="line2d_74">
      <g>
       <use style="stroke:#000000;stroke-width:1.25;" x="481.382812" xlink:href="#m0a8538f36b" y="125.155219"/>
      </g>
     </g>
    </g>
    <g id="ytick_17">
     <g id="line2d_75">
      <g>
       <use style="stroke:#000000;stroke-width:1.25;" x="34.982813" xlink:href="#mf5f38ab07d" y="108.847219"/>
      </g>
     </g>
     <g id="line2d_76">
      <g>
       <use style="stroke:#000000;stroke-width:1.25;" x="481.382812" xlink:href="#m0a8538f36b" y="108.847219"/>
      </g>
     </g>
    </g>
    <g id="ytick_18">
     <g id="line2d_77">
      <g>
       <use style="stroke:#000000;stroke-width:1.25;" x="34.982813" xlink:href="#mf5f38ab07d" y="76.231219"/>
      </g>
     </g>
     <g id="line2d_78">
      <g>
       <use style="stroke:#000000;stroke-width:1.25;" x="481.382812" xlink:href="#m0a8538f36b" y="76.231219"/>
      </g>
     </g>
    </g>
    <g id="ytick_19">
     <g id="line2d_79">
      <g>
       <use style="stroke:#000000;stroke-width:1.25;" x="34.982813" xlink:href="#mf5f38ab07d" y="59.923219"/>
      </g>
     </g>
     <g id="line2d_80">
      <g>
       <use style="stroke:#000000;stroke-width:1.25;" x="481.382812" xlink:href="#m0a8538f36b" y="59.923219"/>
      </g>
     </g>
    </g>
    <g id="ytick_20">
     <g id="line2d_81">
      <g>
       <use style="stroke:#000000;stroke-width:1.25;" x="34.982813" xlink:href="#mf5f38ab07d" y="43.615219"/>
      </g>
     </g>
     <g id="line2d_82">
      <g>
       <use style="stroke:#000000;stroke-width:1.25;" x="481.382812" xlink:href="#m0a8538f36b" y="43.615219"/>
      </g>
     </g>
    </g>
    <g id="ytick_21">
     <g id="line2d_83">
      <g>
       <use style="stroke:#000000;stroke-width:1.25;" x="34.982813" xlink:href="#mf5f38ab07d" y="27.307219"/>
      </g>
     </g>
     <g id="line2d_84">
      <g>
       <use style="stroke:#000000;stroke-width:1.25;" x="481.382812" xlink:href="#m0a8538f36b" y="27.307219"/>
      </g>
     </g>
    </g>
   </g>
   <g id="line2d_85">
    <path clip-path="url(#pd61b924346)" d="M 55.273722 92.539219 
L 59.352296 87.58018 
L 63.430871 82.962514 
L 67.509446 78.704444 
L 71.58802 74.822774 
L 75.666595 71.332825 
L 79.74517 68.248368 
L 83.823744 65.581577 
L 87.902319 63.342977 
L 91.980894 61.541403 
L 96.059469 60.183964 
L 100.138043 59.276017 
L 102.177331 58.991793 
L 104.216618 58.821146 
L 106.255905 58.764245 
L 108.295193 58.821146 
L 110.33448 58.991793 
L 112.373767 59.276017 
L 116.452342 60.183964 
L 120.530917 61.541403 
L 124.609491 63.342977 
L 128.688066 65.581577 
L 132.766641 68.248368 
L 136.845215 71.332825 
L 140.92379 74.822774 
L 145.002365 78.704444 
L 149.080939 82.962514 
L 153.159514 87.58018 
L 157.238089 92.539219 
L 161.316664 97.820058 
L 165.395238 103.401858 
L 169.473813 109.262589 
L 175.591675 118.525806 
L 181.709537 128.28212 
L 187.827399 138.444932 
L 195.984548 152.471347 
L 208.220273 174.079219 
L 222.495284 199.234401 
L 230.652433 213.140773 
L 236.770295 223.177947 
L 242.888157 232.779316 
L 249.006019 241.85966 
L 253.084594 247.583749 
L 257.163169 253.01775 
L 261.241744 258.140217 
L 265.320318 262.930933 
L 269.398893 267.370992 
L 273.477468 271.442871 
L 277.556042 275.130501 
L 281.634617 278.419327 
L 285.713192 281.29637 
L 289.791766 283.750276 
L 293.870341 285.771361 
L 297.948916 287.351647 
L 302.02749 288.4849 
L 304.066778 288.882421 
L 306.106065 289.166645 
L 308.145352 289.337292 
L 310.18464 289.394193 
L 312.223927 289.337292 
L 314.263215 289.166645 
L 316.302502 288.882421 
L 320.381077 287.974474 
L 324.459651 286.617035 
L 328.538226 284.81546 
L 332.616801 282.57686 
L 336.695375 279.910069 
L 340.77395 276.825613 
L 344.852525 273.335663 
L 348.931099 269.453994 
L 353.009674 265.195923 
L 357.088249 260.578257 
L 361.166823 255.619219 
L 365.245398 250.338379 
L 369.323973 244.75658 
L 373.402548 238.895849 
L 379.52041 229.632631 
L 385.638272 219.876317 
L 391.756134 209.713505 
L 399.913283 195.68709 
L 412.149007 174.079219 
L 426.424019 148.924037 
L 434.581168 135.017664 
L 440.69903 124.980491 
L 446.816892 115.379121 
L 452.934754 106.298778 
L 457.013329 100.574688 
L 461.091903 95.140687 
L 461.091903 95.140687 
" style="fill:none;stroke:#1f77b4;stroke-dasharray:5.55,2.4;stroke-dashoffset:0;stroke-width:1.5;"/>
   </g>
   <g id="line2d_86">
    <path clip-path="url(#pd61b924346)" d="M 55.273722 92.539219 
L 59.352296 87.58018 
L 63.430871 82.962514 
L 67.509446 78.704444 
L 71.58802 74.822774 
L 75.666595 71.332825 
L 79.74517 68.248368 
L 83.823744 65.581577 
L 87.902319 63.342977 
L 91.980894 61.541403 
L 96.059469 60.183964 
L 100.138043 59.276017 
L 102.177331 58.991793 
L 104.216618 58.821146 
L 106.255905 58.764245 
L 108.295193 58.821146 
L 110.33448 58.991793 
L 112.373767 59.276017 
L 116.452342 60.183964 
L 120.530917 61.541403 
L 124.609491 63.342977 
L 128.688066 65.581577 
L 132.766641 68.248368 
L 136.845215 71.332825 
L 140.92379 74.822774 
L 145.002365 78.704444 
L 149.080939 82.962514 
L 153.159514 87.58018 
L 157.238089 92.539219 
L 161.316664 97.820058 
L 165.395238 103.401858 
L 169.473813 109.262589 
L 175.591675 118.525806 
L 181.709537 128.28212 
L 187.827399 138.444932 
L 195.984548 152.471347 
L 208.220273 174.079219 
L 222.495284 199.234401 
L 230.652433 213.140773 
L 236.770295 223.177947 
L 242.888157 232.779316 
L 249.006019 241.85966 
L 253.084594 247.583749 
L 257.163169 253.01775 
L 261.241744 258.140217 
L 265.320318 262.930933 
L 269.398893 267.370992 
L 273.477468 271.442871 
L 277.556042 275.130501 
L 281.634617 278.419327 
L 285.713192 281.29637 
L 289.791766 283.750276 
L 293.870341 285.771361 
L 297.948916 287.351647 
L 302.02749 288.4849 
L 304.066778 288.882421 
L 306.106065 289.166645 
L 308.145352 289.337292 
L 310.18464 289.394193 
L 312.223927 289.337292 
L 314.263215 289.166645 
L 316.302502 288.882421 
L 320.381077 287.974474 
L 324.459651 286.617035 
L 328.538226 284.81546 
L 332.616801 282.57686 
L 336.695375 279.910069 
L 340.77395 276.825613 
L 344.852525 273.335663 
L 348.931099 269.453994 
L 353.009674 265.195923 
L 357.088249 260.578257 
L 361.166823 255.619219 
L 365.245398 250.338379 
L 369.323973 244.75658 
L 373.402548 238.895849 
L 379.52041 229.632631 
L 385.638272 219.876317 
L 391.756134 209.713505 
L 399.913283 195.68709 
L 412.149007 174.079219 
L 426.424019 148.924037 
L 434.581168 135.017664 
L 440.69903 124.980491 
L 446.816892 115.379121 
L 452.934754 106.298778 
L 457.013329 100.574688 
L 461.091903 95.140687 
L 461.091903 95.140687 
" style="fill:none;stroke:#ff7f0e;stroke-dasharray:1.5,2.475;stroke-dashoffset:0;stroke-width:1.5;"/>
   </g>
   <g id="line2d_87">
    <path clip-path="url(#pd61b924346)" d="M 55.273722 92.539219 
L 59.352296 97.820058 
L 63.430871 103.401858 
L 67.509446 109.262589 
L 73.627308 118.525806 
L 79.74517 128.28212 
L 85.863032 138.444932 
L 94.020181 152.471347 
L 106.255905 174.079219 
L 120.530917 199.234401 
L 128.688066 213.140773 
L 134.805928 223.177947 
L 140.92379 232.779316 
L 147.041652 241.85966 
L 151.120227 247.583749 
L 155.198802 253.01775 
L 159.277376 258.140217 
L 163.355951 262.930933 
L 167.434526 267.370992 
L 171.5131 271.442871 
L 175.591675 275.130501 
L 179.67025 278.419327 
L 183.748824 281.29637 
L 187.827399 283.750276 
L 191.905974 285.771361 
L 195.984548 287.351647 
L 200.063123 288.4849 
L 202.10241 288.882421 
L 204.141698 289.166645 
L 206.180985 289.337292 
L 208.220273 289.394193 
L 210.25956 289.337292 
L 212.298847 289.166645 
L 214.338135 288.882421 
L 218.416709 287.974474 
L 222.495284 286.617035 
L 226.573859 284.81546 
L 230.652433 282.57686 
L 234.731008 279.910069 
L 238.809583 276.825613 
L 242.888157 273.335663 
L 246.966732 269.453994 
L 251.045307 265.195923 
L 255.123881 260.578257 
L 259.202456 255.619219 
L 263.281031 250.338379 
L 267.359606 244.75658 
L 271.43818 238.895849 
L 277.556042 229.632631 
L 283.673904 219.876317 
L 289.791766 209.713505 
L 297.948916 195.68709 
L 310.18464 174.079219 
L 324.459651 148.924037 
L 332.616801 135.017664 
L 338.734663 124.980491 
L 344.852525 115.379121 
L 350.970387 106.298778 
L 355.048961 100.574688 
L 359.127536 95.140687 
L 363.206111 90.018221 
L 367.284686 85.227504 
L 371.36326 80.787445 
L 375.441835 76.715566 
L 379.52041 73.027937 
L 383.598984 69.739111 
L 387.677559 66.862068 
L 391.756134 64.408161 
L 395.834708 62.387077 
L 399.913283 60.80679 
L 403.991858 59.673538 
L 406.031145 59.276017 
L 408.070432 58.991793 
L 410.10972 58.821146 
L 412.149007 58.764245 
L 414.188294 58.821146 
L 416.227582 58.991793 
L 418.266869 59.276017 
L 422.345444 60.183964 
L 426.424019 61.541403 
L 430.502593 63.342977 
L 434.581168 65.581577 
L 438.659743 68.248368 
L 442.738317 71.332825 
L 446.816892 74.822774 
L 450.895467 78.704444 
L 454.974041 82.962514 
L 459.052616 87.58018 
L 461.091903 90.018221 
L 461.091903 90.018221 
" style="fill:none;stroke:#2ca02c;stroke-dasharray:5.55,2.4;stroke-dashoffset:0;stroke-width:1.5;"/>
   </g>
   <g id="line2d_88">
    <path clip-path="url(#pd61b924346)" d="M 55.273722 92.539219 
L 59.352296 97.820058 
L 63.430871 103.401858 
L 67.509446 109.262589 
L 73.627308 118.525806 
L 79.74517 128.28212 
L 85.863032 138.444932 
L 94.020181 152.471347 
L 106.255905 174.079219 
L 120.530917 199.234401 
L 128.688066 213.140773 
L 134.805928 223.177947 
L 140.92379 232.779316 
L 147.041652 241.85966 
L 151.120227 247.583749 
L 155.198802 253.01775 
L 159.277376 258.140217 
L 163.355951 262.930933 
L 167.434526 267.370992 
L 171.5131 271.442871 
L 175.591675 275.130501 
L 179.67025 278.419327 
L 183.748824 281.29637 
L 187.827399 283.750276 
L 191.905974 285.771361 
L 195.984548 287.351647 
L 200.063123 288.4849 
L 202.10241 288.882421 
L 204.141698 289.166645 
L 206.180985 289.337292 
L 208.220273 289.394193 
L 210.25956 289.337292 
L 212.298847 289.166645 
L 214.338135 288.882421 
L 218.416709 287.974474 
L 222.495284 286.617035 
L 226.573859 284.81546 
L 230.652433 282.57686 
L 234.731008 279.910069 
L 238.809583 276.825613 
L 242.888157 273.335663 
L 246.966732 269.453994 
L 251.045307 265.195923 
L 255.123881 260.578257 
L 259.202456 255.619219 
L 263.281031 250.338379 
L 267.359606 244.75658 
L 271.43818 238.895849 
L 277.556042 229.632631 
L 283.673904 219.876317 
L 289.791766 209.713505 
L 297.948916 195.68709 
L 310.18464 174.079219 
L 324.459651 148.924037 
L 332.616801 135.017664 
L 338.734663 124.980491 
L 344.852525 115.379121 
L 350.970387 106.298778 
L 355.048961 100.574688 
L 359.127536 95.140687 
L 363.206111 90.018221 
L 367.284686 85.227504 
L 371.36326 80.787445 
L 375.441835 76.715566 
L 379.52041 73.027937 
L 383.598984 69.739111 
L 387.677559 66.862068 
L 391.756134 64.408161 
L 395.834708 62.387077 
L 399.913283 60.80679 
L 403.991858 59.673538 
L 406.031145 59.276017 
L 408.070432 58.991793 
L 410.10972 58.821146 
L 412.149007 58.764245 
L 414.188294 58.821146 
L 416.227582 58.991793 
L 418.266869 59.276017 
L 422.345444 60.183964 
L 426.424019 61.541403 
L 430.502593 63.342977 
L 434.581168 65.581577 
L 438.659743 68.248368 
L 442.738317 71.332825 
L 446.816892 74.822774 
L 450.895467 78.704444 
L 454.974041 82.962514 
L 459.052616 87.58018 
L 461.091903 90.018221 
L 461.091903 90.018221 
" style="fill:none;stroke:#d62728;stroke-dasharray:1.5,2.475;stroke-dashoffset:0;stroke-width:1.5;"/>
   </g>
   <g id="patch_3">
    <path d="M 34.982813 337.159219 
L 34.982813 10.999219 
" style="fill:none;stroke:#000000;stroke-linecap:square;stroke-linejoin:miter;stroke-width:1.5;"/>
   </g>
   <g id="patch_4">
    <path d="M 481.382812 337.159219 
L 481.382812 10.999219 
" style="fill:none;stroke:#000000;stroke-linecap:square;stroke-linejoin:miter;stroke-width:1.5;"/>
   </g>
   <g id="patch_5">
    <path d="M 34.982813 337.159219 
L 481.382812 337.159219 
" style="fill:none;stroke:#000000;stroke-linecap:square;stroke-linejoin:miter;stroke-width:1.5;"/>
   </g>
   <g id="patch_6">
    <path d="M 34.982813 10.999219 
L 481.382812 10.999219 
" style="fill:none;stroke:#000000;stroke-linecap:square;stroke-linejoin:miter;stroke-width:1.5;"/>
   </g>
  </g>
 </g>
 <defs>
  <clipPath id="pd61b924346">
   <rect height="326.16" width="446.4" x="34.982813" y="10.999219"/>
  </clipPath>
 </defs>
</svg>
