<?xml version="1.0" encoding="utf-8" standalone="no"?>
<!DOCTYPE svg PUBLIC "-//W3C//DTD SVG 1.1//EN"
  "http://www.w3.org/Graphics/SVG/1.1/DTD/svg11.dtd">
<!-- Created with matplotlib (https://matplotlib.org/) -->
<svg height="155.987574pt" version="1.1" viewBox="0 0 218.696729 155.987574" width="218.696729pt" xmlns="http://www.w3.org/2000/svg" xmlns:xlink="http://www.w3.org/1999/xlink">
 <defs>
  <style type="text/css">
*{stroke-linecap:butt;stroke-linejoin:round;}
  </style>
 </defs>
 <g id="figure_1">
  <g id="patch_1">
   <path d="M 0 155.987574 
L 218.696729 155.987574 
L 218.696729 0 
L 0 0 
z
" style="fill:none;"/>
  </g>
  <g id="axes_1">
   <g id="patch_2">
    <path d="M 34.982813 135.609449 
L 210.730844 135.609449 
L 210.730844 7.2 
L 34.982813 7.2 
z
" style="fill:#ffffff;"/>
   </g>
   <g id="matplotlib.axis_1">
    <g id="xtick_1">
     <g id="line2d_1">
      <defs>
       <path d="M 0 0 
L 0 -4 
" id="m8f0bb101b4" style="stroke:#000000;stroke-width:1.25;"/>
      </defs>
      <g>
       <use style="stroke:#000000;stroke-width:1.25;" x="42.971359" xlink:href="#m8f0bb101b4" y="135.609449"/>
      </g>
     </g>
     <g id="line2d_2">
      <defs>
       <path d="M 0 0 
L 0 4 
" id="mb2754434e3" style="stroke:#000000;stroke-width:1.25;"/>
      </defs>
      <g>
       <use style="stroke:#000000;stroke-width:1.25;" x="42.971359" xlink:href="#mb2754434e3" y="7.2"/>
      </g>
     </g>
     <g id="text_1">
      <!-- 0.0 -->
      <defs>
       <path d="M 31.78125 66.40625 
Q 24.171875 66.40625 20.328125 58.90625 
Q 16.5 51.421875 16.5 36.375 
Q 16.5 21.390625 20.328125 13.890625 
Q 24.171875 6.390625 31.78125 6.390625 
Q 39.453125 6.390625 43.28125 13.890625 
Q 47.125 21.390625 47.125 36.375 
Q 47.125 51.421875 43.28125 58.90625 
Q 39.453125 66.40625 31.78125 66.40625 
z
M 31.78125 74.21875 
Q 44.046875 74.21875 50.515625 64.515625 
Q 56.984375 54.828125 56.984375 36.375 
Q 56.984375 17.96875 50.515625 8.265625 
Q 44.046875 -1.421875 31.78125 -1.421875 
Q 19.53125 -1.421875 13.0625 8.265625 
Q 6.59375 17.96875 6.59375 36.375 
Q 6.59375 54.828125 13.0625 64.515625 
Q 19.53125 74.21875 31.78125 74.21875 
z
" id="DejaVuSans-48"/>
       <path d="M 10.6875 12.40625 
L 21 12.40625 
L 21 0 
L 10.6875 0 
z
" id="DejaVuSans-46"/>
      </defs>
      <g transform="translate(35.019797 146.707886)scale(0.1 -0.1)">
       <use xlink:href="#DejaVuSans-48"/>
       <use x="63.623047" xlink:href="#DejaVuSans-46"/>
       <use x="95.410156" xlink:href="#DejaVuSans-48"/>
      </g>
     </g>
    </g>
    <g id="xtick_2">
     <g id="line2d_3">
      <g>
       <use style="stroke:#000000;stroke-width:1.25;" x="83.114811" xlink:href="#m8f0bb101b4" y="135.609449"/>
      </g>
     </g>
     <g id="line2d_4">
      <g>
       <use style="stroke:#000000;stroke-width:1.25;" x="83.114811" xlink:href="#mb2754434e3" y="7.2"/>
      </g>
     </g>
     <g id="text_2">
      <!-- 0.5 -->
      <defs>
       <path d="M 10.796875 72.90625 
L 49.515625 72.90625 
L 49.515625 64.59375 
L 19.828125 64.59375 
L 19.828125 46.734375 
Q 21.96875 47.46875 24.109375 47.828125 
Q 26.265625 48.1875 28.421875 48.1875 
Q 40.625 48.1875 47.75 41.5 
Q 54.890625 34.8125 54.890625 23.390625 
Q 54.890625 11.625 47.5625 5.09375 
Q 40.234375 -1.421875 26.90625 -1.421875 
Q 22.3125 -1.421875 17.546875 -0.640625 
Q 12.796875 0.140625 7.71875 1.703125 
L 7.71875 11.625 
Q 12.109375 9.234375 16.796875 8.0625 
Q 21.484375 6.890625 26.703125 6.890625 
Q 35.15625 6.890625 40.078125 11.328125 
Q 45.015625 15.765625 45.015625 23.390625 
Q 45.015625 31 40.078125 35.4375 
Q 35.15625 39.890625 26.703125 39.890625 
Q 22.75 39.890625 18.8125 39.015625 
Q 14.890625 38.140625 10.796875 36.28125 
z
" id="DejaVuSans-53"/>
      </defs>
      <g transform="translate(75.163249 146.707886)scale(0.1 -0.1)">
       <use xlink:href="#DejaVuSans-48"/>
       <use x="63.623047" xlink:href="#DejaVuSans-46"/>
       <use x="95.410156" xlink:href="#DejaVuSans-53"/>
      </g>
     </g>
    </g>
    <g id="xtick_3">
     <g id="line2d_5">
      <g>
       <use style="stroke:#000000;stroke-width:1.25;" x="123.258263" xlink:href="#m8f0bb101b4" y="135.609449"/>
      </g>
     </g>
     <g id="line2d_6">
      <g>
       <use style="stroke:#000000;stroke-width:1.25;" x="123.258263" xlink:href="#mb2754434e3" y="7.2"/>
      </g>
     </g>
     <g id="text_3">
      <!-- 1.0 -->
      <defs>
       <path d="M 12.40625 8.296875 
L 28.515625 8.296875 
L 28.515625 63.921875 
L 10.984375 60.40625 
L 10.984375 69.390625 
L 28.421875 72.90625 
L 38.28125 72.90625 
L 38.28125 8.296875 
L 54.390625 8.296875 
L 54.390625 0 
L 12.40625 0 
z
" id="DejaVuSans-49"/>
      </defs>
      <g transform="translate(115.3067 146.707886)scale(0.1 -0.1)">
       <use xlink:href="#DejaVuSans-49"/>
       <use x="63.623047" xlink:href="#DejaVuSans-46"/>
       <use x="95.410156" xlink:href="#DejaVuSans-48"/>
      </g>
     </g>
    </g>
    <g id="xtick_4">
     <g id="line2d_7">
      <g>
       <use style="stroke:#000000;stroke-width:1.25;" x="163.401714" xlink:href="#m8f0bb101b4" y="135.609449"/>
      </g>
     </g>
     <g id="line2d_8">
      <g>
       <use style="stroke:#000000;stroke-width:1.25;" x="163.401714" xlink:href="#mb2754434e3" y="7.2"/>
      </g>
     </g>
     <g id="text_4">
      <!-- 1.5 -->
      <g transform="translate(155.450152 146.707886)scale(0.1 -0.1)">
       <use xlink:href="#DejaVuSans-49"/>
       <use x="63.623047" xlink:href="#DejaVuSans-46"/>
       <use x="95.410156" xlink:href="#DejaVuSans-53"/>
      </g>
     </g>
    </g>
    <g id="xtick_5">
     <g id="line2d_9">
      <g>
       <use style="stroke:#000000;stroke-width:1.25;" x="203.545166" xlink:href="#m8f0bb101b4" y="135.609449"/>
      </g>
     </g>
     <g id="line2d_10">
      <g>
       <use style="stroke:#000000;stroke-width:1.25;" x="203.545166" xlink:href="#mb2754434e3" y="7.2"/>
      </g>
     </g>
     <g id="text_5">
      <!-- 2.0 -->
      <defs>
       <path d="M 19.1875 8.296875 
L 53.609375 8.296875 
L 53.609375 0 
L 7.328125 0 
L 7.328125 8.296875 
Q 12.9375 14.109375 22.625 23.890625 
Q 32.328125 33.6875 34.8125 36.53125 
Q 39.546875 41.84375 41.421875 45.53125 
Q 43.3125 49.21875 43.3125 52.78125 
Q 43.3125 58.59375 39.234375 62.25 
Q 35.15625 65.921875 28.609375 65.921875 
Q 23.96875 65.921875 18.8125 64.3125 
Q 13.671875 62.703125 7.8125 59.421875 
L 7.8125 69.390625 
Q 13.765625 71.78125 18.9375 73 
Q 24.125 74.21875 28.421875 74.21875 
Q 39.75 74.21875 46.484375 68.546875 
Q 53.21875 62.890625 53.21875 53.421875 
Q 53.21875 48.921875 51.53125 44.890625 
Q 49.859375 40.875 45.40625 35.40625 
Q 44.1875 33.984375 37.640625 27.21875 
Q 31.109375 20.453125 19.1875 8.296875 
z
" id="DejaVuSans-50"/>
      </defs>
      <g transform="translate(195.593604 146.707886)scale(0.1 -0.1)">
       <use xlink:href="#DejaVuSans-50"/>
       <use x="63.623047" xlink:href="#DejaVuSans-46"/>
       <use x="95.410156" xlink:href="#DejaVuSans-48"/>
      </g>
     </g>
    </g>
    <g id="xtick_6">
     <g id="line2d_11">
      <defs>
       <path d="M 0 0 
L 0 -2 
" id="meb0d9f388c" style="stroke:#000000;stroke-width:1.25;"/>
      </defs>
      <g>
       <use style="stroke:#000000;stroke-width:1.25;" x="51.00005" xlink:href="#meb0d9f388c" y="135.609449"/>
      </g>
     </g>
     <g id="line2d_12">
      <defs>
       <path d="M 0 0 
L 0 2 
" id="mdfd20b9f14" style="stroke:#000000;stroke-width:1.25;"/>
      </defs>
      <g>
       <use style="stroke:#000000;stroke-width:1.25;" x="51.00005" xlink:href="#mdfd20b9f14" y="7.2"/>
      </g>
     </g>
    </g>
    <g id="xtick_7">
     <g id="line2d_13">
      <g>
       <use style="stroke:#000000;stroke-width:1.25;" x="59.02874" xlink:href="#meb0d9f388c" y="135.609449"/>
      </g>
     </g>
     <g id="line2d_14">
      <g>
       <use style="stroke:#000000;stroke-width:1.25;" x="59.02874" xlink:href="#mdfd20b9f14" y="7.2"/>
      </g>
     </g>
    </g>
    <g id="xtick_8">
     <g id="line2d_15">
      <g>
       <use style="stroke:#000000;stroke-width:1.25;" x="67.05743" xlink:href="#meb0d9f388c" y="135.609449"/>
      </g>
     </g>
     <g id="line2d_16">
      <g>
       <use style="stroke:#000000;stroke-width:1.25;" x="67.05743" xlink:href="#mdfd20b9f14" y="7.2"/>
      </g>
     </g>
    </g>
    <g id="xtick_9">
     <g id="line2d_17">
      <g>
       <use style="stroke:#000000;stroke-width:1.25;" x="75.086121" xlink:href="#meb0d9f388c" y="135.609449"/>
      </g>
     </g>
     <g id="line2d_18">
      <g>
       <use style="stroke:#000000;stroke-width:1.25;" x="75.086121" xlink:href="#mdfd20b9f14" y="7.2"/>
      </g>
     </g>
    </g>
    <g id="xtick_10">
     <g id="line2d_19">
      <g>
       <use style="stroke:#000000;stroke-width:1.25;" x="91.143501" xlink:href="#meb0d9f388c" y="135.609449"/>
      </g>
     </g>
     <g id="line2d_20">
      <g>
       <use style="stroke:#000000;stroke-width:1.25;" x="91.143501" xlink:href="#mdfd20b9f14" y="7.2"/>
      </g>
     </g>
    </g>
    <g id="xtick_11">
     <g id="line2d_21">
      <g>
       <use style="stroke:#000000;stroke-width:1.25;" x="99.172192" xlink:href="#meb0d9f388c" y="135.609449"/>
      </g>
     </g>
     <g id="line2d_22">
      <g>
       <use style="stroke:#000000;stroke-width:1.25;" x="99.172192" xlink:href="#mdfd20b9f14" y="7.2"/>
      </g>
     </g>
    </g>
    <g id="xtick_12">
     <g id="line2d_23">
      <g>
       <use style="stroke:#000000;stroke-width:1.25;" x="107.200882" xlink:href="#meb0d9f388c" y="135.609449"/>
      </g>
     </g>
     <g id="line2d_24">
      <g>
       <use style="stroke:#000000;stroke-width:1.25;" x="107.200882" xlink:href="#mdfd20b9f14" y="7.2"/>
      </g>
     </g>
    </g>
    <g id="xtick_13">
     <g id="line2d_25">
      <g>
       <use style="stroke:#000000;stroke-width:1.25;" x="115.229572" xlink:href="#meb0d9f388c" y="135.609449"/>
      </g>
     </g>
     <g id="line2d_26">
      <g>
       <use style="stroke:#000000;stroke-width:1.25;" x="115.229572" xlink:href="#mdfd20b9f14" y="7.2"/>
      </g>
     </g>
    </g>
    <g id="xtick_14">
     <g id="line2d_27">
      <g>
       <use style="stroke:#000000;stroke-width:1.25;" x="131.286953" xlink:href="#meb0d9f388c" y="135.609449"/>
      </g>
     </g>
     <g id="line2d_28">
      <g>
       <use style="stroke:#000000;stroke-width:1.25;" x="131.286953" xlink:href="#mdfd20b9f14" y="7.2"/>
      </g>
     </g>
    </g>
    <g id="xtick_15">
     <g id="line2d_29">
      <g>
       <use style="stroke:#000000;stroke-width:1.25;" x="139.315643" xlink:href="#meb0d9f388c" y="135.609449"/>
      </g>
     </g>
     <g id="line2d_30">
      <g>
       <use style="stroke:#000000;stroke-width:1.25;" x="139.315643" xlink:href="#mdfd20b9f14" y="7.2"/>
      </g>
     </g>
    </g>
    <g id="xtick_16">
     <g id="line2d_31">
      <g>
       <use style="stroke:#000000;stroke-width:1.25;" x="147.344334" xlink:href="#meb0d9f388c" y="135.609449"/>
      </g>
     </g>
     <g id="line2d_32">
      <g>
       <use style="stroke:#000000;stroke-width:1.25;" x="147.344334" xlink:href="#mdfd20b9f14" y="7.2"/>
      </g>
     </g>
    </g>
    <g id="xtick_17">
     <g id="line2d_33">
      <g>
       <use style="stroke:#000000;stroke-width:1.25;" x="155.373024" xlink:href="#meb0d9f388c" y="135.609449"/>
      </g>
     </g>
     <g id="line2d_34">
      <g>
       <use style="stroke:#000000;stroke-width:1.25;" x="155.373024" xlink:href="#mdfd20b9f14" y="7.2"/>
      </g>
     </g>
    </g>
    <g id="xtick_18">
     <g id="line2d_35">
      <g>
       <use style="stroke:#000000;stroke-width:1.25;" x="171.430405" xlink:href="#meb0d9f388c" y="135.609449"/>
      </g>
     </g>
     <g id="line2d_36">
      <g>
       <use style="stroke:#000000;stroke-width:1.25;" x="171.430405" xlink:href="#mdfd20b9f14" y="7.2"/>
      </g>
     </g>
    </g>
    <g id="xtick_19">
     <g id="line2d_37">
      <g>
       <use style="stroke:#000000;stroke-width:1.25;" x="179.459095" xlink:href="#meb0d9f388c" y="135.609449"/>
      </g>
     </g>
     <g id="line2d_38">
      <g>
       <use style="stroke:#000000;stroke-width:1.25;" x="179.459095" xlink:href="#mdfd20b9f14" y="7.2"/>
      </g>
     </g>
    </g>
    <g id="xtick_20">
     <g id="line2d_39">
      <g>
       <use style="stroke:#000000;stroke-width:1.25;" x="187.487785" xlink:href="#meb0d9f388c" y="135.609449"/>
      </g>
     </g>
     <g id="line2d_40">
      <g>
       <use style="stroke:#000000;stroke-width:1.25;" x="187.487785" xlink:href="#mdfd20b9f14" y="7.2"/>
      </g>
     </g>
    </g>
    <g id="xtick_21">
     <g id="line2d_41">
      <g>
       <use style="stroke:#000000;stroke-width:1.25;" x="195.516476" xlink:href="#meb0d9f388c" y="135.609449"/>
      </g>
     </g>
     <g id="line2d_42">
      <g>
       <use style="stroke:#000000;stroke-width:1.25;" x="195.516476" xlink:href="#mdfd20b9f14" y="7.2"/>
      </g>
     </g>
    </g>
   </g>
   <g id="matplotlib.axis_2">
    <g id="ytick_1">
     <g id="line2d_43">
      <defs>
       <path d="M 0 0 
L 4 0 
" id="m1a2010cb78" style="stroke:#000000;stroke-width:1.25;"/>
      </defs>
      <g>
       <use style="stroke:#000000;stroke-width:1.25;" x="34.982813" xlink:href="#m1a2010cb78" y="129.772656"/>
      </g>
     </g>
     <g id="line2d_44">
      <defs>
       <path d="M 0 0 
L -4 0 
" id="m4ec296e16a" style="stroke:#000000;stroke-width:1.25;"/>
      </defs>
      <g>
       <use style="stroke:#000000;stroke-width:1.25;" x="210.730844" xlink:href="#m4ec296e16a" y="129.772656"/>
      </g>
     </g>
     <g id="text_6">
      <!-- −1.0 -->
      <defs>
       <path d="M 10.59375 35.5 
L 73.1875 35.5 
L 73.1875 27.203125 
L 10.59375 27.203125 
z
" id="DejaVuSans-8722"/>
      </defs>
      <g transform="translate(7.2 133.571874)scale(0.1 -0.1)">
       <use xlink:href="#DejaVuSans-8722"/>
       <use x="83.789062" xlink:href="#DejaVuSans-49"/>
       <use x="147.412109" xlink:href="#DejaVuSans-46"/>
       <use x="179.199219" xlink:href="#DejaVuSans-48"/>
      </g>
     </g>
    </g>
    <g id="ytick_2">
     <g id="line2d_45">
      <g>
       <use style="stroke:#000000;stroke-width:1.25;" x="34.982813" xlink:href="#m1a2010cb78" y="100.58869"/>
      </g>
     </g>
     <g id="line2d_46">
      <g>
       <use style="stroke:#000000;stroke-width:1.25;" x="210.730844" xlink:href="#m4ec296e16a" y="100.58869"/>
      </g>
     </g>
     <g id="text_7">
      <!-- −0.5 -->
      <g transform="translate(7.2 104.387909)scale(0.1 -0.1)">
       <use xlink:href="#DejaVuSans-8722"/>
       <use x="83.789062" xlink:href="#DejaVuSans-48"/>
       <use x="147.412109" xlink:href="#DejaVuSans-46"/>
       <use x="179.199219" xlink:href="#DejaVuSans-53"/>
      </g>
     </g>
    </g>
    <g id="ytick_3">
     <g id="line2d_47">
      <g>
       <use style="stroke:#000000;stroke-width:1.25;" x="34.982813" xlink:href="#m1a2010cb78" y="71.404724"/>
      </g>
     </g>
     <g id="line2d_48">
      <g>
       <use style="stroke:#000000;stroke-width:1.25;" x="210.730844" xlink:href="#m4ec296e16a" y="71.404724"/>
      </g>
     </g>
     <g id="text_8">
      <!-- 0.0 -->
      <g transform="translate(15.579688 75.203943)scale(0.1 -0.1)">
       <use xlink:href="#DejaVuSans-48"/>
       <use x="63.623047" xlink:href="#DejaVuSans-46"/>
       <use x="95.410156" xlink:href="#DejaVuSans-48"/>
      </g>
     </g>
    </g>
    <g id="ytick_4">
     <g id="line2d_49">
      <g>
       <use style="stroke:#000000;stroke-width:1.25;" x="34.982813" xlink:href="#m1a2010cb78" y="42.220759"/>
      </g>
     </g>
     <g id="line2d_50">
      <g>
       <use style="stroke:#000000;stroke-width:1.25;" x="210.730844" xlink:href="#m4ec296e16a" y="42.220759"/>
      </g>
     </g>
     <g id="text_9">
      <!-- 0.5 -->
      <g transform="translate(15.579688 46.019978)scale(0.1 -0.1)">
       <use xlink:href="#DejaVuSans-48"/>
       <use x="63.623047" xlink:href="#DejaVuSans-46"/>
       <use x="95.410156" xlink:href="#DejaVuSans-53"/>
      </g>
     </g>
    </g>
    <g id="ytick_5">
     <g id="line2d_51">
      <g>
       <use style="stroke:#000000;stroke-width:1.25;" x="34.982813" xlink:href="#m1a2010cb78" y="13.036793"/>
      </g>
     </g>
     <g id="line2d_52">
      <g>
       <use style="stroke:#000000;stroke-width:1.25;" x="210.730844" xlink:href="#m4ec296e16a" y="13.036793"/>
      </g>
     </g>
     <g id="text_10">
      <!-- 1.0 -->
      <g transform="translate(15.579688 16.836012)scale(0.1 -0.1)">
       <use xlink:href="#DejaVuSans-49"/>
       <use x="63.623047" xlink:href="#DejaVuSans-46"/>
       <use x="95.410156" xlink:href="#DejaVuSans-48"/>
      </g>
     </g>
    </g>
    <g id="ytick_6">
     <g id="line2d_53">
      <defs>
       <path d="M 0 0 
L 2 0 
" id="m3ce4c8c35d" style="stroke:#000000;stroke-width:1.25;"/>
      </defs>
      <g>
       <use style="stroke:#000000;stroke-width:1.25;" x="34.982813" xlink:href="#m3ce4c8c35d" y="135.609449"/>
      </g>
     </g>
     <g id="line2d_54">
      <defs>
       <path d="M 0 0 
L -2 0 
" id="ma80bd09272" style="stroke:#000000;stroke-width:1.25;"/>
      </defs>
      <g>
       <use style="stroke:#000000;stroke-width:1.25;" x="210.730844" xlink:href="#ma80bd09272" y="135.609449"/>
      </g>
     </g>
    </g>
    <g id="ytick_7">
     <g id="line2d_55">
      <g>
       <use style="stroke:#000000;stroke-width:1.25;" x="34.982813" xlink:href="#m3ce4c8c35d" y="123.935863"/>
      </g>
     </g>
     <g id="line2d_56">
      <g>
       <use style="stroke:#000000;stroke-width:1.25;" x="210.730844" xlink:href="#ma80bd09272" y="123.935863"/>
      </g>
     </g>
    </g>
    <g id="ytick_8">
     <g id="line2d_57">
      <g>
       <use style="stroke:#000000;stroke-width:1.25;" x="34.982813" xlink:href="#m3ce4c8c35d" y="118.099069"/>
      </g>
     </g>
     <g id="line2d_58">
      <g>
       <use style="stroke:#000000;stroke-width:1.25;" x="210.730844" xlink:href="#ma80bd09272" y="118.099069"/>
      </g>
     </g>
    </g>
    <g id="ytick_9">
     <g id="line2d_59">
      <g>
       <use style="stroke:#000000;stroke-width:1.25;" x="34.982813" xlink:href="#m3ce4c8c35d" y="112.262276"/>
      </g>
     </g>
     <g id="line2d_60">
      <g>
       <use style="stroke:#000000;stroke-width:1.25;" x="210.730844" xlink:href="#ma80bd09272" y="112.262276"/>
      </g>
     </g>
    </g>
    <g id="ytick_10">
     <g id="line2d_61">
      <g>
       <use style="stroke:#000000;stroke-width:1.25;" x="34.982813" xlink:href="#m3ce4c8c35d" y="106.425483"/>
      </g>
     </g>
     <g id="line2d_62">
      <g>
       <use style="stroke:#000000;stroke-width:1.25;" x="210.730844" xlink:href="#ma80bd09272" y="106.425483"/>
      </g>
     </g>
    </g>
    <g id="ytick_11">
     <g id="line2d_63">
      <g>
       <use style="stroke:#000000;stroke-width:1.25;" x="34.982813" xlink:href="#m3ce4c8c35d" y="94.751897"/>
      </g>
     </g>
     <g id="line2d_64">
      <g>
       <use style="stroke:#000000;stroke-width:1.25;" x="210.730844" xlink:href="#ma80bd09272" y="94.751897"/>
      </g>
     </g>
    </g>
    <g id="ytick_12">
     <g id="line2d_65">
      <g>
       <use style="stroke:#000000;stroke-width:1.25;" x="34.982813" xlink:href="#m3ce4c8c35d" y="88.915104"/>
      </g>
     </g>
     <g id="line2d_66">
      <g>
       <use style="stroke:#000000;stroke-width:1.25;" x="210.730844" xlink:href="#ma80bd09272" y="88.915104"/>
      </g>
     </g>
    </g>
    <g id="ytick_13">
     <g id="line2d_67">
      <g>
       <use style="stroke:#000000;stroke-width:1.25;" x="34.982813" xlink:href="#m3ce4c8c35d" y="83.078311"/>
      </g>
     </g>
     <g id="line2d_68">
      <g>
       <use style="stroke:#000000;stroke-width:1.25;" x="210.730844" xlink:href="#ma80bd09272" y="83.078311"/>
      </g>
     </g>
    </g>
    <g id="ytick_14">
     <g id="line2d_69">
      <g>
       <use style="stroke:#000000;stroke-width:1.25;" x="34.982813" xlink:href="#m3ce4c8c35d" y="77.241518"/>
      </g>
     </g>
     <g id="line2d_70">
      <g>
       <use style="stroke:#000000;stroke-width:1.25;" x="210.730844" xlink:href="#ma80bd09272" y="77.241518"/>
      </g>
     </g>
    </g>
    <g id="ytick_15">
     <g id="line2d_71">
      <g>
       <use style="stroke:#000000;stroke-width:1.25;" x="34.982813" xlink:href="#m3ce4c8c35d" y="65.567931"/>
      </g>
     </g>
     <g id="line2d_72">
      <g>
       <use style="stroke:#000000;stroke-width:1.25;" x="210.730844" xlink:href="#ma80bd09272" y="65.567931"/>
      </g>
     </g>
    </g>
    <g id="ytick_16">
     <g id="line2d_73">
      <g>
       <use style="stroke:#000000;stroke-width:1.25;" x="34.982813" xlink:href="#m3ce4c8c35d" y="59.731138"/>
      </g>
     </g>
     <g id="line2d_74">
      <g>
       <use style="stroke:#000000;stroke-width:1.25;" x="210.730844" xlink:href="#ma80bd09272" y="59.731138"/>
      </g>
     </g>
    </g>
    <g id="ytick_17">
     <g id="line2d_75">
      <g>
       <use style="stroke:#000000;stroke-width:1.25;" x="34.982813" xlink:href="#m3ce4c8c35d" y="53.894345"/>
      </g>
     </g>
     <g id="line2d_76">
      <g>
       <use style="stroke:#000000;stroke-width:1.25;" x="210.730844" xlink:href="#ma80bd09272" y="53.894345"/>
      </g>
     </g>
    </g>
    <g id="ytick_18">
     <g id="line2d_77">
      <g>
       <use style="stroke:#000000;stroke-width:1.25;" x="34.982813" xlink:href="#m3ce4c8c35d" y="48.057552"/>
      </g>
     </g>
     <g id="line2d_78">
      <g>
       <use style="stroke:#000000;stroke-width:1.25;" x="210.730844" xlink:href="#ma80bd09272" y="48.057552"/>
      </g>
     </g>
    </g>
    <g id="ytick_19">
     <g id="line2d_79">
      <g>
       <use style="stroke:#000000;stroke-width:1.25;" x="34.982813" xlink:href="#m3ce4c8c35d" y="36.383966"/>
      </g>
     </g>
     <g id="line2d_80">
      <g>
       <use style="stroke:#000000;stroke-width:1.25;" x="210.730844" xlink:href="#ma80bd09272" y="36.383966"/>
      </g>
     </g>
    </g>
    <g id="ytick_20">
     <g id="line2d_81">
      <g>
       <use style="stroke:#000000;stroke-width:1.25;" x="34.982813" xlink:href="#m3ce4c8c35d" y="30.547173"/>
      </g>
     </g>
     <g id="line2d_82">
      <g>
       <use style="stroke:#000000;stroke-width:1.25;" x="210.730844" xlink:href="#ma80bd09272" y="30.547173"/>
      </g>
     </g>
    </g>
    <g id="ytick_21">
     <g id="line2d_83">
      <g>
       <use style="stroke:#000000;stroke-width:1.25;" x="34.982813" xlink:href="#m3ce4c8c35d" y="24.710379"/>
      </g>
     </g>
     <g id="line2d_84">
      <g>
       <use style="stroke:#000000;stroke-width:1.25;" x="210.730844" xlink:href="#ma80bd09272" y="24.710379"/>
      </g>
     </g>
    </g>
    <g id="ytick_22">
     <g id="line2d_85">
      <g>
       <use style="stroke:#000000;stroke-width:1.25;" x="34.982813" xlink:href="#m3ce4c8c35d" y="18.873586"/>
      </g>
     </g>
     <g id="line2d_86">
      <g>
       <use style="stroke:#000000;stroke-width:1.25;" x="210.730844" xlink:href="#ma80bd09272" y="18.873586"/>
      </g>
     </g>
    </g>
   </g>
   <g id="line2d_87">
    <path clip-path="url(#p1ac0cd46d3)" d="M 42.971359 71.404724 
L 202.742297 71.404724 
L 202.742297 71.404724 
" style="fill:none;stroke:#1f77b4;stroke-linecap:square;stroke-width:1.5;"/>
   </g>
   <g id="line2d_88">
    <path clip-path="url(#p1ac0cd46d3)" d="M 42.971359 71.404724 
L 202.742297 71.404724 
L 202.742297 71.404724 
" style="fill:none;stroke:#ff7f0e;stroke-dasharray:9.6,2.4,1.5,2.4;stroke-dashoffset:0;stroke-width:1.5;"/>
   </g>
   <g id="line2d_89">
    <path clip-path="url(#p1ac0cd46d3)" d="M 42.971359 71.404724 
L 47.788574 49.918056 
L 50.197181 40.129623 
L 52.605788 31.449126 
L 54.211526 26.43146 
L 55.817264 22.12305 
L 57.423002 18.591841 
L 59.02874 15.893523 
L 59.831609 14.870529 
L 60.634478 14.07065 
L 61.437347 13.497042 
L 62.240216 13.151969 
L 63.043085 13.036793 
L 63.845954 13.151969 
L 64.648823 13.497042 
L 65.451692 14.07065 
L 66.254561 14.870529 
L 67.05743 15.893523 
L 67.860299 17.135594 
L 69.466038 20.256516 
L 71.071776 24.184076 
L 72.677514 28.856334 
L 74.283252 34.199605 
L 76.691859 43.285759 
L 79.100466 53.368042 
L 83.114811 71.404724 
L 87.932025 92.891393 
L 90.340632 102.679826 
L 92.749239 111.360323 
L 94.354978 116.377988 
L 95.960716 120.686399 
L 97.566454 124.217608 
L 99.172192 126.915926 
L 99.975061 127.93892 
L 100.77793 128.738799 
L 101.580799 129.312407 
L 102.383668 129.65748 
L 103.186537 129.772656 
L 103.989406 129.65748 
L 104.792275 129.312407 
L 105.595144 128.738799 
L 106.398013 127.93892 
L 107.200882 126.915926 
L 108.003751 125.673854 
L 109.609489 122.552932 
L 111.215227 118.625373 
L 112.820965 113.953115 
L 114.426703 108.609844 
L 116.83531 99.52369 
L 119.243918 89.441407 
L 123.258263 71.404724 
L 128.075477 49.918056 
L 130.484084 40.129623 
L 132.892691 31.449126 
L 134.498429 26.43146 
L 136.104167 22.12305 
L 137.709905 18.591841 
L 139.315643 15.893523 
L 140.118512 14.870529 
L 140.921382 14.07065 
L 141.724251 13.497042 
L 142.52712 13.151969 
L 143.329989 13.036793 
L 144.132858 13.151969 
L 144.935727 13.497042 
L 145.738596 14.07065 
L 146.541465 14.870529 
L 147.344334 15.893523 
L 148.147203 17.135594 
L 149.752941 20.256516 
L 151.358679 24.184076 
L 152.964417 28.856334 
L 154.570155 34.199605 
L 156.978762 43.285759 
L 159.387369 53.368042 
L 163.401714 71.404724 
L 168.218929 92.891393 
L 170.627536 102.679826 
L 173.036143 111.360323 
L 174.641881 116.377988 
L 176.247619 120.686399 
L 177.853357 124.217608 
L 179.459095 126.915926 
L 180.261964 127.93892 
L 181.064833 128.738799 
L 181.867702 129.312407 
L 182.670571 129.65748 
L 183.47344 129.772656 
L 184.276309 129.65748 
L 185.079178 129.312407 
L 185.882047 128.738799 
L 186.684916 127.93892 
L 187.487785 126.915926 
L 188.290655 125.673854 
L 189.896393 122.552932 
L 191.502131 118.625373 
L 193.107869 113.953115 
L 194.713607 108.609844 
L 197.122214 99.52369 
L 199.530821 89.441407 
L 202.742297 75.069677 
L 202.742297 75.069677 
" style="fill:none;stroke:#2ca02c;stroke-linecap:square;stroke-width:1.5;"/>
   </g>
   <g id="line2d_90">
    <path clip-path="url(#p1ac0cd46d3)" d="M 42.971359 13.036793 
L 43.774228 13.151969 
L 44.577097 13.497042 
L 45.379966 14.07065 
L 46.182836 14.870529 
L 46.985705 15.893523 
L 47.788574 17.135594 
L 49.394312 20.256516 
L 51.00005 24.184076 
L 52.605788 28.856334 
L 54.211526 34.199605 
L 56.620133 43.285759 
L 59.02874 53.368042 
L 63.043085 71.404724 
L 67.860299 92.891393 
L 70.268907 102.679826 
L 72.677514 111.360323 
L 74.283252 116.377988 
L 75.88899 120.686399 
L 77.494728 124.217608 
L 79.100466 126.915926 
L 79.903335 127.93892 
L 80.706204 128.738799 
L 81.509073 129.312407 
L 82.311942 129.65748 
L 83.114811 129.772656 
L 83.91768 129.65748 
L 84.720549 129.312407 
L 85.523418 128.738799 
L 86.326287 127.93892 
L 87.129156 126.915926 
L 87.932025 125.673854 
L 89.537763 122.552932 
L 91.143501 118.625373 
L 92.749239 113.953115 
L 94.354978 108.609844 
L 96.763585 99.52369 
L 99.172192 89.441407 
L 103.186537 71.404724 
L 108.003751 49.918056 
L 110.412358 40.129623 
L 112.820965 31.449126 
L 114.426703 26.43146 
L 116.032441 22.12305 
L 117.63818 18.591841 
L 119.243918 15.893523 
L 120.046787 14.870529 
L 120.849656 14.07065 
L 121.652525 13.497042 
L 122.455394 13.151969 
L 123.258263 13.036793 
L 124.061132 13.151969 
L 124.864001 13.497042 
L 125.66687 14.07065 
L 126.469739 14.870529 
L 127.272608 15.893523 
L 128.075477 17.135594 
L 129.681215 20.256516 
L 131.286953 24.184076 
L 132.892691 28.856334 
L 134.498429 34.199605 
L 136.907036 43.285759 
L 139.315643 53.368042 
L 143.329989 71.404724 
L 148.147203 92.891393 
L 150.55581 102.679826 
L 152.964417 111.360323 
L 154.570155 116.377988 
L 156.175893 120.686399 
L 157.781631 124.217608 
L 159.387369 126.915926 
L 160.190238 127.93892 
L 160.993107 128.738799 
L 161.795976 129.312407 
L 162.598845 129.65748 
L 163.401714 129.772656 
L 164.204583 129.65748 
L 165.007453 129.312407 
L 165.810322 128.738799 
L 166.613191 127.93892 
L 167.41606 126.915926 
L 168.218929 125.673854 
L 169.824667 122.552932 
L 171.430405 118.625373 
L 173.036143 113.953115 
L 174.641881 108.609844 
L 177.050488 99.52369 
L 179.459095 89.441407 
L 183.47344 71.404724 
L 188.290655 49.918056 
L 190.699262 40.129623 
L 193.107869 31.449126 
L 194.713607 26.43146 
L 196.319345 22.12305 
L 197.925083 18.591841 
L 199.530821 15.893523 
L 200.33369 14.870529 
L 201.136559 14.07065 
L 201.939428 13.497042 
L 202.742297 13.151969 
L 202.742297 13.151969 
" style="fill:none;stroke:#d62728;stroke-linecap:square;stroke-width:1.5;"/>
   </g>
   <g id="line2d_91">
    <path clip-path="url(#p1ac0cd46d3)" d="M 42.971359 13.036793 
L 43.774228 13.151969 
L 44.577097 13.497042 
L 45.379966 14.07065 
L 46.182836 14.870529 
L 46.985705 15.893523 
L 47.788574 17.135594 
L 49.394312 20.256516 
L 51.00005 24.184076 
L 52.605788 28.856334 
L 54.211526 34.199605 
L 56.620133 43.285759 
L 59.02874 53.368042 
L 63.043085 71.404724 
L 67.860299 92.891393 
L 70.268907 102.679826 
L 72.677514 111.360323 
L 74.283252 116.377988 
L 75.88899 120.686399 
L 77.494728 124.217608 
L 79.100466 126.915926 
L 79.903335 127.93892 
L 80.706204 128.738799 
L 81.509073 129.312407 
L 82.311942 129.65748 
L 83.114811 129.772656 
L 83.91768 129.65748 
L 84.720549 129.312407 
L 85.523418 128.738799 
L 86.326287 127.93892 
L 87.129156 126.915926 
L 87.932025 125.673854 
L 89.537763 122.552932 
L 91.143501 118.625373 
L 92.749239 113.953115 
L 94.354978 108.609844 
L 96.763585 99.52369 
L 99.172192 89.441407 
L 103.186537 71.404724 
L 108.003751 49.918056 
L 110.412358 40.129623 
L 112.820965 31.449126 
L 114.426703 26.43146 
L 116.032441 22.12305 
L 117.63818 18.591841 
L 119.243918 15.893523 
L 120.046787 14.870529 
L 120.849656 14.07065 
L 121.652525 13.497042 
L 122.455394 13.151969 
L 123.258263 13.036793 
L 124.061132 13.151969 
L 124.864001 13.497042 
L 125.66687 14.07065 
L 126.469739 14.870529 
L 127.272608 15.893523 
L 128.075477 17.135594 
L 129.681215 20.256516 
L 131.286953 24.184076 
L 132.892691 28.856334 
L 134.498429 34.199605 
L 136.907036 43.285759 
L 139.315643 53.368042 
L 143.329989 71.404724 
L 148.147203 92.891393 
L 150.55581 102.679826 
L 152.964417 111.360323 
L 154.570155 116.377988 
L 156.175893 120.686399 
L 157.781631 124.217608 
L 159.387369 126.915926 
L 160.190238 127.93892 
L 160.993107 128.738799 
L 161.795976 129.312407 
L 162.598845 129.65748 
L 163.401714 129.772656 
L 164.204583 129.65748 
L 165.007453 129.312407 
L 165.810322 128.738799 
L 166.613191 127.93892 
L 167.41606 126.915926 
L 168.218929 125.673854 
L 169.824667 122.552932 
L 171.430405 118.625373 
L 173.036143 113.953115 
L 174.641881 108.609844 
L 177.050488 99.52369 
L 179.459095 89.441407 
L 183.47344 71.404724 
L 188.290655 49.918056 
L 190.699262 40.129623 
L 193.107869 31.449126 
L 194.713607 26.43146 
L 196.319345 22.12305 
L 197.925083 18.591841 
L 199.530821 15.893523 
L 200.33369 14.870529 
L 201.136559 14.07065 
L 201.939428 13.497042 
L 202.742297 13.151969 
L 202.742297 13.151969 
" style="fill:none;stroke:#9467bd;stroke-dasharray:9.6,2.4,1.5,2.4;stroke-dashoffset:0;stroke-width:1.5;"/>
   </g>
   <g id="patch_3">
    <path d="M 34.982813 135.609449 
L 34.982813 7.2 
" style="fill:none;stroke:#000000;stroke-linecap:square;stroke-linejoin:miter;stroke-width:1.5;"/>
   </g>
   <g id="patch_4">
    <path d="M 210.730844 135.609449 
L 210.730844 7.2 
" style="fill:none;stroke:#000000;stroke-linecap:square;stroke-linejoin:miter;stroke-width:1.5;"/>
   </g>
   <g id="patch_5">
    <path d="M 34.982813 135.609449 
L 210.730844 135.609449 
" style="fill:none;stroke:#000000;stroke-linecap:square;stroke-linejoin:miter;stroke-width:1.5;"/>
   </g>
   <g id="patch_6">
    <path d="M 34.982813 7.2 
L 210.730844 7.2 
" style="fill:none;stroke:#000000;stroke-linecap:square;stroke-linejoin:miter;stroke-width:1.5;"/>
   </g>
  </g>
 </g>
 <defs>
  <clipPath id="p1ac0cd46d3">
   <rect height="128.409449" width="175.748031" x="34.982813" y="7.2"/>
  </clipPath>
 </defs>
</svg>
