<?xml version="1.0" encoding="utf-8" standalone="no"?>
<!DOCTYPE svg PUBLIC "-//W3C//DTD SVG 1.1//EN"
  "http://www.w3.org/Graphics/SVG/1.1/DTD/svg11.dtd">
<!-- Created with matplotlib (https://matplotlib.org/) -->
<svg height="159.786793pt" version="1.1" viewBox="0 0 218.696729 159.786793" width="218.696729pt" xmlns="http://www.w3.org/2000/svg" xmlns:xlink="http://www.w3.org/1999/xlink">
 <defs>
  <style type="text/css">
*{stroke-linecap:butt;stroke-linejoin:round;}
  </style>
 </defs>
 <g id="figure_1">
  <g id="patch_1">
   <path d="M 0 159.786793 
L 218.696729 159.786793 
L 218.696729 0 
L 0 0 
z
" style="fill:none;"/>
  </g>
  <g id="axes_1">
   <g id="patch_2">
    <path d="M 34.982813 139.408668 
L 210.730844 139.408668 
L 210.730844 10.999219 
L 34.982813 10.999219 
z
" style="fill:#ffffff;"/>
   </g>
   <g id="matplotlib.axis_1">
    <g id="xtick_1">
     <g id="line2d_1">
      <defs>
       <path d="M 0 0 
L 0 -4 
" id="md9d4a31be0" style="stroke:#000000;stroke-width:1.25;"/>
      </defs>
      <g>
       <use style="stroke:#000000;stroke-width:1.25;" x="42.971359" xlink:href="#md9d4a31be0" y="139.408668"/>
      </g>
     </g>
     <g id="line2d_2">
      <defs>
       <path d="M 0 0 
L 0 4 
" id="m34b8d67dca" style="stroke:#000000;stroke-width:1.25;"/>
      </defs>
      <g>
       <use style="stroke:#000000;stroke-width:1.25;" x="42.971359" xlink:href="#m34b8d67dca" y="10.999219"/>
      </g>
     </g>
     <g id="text_1">
      <!-- 0.0 -->
      <defs>
       <path d="M 31.78125 66.40625 
Q 24.171875 66.40625 20.328125 58.90625 
Q 16.5 51.421875 16.5 36.375 
Q 16.5 21.390625 20.328125 13.890625 
Q 24.171875 6.390625 31.78125 6.390625 
Q 39.453125 6.390625 43.28125 13.890625 
Q 47.125 21.390625 47.125 36.375 
Q 47.125 51.421875 43.28125 58.90625 
Q 39.453125 66.40625 31.78125 66.40625 
z
M 31.78125 74.21875 
Q 44.046875 74.21875 50.515625 64.515625 
Q 56.984375 54.828125 56.984375 36.375 
Q 56.984375 17.96875 50.515625 8.265625 
Q 44.046875 -1.421875 31.78125 -1.421875 
Q 19.53125 -1.421875 13.0625 8.265625 
Q 6.59375 17.96875 6.59375 36.375 
Q 6.59375 54.828125 13.0625 64.515625 
Q 19.53125 74.21875 31.78125 74.21875 
z
" id="DejaVuSans-48"/>
       <path d="M 10.6875 12.40625 
L 21 12.40625 
L 21 0 
L 10.6875 0 
z
" id="DejaVuSans-46"/>
      </defs>
      <g transform="translate(35.019797 150.507105)scale(0.1 -0.1)">
       <use xlink:href="#DejaVuSans-48"/>
       <use x="63.623047" xlink:href="#DejaVuSans-46"/>
       <use x="95.410156" xlink:href="#DejaVuSans-48"/>
      </g>
     </g>
    </g>
    <g id="xtick_2">
     <g id="line2d_3">
      <g>
       <use style="stroke:#000000;stroke-width:1.25;" x="83.114811" xlink:href="#md9d4a31be0" y="139.408668"/>
      </g>
     </g>
     <g id="line2d_4">
      <g>
       <use style="stroke:#000000;stroke-width:1.25;" x="83.114811" xlink:href="#m34b8d67dca" y="10.999219"/>
      </g>
     </g>
     <g id="text_2">
      <!-- 0.5 -->
      <defs>
       <path d="M 10.796875 72.90625 
L 49.515625 72.90625 
L 49.515625 64.59375 
L 19.828125 64.59375 
L 19.828125 46.734375 
Q 21.96875 47.46875 24.109375 47.828125 
Q 26.265625 48.1875 28.421875 48.1875 
Q 40.625 48.1875 47.75 41.5 
Q 54.890625 34.8125 54.890625 23.390625 
Q 54.890625 11.625 47.5625 5.09375 
Q 40.234375 -1.421875 26.90625 -1.421875 
Q 22.3125 -1.421875 17.546875 -0.640625 
Q 12.796875 0.140625 7.71875 1.703125 
L 7.71875 11.625 
Q 12.109375 9.234375 16.796875 8.0625 
Q 21.484375 6.890625 26.703125 6.890625 
Q 35.15625 6.890625 40.078125 11.328125 
Q 45.015625 15.765625 45.015625 23.390625 
Q 45.015625 31 40.078125 35.4375 
Q 35.15625 39.890625 26.703125 39.890625 
Q 22.75 39.890625 18.8125 39.015625 
Q 14.890625 38.140625 10.796875 36.28125 
z
" id="DejaVuSans-53"/>
      </defs>
      <g transform="translate(75.163249 150.507105)scale(0.1 -0.1)">
       <use xlink:href="#DejaVuSans-48"/>
       <use x="63.623047" xlink:href="#DejaVuSans-46"/>
       <use x="95.410156" xlink:href="#DejaVuSans-53"/>
      </g>
     </g>
    </g>
    <g id="xtick_3">
     <g id="line2d_5">
      <g>
       <use style="stroke:#000000;stroke-width:1.25;" x="123.258263" xlink:href="#md9d4a31be0" y="139.408668"/>
      </g>
     </g>
     <g id="line2d_6">
      <g>
       <use style="stroke:#000000;stroke-width:1.25;" x="123.258263" xlink:href="#m34b8d67dca" y="10.999219"/>
      </g>
     </g>
     <g id="text_3">
      <!-- 1.0 -->
      <defs>
       <path d="M 12.40625 8.296875 
L 28.515625 8.296875 
L 28.515625 63.921875 
L 10.984375 60.40625 
L 10.984375 69.390625 
L 28.421875 72.90625 
L 38.28125 72.90625 
L 38.28125 8.296875 
L 54.390625 8.296875 
L 54.390625 0 
L 12.40625 0 
z
" id="DejaVuSans-49"/>
      </defs>
      <g transform="translate(115.3067 150.507105)scale(0.1 -0.1)">
       <use xlink:href="#DejaVuSans-49"/>
       <use x="63.623047" xlink:href="#DejaVuSans-46"/>
       <use x="95.410156" xlink:href="#DejaVuSans-48"/>
      </g>
     </g>
    </g>
    <g id="xtick_4">
     <g id="line2d_7">
      <g>
       <use style="stroke:#000000;stroke-width:1.25;" x="163.401714" xlink:href="#md9d4a31be0" y="139.408668"/>
      </g>
     </g>
     <g id="line2d_8">
      <g>
       <use style="stroke:#000000;stroke-width:1.25;" x="163.401714" xlink:href="#m34b8d67dca" y="10.999219"/>
      </g>
     </g>
     <g id="text_4">
      <!-- 1.5 -->
      <g transform="translate(155.450152 150.507105)scale(0.1 -0.1)">
       <use xlink:href="#DejaVuSans-49"/>
       <use x="63.623047" xlink:href="#DejaVuSans-46"/>
       <use x="95.410156" xlink:href="#DejaVuSans-53"/>
      </g>
     </g>
    </g>
    <g id="xtick_5">
     <g id="line2d_9">
      <g>
       <use style="stroke:#000000;stroke-width:1.25;" x="203.545166" xlink:href="#md9d4a31be0" y="139.408668"/>
      </g>
     </g>
     <g id="line2d_10">
      <g>
       <use style="stroke:#000000;stroke-width:1.25;" x="203.545166" xlink:href="#m34b8d67dca" y="10.999219"/>
      </g>
     </g>
     <g id="text_5">
      <!-- 2.0 -->
      <defs>
       <path d="M 19.1875 8.296875 
L 53.609375 8.296875 
L 53.609375 0 
L 7.328125 0 
L 7.328125 8.296875 
Q 12.9375 14.109375 22.625 23.890625 
Q 32.328125 33.6875 34.8125 36.53125 
Q 39.546875 41.84375 41.421875 45.53125 
Q 43.3125 49.21875 43.3125 52.78125 
Q 43.3125 58.59375 39.234375 62.25 
Q 35.15625 65.921875 28.609375 65.921875 
Q 23.96875 65.921875 18.8125 64.3125 
Q 13.671875 62.703125 7.8125 59.421875 
L 7.8125 69.390625 
Q 13.765625 71.78125 18.9375 73 
Q 24.125 74.21875 28.421875 74.21875 
Q 39.75 74.21875 46.484375 68.546875 
Q 53.21875 62.890625 53.21875 53.421875 
Q 53.21875 48.921875 51.53125 44.890625 
Q 49.859375 40.875 45.40625 35.40625 
Q 44.1875 33.984375 37.640625 27.21875 
Q 31.109375 20.453125 19.1875 8.296875 
z
" id="DejaVuSans-50"/>
      </defs>
      <g transform="translate(195.593604 150.507105)scale(0.1 -0.1)">
       <use xlink:href="#DejaVuSans-50"/>
       <use x="63.623047" xlink:href="#DejaVuSans-46"/>
       <use x="95.410156" xlink:href="#DejaVuSans-48"/>
      </g>
     </g>
    </g>
    <g id="xtick_6">
     <g id="line2d_11">
      <defs>
       <path d="M 0 0 
L 0 -2 
" id="md90469d64e" style="stroke:#000000;stroke-width:1.25;"/>
      </defs>
      <g>
       <use style="stroke:#000000;stroke-width:1.25;" x="51.00005" xlink:href="#md90469d64e" y="139.408668"/>
      </g>
     </g>
     <g id="line2d_12">
      <defs>
       <path d="M 0 0 
L 0 2 
" id="md09c678910" style="stroke:#000000;stroke-width:1.25;"/>
      </defs>
      <g>
       <use style="stroke:#000000;stroke-width:1.25;" x="51.00005" xlink:href="#md09c678910" y="10.999219"/>
      </g>
     </g>
    </g>
    <g id="xtick_7">
     <g id="line2d_13">
      <g>
       <use style="stroke:#000000;stroke-width:1.25;" x="59.02874" xlink:href="#md90469d64e" y="139.408668"/>
      </g>
     </g>
     <g id="line2d_14">
      <g>
       <use style="stroke:#000000;stroke-width:1.25;" x="59.02874" xlink:href="#md09c678910" y="10.999219"/>
      </g>
     </g>
    </g>
    <g id="xtick_8">
     <g id="line2d_15">
      <g>
       <use style="stroke:#000000;stroke-width:1.25;" x="67.05743" xlink:href="#md90469d64e" y="139.408668"/>
      </g>
     </g>
     <g id="line2d_16">
      <g>
       <use style="stroke:#000000;stroke-width:1.25;" x="67.05743" xlink:href="#md09c678910" y="10.999219"/>
      </g>
     </g>
    </g>
    <g id="xtick_9">
     <g id="line2d_17">
      <g>
       <use style="stroke:#000000;stroke-width:1.25;" x="75.086121" xlink:href="#md90469d64e" y="139.408668"/>
      </g>
     </g>
     <g id="line2d_18">
      <g>
       <use style="stroke:#000000;stroke-width:1.25;" x="75.086121" xlink:href="#md09c678910" y="10.999219"/>
      </g>
     </g>
    </g>
    <g id="xtick_10">
     <g id="line2d_19">
      <g>
       <use style="stroke:#000000;stroke-width:1.25;" x="91.143501" xlink:href="#md90469d64e" y="139.408668"/>
      </g>
     </g>
     <g id="line2d_20">
      <g>
       <use style="stroke:#000000;stroke-width:1.25;" x="91.143501" xlink:href="#md09c678910" y="10.999219"/>
      </g>
     </g>
    </g>
    <g id="xtick_11">
     <g id="line2d_21">
      <g>
       <use style="stroke:#000000;stroke-width:1.25;" x="99.172192" xlink:href="#md90469d64e" y="139.408668"/>
      </g>
     </g>
     <g id="line2d_22">
      <g>
       <use style="stroke:#000000;stroke-width:1.25;" x="99.172192" xlink:href="#md09c678910" y="10.999219"/>
      </g>
     </g>
    </g>
    <g id="xtick_12">
     <g id="line2d_23">
      <g>
       <use style="stroke:#000000;stroke-width:1.25;" x="107.200882" xlink:href="#md90469d64e" y="139.408668"/>
      </g>
     </g>
     <g id="line2d_24">
      <g>
       <use style="stroke:#000000;stroke-width:1.25;" x="107.200882" xlink:href="#md09c678910" y="10.999219"/>
      </g>
     </g>
    </g>
    <g id="xtick_13">
     <g id="line2d_25">
      <g>
       <use style="stroke:#000000;stroke-width:1.25;" x="115.229572" xlink:href="#md90469d64e" y="139.408668"/>
      </g>
     </g>
     <g id="line2d_26">
      <g>
       <use style="stroke:#000000;stroke-width:1.25;" x="115.229572" xlink:href="#md09c678910" y="10.999219"/>
      </g>
     </g>
    </g>
    <g id="xtick_14">
     <g id="line2d_27">
      <g>
       <use style="stroke:#000000;stroke-width:1.25;" x="131.286953" xlink:href="#md90469d64e" y="139.408668"/>
      </g>
     </g>
     <g id="line2d_28">
      <g>
       <use style="stroke:#000000;stroke-width:1.25;" x="131.286953" xlink:href="#md09c678910" y="10.999219"/>
      </g>
     </g>
    </g>
    <g id="xtick_15">
     <g id="line2d_29">
      <g>
       <use style="stroke:#000000;stroke-width:1.25;" x="139.315643" xlink:href="#md90469d64e" y="139.408668"/>
      </g>
     </g>
     <g id="line2d_30">
      <g>
       <use style="stroke:#000000;stroke-width:1.25;" x="139.315643" xlink:href="#md09c678910" y="10.999219"/>
      </g>
     </g>
    </g>
    <g id="xtick_16">
     <g id="line2d_31">
      <g>
       <use style="stroke:#000000;stroke-width:1.25;" x="147.344334" xlink:href="#md90469d64e" y="139.408668"/>
      </g>
     </g>
     <g id="line2d_32">
      <g>
       <use style="stroke:#000000;stroke-width:1.25;" x="147.344334" xlink:href="#md09c678910" y="10.999219"/>
      </g>
     </g>
    </g>
    <g id="xtick_17">
     <g id="line2d_33">
      <g>
       <use style="stroke:#000000;stroke-width:1.25;" x="155.373024" xlink:href="#md90469d64e" y="139.408668"/>
      </g>
     </g>
     <g id="line2d_34">
      <g>
       <use style="stroke:#000000;stroke-width:1.25;" x="155.373024" xlink:href="#md09c678910" y="10.999219"/>
      </g>
     </g>
    </g>
    <g id="xtick_18">
     <g id="line2d_35">
      <g>
       <use style="stroke:#000000;stroke-width:1.25;" x="171.430405" xlink:href="#md90469d64e" y="139.408668"/>
      </g>
     </g>
     <g id="line2d_36">
      <g>
       <use style="stroke:#000000;stroke-width:1.25;" x="171.430405" xlink:href="#md09c678910" y="10.999219"/>
      </g>
     </g>
    </g>
    <g id="xtick_19">
     <g id="line2d_37">
      <g>
       <use style="stroke:#000000;stroke-width:1.25;" x="179.459095" xlink:href="#md90469d64e" y="139.408668"/>
      </g>
     </g>
     <g id="line2d_38">
      <g>
       <use style="stroke:#000000;stroke-width:1.25;" x="179.459095" xlink:href="#md09c678910" y="10.999219"/>
      </g>
     </g>
    </g>
    <g id="xtick_20">
     <g id="line2d_39">
      <g>
       <use style="stroke:#000000;stroke-width:1.25;" x="187.487785" xlink:href="#md90469d64e" y="139.408668"/>
      </g>
     </g>
     <g id="line2d_40">
      <g>
       <use style="stroke:#000000;stroke-width:1.25;" x="187.487785" xlink:href="#md09c678910" y="10.999219"/>
      </g>
     </g>
    </g>
    <g id="xtick_21">
     <g id="line2d_41">
      <g>
       <use style="stroke:#000000;stroke-width:1.25;" x="195.516476" xlink:href="#md90469d64e" y="139.408668"/>
      </g>
     </g>
     <g id="line2d_42">
      <g>
       <use style="stroke:#000000;stroke-width:1.25;" x="195.516476" xlink:href="#md09c678910" y="10.999219"/>
      </g>
     </g>
    </g>
   </g>
   <g id="matplotlib.axis_2">
    <g id="ytick_1">
     <g id="line2d_43">
      <defs>
       <path d="M 0 0 
L 4 0 
" id="ma8637fa6f6" style="stroke:#000000;stroke-width:1.25;"/>
      </defs>
      <g>
       <use style="stroke:#000000;stroke-width:1.25;" x="34.982813" xlink:href="#ma8637fa6f6" y="139.408668"/>
      </g>
     </g>
     <g id="line2d_44">
      <defs>
       <path d="M 0 0 
L -4 0 
" id="mf5e3616f0e" style="stroke:#000000;stroke-width:1.25;"/>
      </defs>
      <g>
       <use style="stroke:#000000;stroke-width:1.25;" x="210.730844" xlink:href="#mf5e3616f0e" y="139.408668"/>
      </g>
     </g>
     <g id="text_6">
      <!-- −1.0 -->
      <defs>
       <path d="M 10.59375 35.5 
L 73.1875 35.5 
L 73.1875 27.203125 
L 10.59375 27.203125 
z
" id="DejaVuSans-8722"/>
      </defs>
      <g transform="translate(7.2 143.207886)scale(0.1 -0.1)">
       <use xlink:href="#DejaVuSans-8722"/>
       <use x="83.789062" xlink:href="#DejaVuSans-49"/>
       <use x="147.412109" xlink:href="#DejaVuSans-46"/>
       <use x="179.199219" xlink:href="#DejaVuSans-48"/>
      </g>
     </g>
    </g>
    <g id="ytick_2">
     <g id="line2d_45">
      <g>
       <use style="stroke:#000000;stroke-width:1.25;" x="34.982813" xlink:href="#ma8637fa6f6" y="107.306305"/>
      </g>
     </g>
     <g id="line2d_46">
      <g>
       <use style="stroke:#000000;stroke-width:1.25;" x="210.730844" xlink:href="#mf5e3616f0e" y="107.306305"/>
      </g>
     </g>
     <g id="text_7">
      <!-- −0.5 -->
      <g transform="translate(7.2 111.105524)scale(0.1 -0.1)">
       <use xlink:href="#DejaVuSans-8722"/>
       <use x="83.789062" xlink:href="#DejaVuSans-48"/>
       <use x="147.412109" xlink:href="#DejaVuSans-46"/>
       <use x="179.199219" xlink:href="#DejaVuSans-53"/>
      </g>
     </g>
    </g>
    <g id="ytick_3">
     <g id="line2d_47">
      <g>
       <use style="stroke:#000000;stroke-width:1.25;" x="34.982813" xlink:href="#ma8637fa6f6" y="75.203943"/>
      </g>
     </g>
     <g id="line2d_48">
      <g>
       <use style="stroke:#000000;stroke-width:1.25;" x="210.730844" xlink:href="#mf5e3616f0e" y="75.203943"/>
      </g>
     </g>
     <g id="text_8">
      <!-- 0.0 -->
      <g transform="translate(15.579688 79.003162)scale(0.1 -0.1)">
       <use xlink:href="#DejaVuSans-48"/>
       <use x="63.623047" xlink:href="#DejaVuSans-46"/>
       <use x="95.410156" xlink:href="#DejaVuSans-48"/>
      </g>
     </g>
    </g>
    <g id="ytick_4">
     <g id="line2d_49">
      <g>
       <use style="stroke:#000000;stroke-width:1.25;" x="34.982813" xlink:href="#ma8637fa6f6" y="43.101581"/>
      </g>
     </g>
     <g id="line2d_50">
      <g>
       <use style="stroke:#000000;stroke-width:1.25;" x="210.730844" xlink:href="#mf5e3616f0e" y="43.101581"/>
      </g>
     </g>
     <g id="text_9">
      <!-- 0.5 -->
      <g transform="translate(15.579688 46.9008)scale(0.1 -0.1)">
       <use xlink:href="#DejaVuSans-48"/>
       <use x="63.623047" xlink:href="#DejaVuSans-46"/>
       <use x="95.410156" xlink:href="#DejaVuSans-53"/>
      </g>
     </g>
    </g>
    <g id="ytick_5">
     <g id="line2d_51">
      <g>
       <use style="stroke:#000000;stroke-width:1.25;" x="34.982813" xlink:href="#ma8637fa6f6" y="10.999219"/>
      </g>
     </g>
     <g id="line2d_52">
      <g>
       <use style="stroke:#000000;stroke-width:1.25;" x="210.730844" xlink:href="#mf5e3616f0e" y="10.999219"/>
      </g>
     </g>
     <g id="text_10">
      <!-- 1.0 -->
      <g transform="translate(15.579688 14.798438)scale(0.1 -0.1)">
       <use xlink:href="#DejaVuSans-49"/>
       <use x="63.623047" xlink:href="#DejaVuSans-46"/>
       <use x="95.410156" xlink:href="#DejaVuSans-48"/>
      </g>
     </g>
    </g>
    <g id="ytick_6">
     <g id="line2d_53">
      <defs>
       <path d="M 0 0 
L 2 0 
" id="mb6b3aed4dc" style="stroke:#000000;stroke-width:1.25;"/>
      </defs>
      <g>
       <use style="stroke:#000000;stroke-width:1.25;" x="34.982813" xlink:href="#mb6b3aed4dc" y="132.988195"/>
      </g>
     </g>
     <g id="line2d_54">
      <defs>
       <path d="M 0 0 
L -2 0 
" id="mcb8f7f635b" style="stroke:#000000;stroke-width:1.25;"/>
      </defs>
      <g>
       <use style="stroke:#000000;stroke-width:1.25;" x="210.730844" xlink:href="#mcb8f7f635b" y="132.988195"/>
      </g>
     </g>
    </g>
    <g id="ytick_7">
     <g id="line2d_55">
      <g>
       <use style="stroke:#000000;stroke-width:1.25;" x="34.982813" xlink:href="#mb6b3aed4dc" y="126.567723"/>
      </g>
     </g>
     <g id="line2d_56">
      <g>
       <use style="stroke:#000000;stroke-width:1.25;" x="210.730844" xlink:href="#mcb8f7f635b" y="126.567723"/>
      </g>
     </g>
    </g>
    <g id="ytick_8">
     <g id="line2d_57">
      <g>
       <use style="stroke:#000000;stroke-width:1.25;" x="34.982813" xlink:href="#mb6b3aed4dc" y="120.14725"/>
      </g>
     </g>
     <g id="line2d_58">
      <g>
       <use style="stroke:#000000;stroke-width:1.25;" x="210.730844" xlink:href="#mcb8f7f635b" y="120.14725"/>
      </g>
     </g>
    </g>
    <g id="ytick_9">
     <g id="line2d_59">
      <g>
       <use style="stroke:#000000;stroke-width:1.25;" x="34.982813" xlink:href="#mb6b3aed4dc" y="113.726778"/>
      </g>
     </g>
     <g id="line2d_60">
      <g>
       <use style="stroke:#000000;stroke-width:1.25;" x="210.730844" xlink:href="#mcb8f7f635b" y="113.726778"/>
      </g>
     </g>
    </g>
    <g id="ytick_10">
     <g id="line2d_61">
      <g>
       <use style="stroke:#000000;stroke-width:1.25;" x="34.982813" xlink:href="#mb6b3aed4dc" y="100.885833"/>
      </g>
     </g>
     <g id="line2d_62">
      <g>
       <use style="stroke:#000000;stroke-width:1.25;" x="210.730844" xlink:href="#mcb8f7f635b" y="100.885833"/>
      </g>
     </g>
    </g>
    <g id="ytick_11">
     <g id="line2d_63">
      <g>
       <use style="stroke:#000000;stroke-width:1.25;" x="34.982813" xlink:href="#mb6b3aed4dc" y="94.46536"/>
      </g>
     </g>
     <g id="line2d_64">
      <g>
       <use style="stroke:#000000;stroke-width:1.25;" x="210.730844" xlink:href="#mcb8f7f635b" y="94.46536"/>
      </g>
     </g>
    </g>
    <g id="ytick_12">
     <g id="line2d_65">
      <g>
       <use style="stroke:#000000;stroke-width:1.25;" x="34.982813" xlink:href="#mb6b3aed4dc" y="88.044888"/>
      </g>
     </g>
     <g id="line2d_66">
      <g>
       <use style="stroke:#000000;stroke-width:1.25;" x="210.730844" xlink:href="#mcb8f7f635b" y="88.044888"/>
      </g>
     </g>
    </g>
    <g id="ytick_13">
     <g id="line2d_67">
      <g>
       <use style="stroke:#000000;stroke-width:1.25;" x="34.982813" xlink:href="#mb6b3aed4dc" y="81.624416"/>
      </g>
     </g>
     <g id="line2d_68">
      <g>
       <use style="stroke:#000000;stroke-width:1.25;" x="210.730844" xlink:href="#mcb8f7f635b" y="81.624416"/>
      </g>
     </g>
    </g>
    <g id="ytick_14">
     <g id="line2d_69">
      <g>
       <use style="stroke:#000000;stroke-width:1.25;" x="34.982813" xlink:href="#mb6b3aed4dc" y="68.783471"/>
      </g>
     </g>
     <g id="line2d_70">
      <g>
       <use style="stroke:#000000;stroke-width:1.25;" x="210.730844" xlink:href="#mcb8f7f635b" y="68.783471"/>
      </g>
     </g>
    </g>
    <g id="ytick_15">
     <g id="line2d_71">
      <g>
       <use style="stroke:#000000;stroke-width:1.25;" x="34.982813" xlink:href="#mb6b3aed4dc" y="62.362998"/>
      </g>
     </g>
     <g id="line2d_72">
      <g>
       <use style="stroke:#000000;stroke-width:1.25;" x="210.730844" xlink:href="#mcb8f7f635b" y="62.362998"/>
      </g>
     </g>
    </g>
    <g id="ytick_16">
     <g id="line2d_73">
      <g>
       <use style="stroke:#000000;stroke-width:1.25;" x="34.982813" xlink:href="#mb6b3aed4dc" y="55.942526"/>
      </g>
     </g>
     <g id="line2d_74">
      <g>
       <use style="stroke:#000000;stroke-width:1.25;" x="210.730844" xlink:href="#mcb8f7f635b" y="55.942526"/>
      </g>
     </g>
    </g>
    <g id="ytick_17">
     <g id="line2d_75">
      <g>
       <use style="stroke:#000000;stroke-width:1.25;" x="34.982813" xlink:href="#mb6b3aed4dc" y="49.522053"/>
      </g>
     </g>
     <g id="line2d_76">
      <g>
       <use style="stroke:#000000;stroke-width:1.25;" x="210.730844" xlink:href="#mcb8f7f635b" y="49.522053"/>
      </g>
     </g>
    </g>
    <g id="ytick_18">
     <g id="line2d_77">
      <g>
       <use style="stroke:#000000;stroke-width:1.25;" x="34.982813" xlink:href="#mb6b3aed4dc" y="36.681109"/>
      </g>
     </g>
     <g id="line2d_78">
      <g>
       <use style="stroke:#000000;stroke-width:1.25;" x="210.730844" xlink:href="#mcb8f7f635b" y="36.681109"/>
      </g>
     </g>
    </g>
    <g id="ytick_19">
     <g id="line2d_79">
      <g>
       <use style="stroke:#000000;stroke-width:1.25;" x="34.982813" xlink:href="#mb6b3aed4dc" y="30.260636"/>
      </g>
     </g>
     <g id="line2d_80">
      <g>
       <use style="stroke:#000000;stroke-width:1.25;" x="210.730844" xlink:href="#mcb8f7f635b" y="30.260636"/>
      </g>
     </g>
    </g>
    <g id="ytick_20">
     <g id="line2d_81">
      <g>
       <use style="stroke:#000000;stroke-width:1.25;" x="34.982813" xlink:href="#mb6b3aed4dc" y="23.840164"/>
      </g>
     </g>
     <g id="line2d_82">
      <g>
       <use style="stroke:#000000;stroke-width:1.25;" x="210.730844" xlink:href="#mcb8f7f635b" y="23.840164"/>
      </g>
     </g>
    </g>
    <g id="ytick_21">
     <g id="line2d_83">
      <g>
       <use style="stroke:#000000;stroke-width:1.25;" x="34.982813" xlink:href="#mb6b3aed4dc" y="17.419691"/>
      </g>
     </g>
     <g id="line2d_84">
      <g>
       <use style="stroke:#000000;stroke-width:1.25;" x="210.730844" xlink:href="#mcb8f7f635b" y="17.419691"/>
      </g>
     </g>
    </g>
   </g>
   <g id="line2d_85">
    <path clip-path="url(#p48ae2348a3)" d="M 42.971359 43.101581 
L 45.379966 40.222953 
L 47.788574 37.654819 
L 50.197181 35.419974 
L 52.605788 33.538254 
L 55.014395 32.026362 
L 56.620133 31.230659 
L 58.225871 30.608499 
L 59.831609 30.162337 
L 61.437347 29.893933 
L 63.043085 29.804347 
L 64.648823 29.893933 
L 66.254561 30.162337 
L 67.860299 30.608499 
L 69.466038 31.230659 
L 71.071776 32.026362 
L 73.480383 33.538254 
L 75.88899 35.419974 
L 78.297597 37.654819 
L 80.706204 40.222953 
L 83.114811 43.101581 
L 86.326287 47.378211 
L 89.537763 52.093669 
L 93.552109 58.491237 
L 98.369323 66.696907 
L 113.623834 93.234297 
L 117.63818 99.530263 
L 120.849656 104.142735 
L 124.061132 108.298824 
L 126.469739 111.076662 
L 128.878346 113.53609 
L 131.286953 115.655279 
L 133.69556 117.41542 
L 136.104167 118.800889 
L 137.709905 119.51017 
L 139.315643 120.044595 
L 140.921382 120.402054 
L 142.52712 120.581137 
L 144.132858 120.581137 
L 145.738596 120.402054 
L 147.344334 120.044595 
L 148.950072 119.51017 
L 150.55581 118.800889 
L 152.161548 117.91955 
L 154.570155 116.282726 
L 156.978762 114.281283 
L 159.387369 111.932988 
L 161.795976 109.258683 
L 164.204583 106.282105 
L 167.41606 101.889156 
L 170.627536 97.075365 
L 174.641881 90.582508 
L 179.459095 82.306005 
L 193.107869 58.491237 
L 197.122214 52.093669 
L 200.33369 47.378211 
L 202.742297 44.125781 
L 202.742297 44.125781 
" style="fill:none;stroke:#1f77b4;stroke-dasharray:5.55,2.4;stroke-dashoffset:0;stroke-width:1.5;"/>
   </g>
   <g id="line2d_86">
    <path clip-path="url(#p48ae2348a3)" d="M 42.971359 43.101581 
L 45.379966 40.222953 
L 47.788574 37.654819 
L 50.197181 35.419974 
L 52.605788 33.538254 
L 55.014395 32.026362 
L 56.620133 31.230659 
L 58.225871 30.608499 
L 59.831609 30.162337 
L 61.437347 29.893933 
L 63.043085 29.804347 
L 64.648823 29.893933 
L 66.254561 30.162337 
L 67.860299 30.608499 
L 69.466038 31.230659 
L 71.071776 32.026362 
L 73.480383 33.538254 
L 75.88899 35.419974 
L 78.297597 37.654819 
L 80.706204 40.222953 
L 83.114811 43.101581 
L 86.326287 47.378211 
L 89.537763 52.093669 
L 93.552109 58.491237 
L 98.369323 66.696907 
L 113.623834 93.234297 
L 117.63818 99.530263 
L 120.849656 104.142735 
L 124.061132 108.298824 
L 126.469739 111.076662 
L 128.878346 113.53609 
L 131.286953 115.655279 
L 133.69556 117.41542 
L 136.104167 118.800889 
L 137.709905 119.51017 
L 139.315643 120.044595 
L 140.921382 120.402054 
L 142.52712 120.581137 
L 144.132858 120.581137 
L 145.738596 120.402054 
L 147.344334 120.044595 
L 148.950072 119.51017 
L 150.55581 118.800889 
L 152.161548 117.91955 
L 154.570155 116.282726 
L 156.978762 114.281283 
L 159.387369 111.932988 
L 161.795976 109.258683 
L 164.204583 106.282105 
L 167.41606 101.889156 
L 170.627536 97.075365 
L 174.641881 90.582508 
L 179.459095 82.306005 
L 193.107869 58.491237 
L 197.122214 52.093669 
L 200.33369 47.378211 
L 202.742297 44.125781 
L 202.742297 44.125781 
" style="fill:none;stroke:#ff7f0e;stroke-dasharray:1.5,2.475;stroke-dashoffset:0;stroke-width:1.5;"/>
   </g>
   <g id="line2d_87">
    <path clip-path="url(#p48ae2348a3)" d="M 42.971359 43.101581 
L 46.182836 47.378211 
L 49.394312 52.093669 
L 53.408657 58.491237 
L 58.225871 66.696907 
L 73.480383 93.234297 
L 77.494728 99.530263 
L 80.706204 104.142735 
L 83.91768 108.298824 
L 86.326287 111.076662 
L 88.734894 113.53609 
L 91.143501 115.655279 
L 93.552109 117.41542 
L 95.960716 118.800889 
L 97.566454 119.51017 
L 99.172192 120.044595 
L 100.77793 120.402054 
L 102.383668 120.581137 
L 103.989406 120.581137 
L 105.595144 120.402054 
L 107.200882 120.044595 
L 108.80662 119.51017 
L 110.412358 118.800889 
L 112.018096 117.91955 
L 114.426703 116.282726 
L 116.83531 114.281283 
L 119.243918 111.932988 
L 121.652525 109.258683 
L 124.061132 106.282105 
L 127.272608 101.889156 
L 130.484084 97.075365 
L 134.498429 90.582508 
L 139.315643 82.306005 
L 152.964417 58.491237 
L 156.978762 52.093669 
L 160.190238 47.378211 
L 163.401714 43.101581 
L 165.810322 40.222953 
L 168.218929 37.654819 
L 170.627536 35.419974 
L 173.036143 33.538254 
L 175.44475 32.026362 
L 177.050488 31.230659 
L 178.656226 30.608499 
L 180.261964 30.162337 
L 181.867702 29.893933 
L 183.47344 29.804347 
L 185.079178 29.893933 
L 186.684916 30.162337 
L 188.290655 30.608499 
L 189.896393 31.230659 
L 191.502131 32.026362 
L 193.910738 33.538254 
L 196.319345 35.419974 
L 198.727952 37.654819 
L 201.136559 40.222953 
L 202.742297 42.109062 
L 202.742297 42.109062 
" style="fill:none;stroke:#2ca02c;stroke-dasharray:5.55,2.4;stroke-dashoffset:0;stroke-width:1.5;"/>
   </g>
   <g id="line2d_88">
    <path clip-path="url(#p48ae2348a3)" d="M 42.971359 43.101581 
L 46.182836 47.378211 
L 49.394312 52.093669 
L 53.408657 58.491237 
L 58.225871 66.696907 
L 73.480383 93.234297 
L 77.494728 99.530263 
L 80.706204 104.142735 
L 83.91768 108.298824 
L 86.326287 111.076662 
L 88.734894 113.53609 
L 91.143501 115.655279 
L 93.552109 117.41542 
L 95.960716 118.800889 
L 97.566454 119.51017 
L 99.172192 120.044595 
L 100.77793 120.402054 
L 102.383668 120.581137 
L 103.989406 120.581137 
L 105.595144 120.402054 
L 107.200882 120.044595 
L 108.80662 119.51017 
L 110.412358 118.800889 
L 112.018096 117.91955 
L 114.426703 116.282726 
L 116.83531 114.281283 
L 119.243918 111.932988 
L 121.652525 109.258683 
L 124.061132 106.282105 
L 127.272608 101.889156 
L 130.484084 97.075365 
L 134.498429 90.582508 
L 139.315643 82.306005 
L 152.964417 58.491237 
L 156.978762 52.093669 
L 160.190238 47.378211 
L 163.401714 43.101581 
L 165.810322 40.222953 
L 168.218929 37.654819 
L 170.627536 35.419974 
L 173.036143 33.538254 
L 175.44475 32.026362 
L 177.050488 31.230659 
L 178.656226 30.608499 
L 180.261964 30.162337 
L 181.867702 29.893933 
L 183.47344 29.804347 
L 185.079178 29.893933 
L 186.684916 30.162337 
L 188.290655 30.608499 
L 189.896393 31.230659 
L 191.502131 32.026362 
L 193.910738 33.538254 
L 196.319345 35.419974 
L 198.727952 37.654819 
L 201.136559 40.222953 
L 202.742297 42.109062 
L 202.742297 42.109062 
" style="fill:none;stroke:#d62728;stroke-dasharray:1.5,2.475;stroke-dashoffset:0;stroke-width:1.5;"/>
   </g>
   <g id="patch_3">
    <path d="M 34.982813 139.408668 
L 34.982813 10.999219 
" style="fill:none;stroke:#000000;stroke-linecap:square;stroke-linejoin:miter;stroke-width:1.5;"/>
   </g>
   <g id="patch_4">
    <path d="M 210.730844 139.408668 
L 210.730844 10.999219 
" style="fill:none;stroke:#000000;stroke-linecap:square;stroke-linejoin:miter;stroke-width:1.5;"/>
   </g>
   <g id="patch_5">
    <path d="M 34.982813 139.408668 
L 210.730844 139.408668 
" style="fill:none;stroke:#000000;stroke-linecap:square;stroke-linejoin:miter;stroke-width:1.5;"/>
   </g>
   <g id="patch_6">
    <path d="M 34.982813 10.999219 
L 210.730844 10.999219 
" style="fill:none;stroke:#000000;stroke-linecap:square;stroke-linejoin:miter;stroke-width:1.5;"/>
   </g>
  </g>
 </g>
 <defs>
  <clipPath id="p48ae2348a3">
   <rect height="128.409449" width="175.748031" x="34.982813" y="10.999219"/>
  </clipPath>
 </defs>
</svg>
