<?xml version="1.0" encoding="utf-8" standalone="no"?>
<!DOCTYPE svg PUBLIC "-//W3C//DTD SVG 1.1//EN"
  "http://www.w3.org/Graphics/SVG/1.1/DTD/svg11.dtd">
<!-- Created with matplotlib (https://matplotlib.org/) -->
<svg height="245.018125pt" version="1.1" viewBox="0 0 376.982813 245.018125" width="376.982813pt" xmlns="http://www.w3.org/2000/svg" xmlns:xlink="http://www.w3.org/1999/xlink">
 <defs>
  <style type="text/css">
*{stroke-linecap:butt;stroke-linejoin:round;}
  </style>
 </defs>
 <g id="figure_1">
  <g id="patch_1">
   <path d="M 0 245.018125 
L 376.982813 245.018125 
L 376.982813 0 
L 0 0 
z
" style="fill:none;"/>
  </g>
  <g id="axes_1">
   <g id="patch_2">
    <path d="M 34.982813 224.64 
L 369.782813 224.64 
L 369.782813 7.2 
L 34.982813 7.2 
z
" style="fill:#ffffff;"/>
   </g>
   <g id="matplotlib.axis_1">
    <g id="xtick_1">
     <g id="line2d_1">
      <defs>
       <path d="M 0 0 
L 0 -4 
" id="m845f4dfde2" style="stroke:#000000;stroke-width:1.25;"/>
      </defs>
      <g>
       <use style="stroke:#000000;stroke-width:1.25;" x="50.200994" xlink:href="#m845f4dfde2" y="224.64"/>
      </g>
     </g>
     <g id="line2d_2">
      <defs>
       <path d="M 0 0 
L 0 4 
" id="med85983b59" style="stroke:#000000;stroke-width:1.25;"/>
      </defs>
      <g>
       <use style="stroke:#000000;stroke-width:1.25;" x="50.200994" xlink:href="#med85983b59" y="7.2"/>
      </g>
     </g>
     <g id="text_1">
      <!-- 0.0 -->
      <defs>
       <path d="M 31.78125 66.40625 
Q 24.171875 66.40625 20.328125 58.90625 
Q 16.5 51.421875 16.5 36.375 
Q 16.5 21.390625 20.328125 13.890625 
Q 24.171875 6.390625 31.78125 6.390625 
Q 39.453125 6.390625 43.28125 13.890625 
Q 47.125 21.390625 47.125 36.375 
Q 47.125 51.421875 43.28125 58.90625 
Q 39.453125 66.40625 31.78125 66.40625 
z
M 31.78125 74.21875 
Q 44.046875 74.21875 50.515625 64.515625 
Q 56.984375 54.828125 56.984375 36.375 
Q 56.984375 17.96875 50.515625 8.265625 
Q 44.046875 -1.421875 31.78125 -1.421875 
Q 19.53125 -1.421875 13.0625 8.265625 
Q 6.59375 17.96875 6.59375 36.375 
Q 6.59375 54.828125 13.0625 64.515625 
Q 19.53125 74.21875 31.78125 74.21875 
z
" id="DejaVuSans-48"/>
       <path d="M 10.6875 12.40625 
L 21 12.40625 
L 21 0 
L 10.6875 0 
z
" id="DejaVuSans-46"/>
      </defs>
      <g transform="translate(42.249432 235.738437)scale(0.1 -0.1)">
       <use xlink:href="#DejaVuSans-48"/>
       <use x="63.623047" xlink:href="#DejaVuSans-46"/>
       <use x="95.410156" xlink:href="#DejaVuSans-48"/>
      </g>
     </g>
    </g>
    <g id="xtick_2">
     <g id="line2d_3">
      <g>
       <use style="stroke:#000000;stroke-width:1.25;" x="126.67427" xlink:href="#m845f4dfde2" y="224.64"/>
      </g>
     </g>
     <g id="line2d_4">
      <g>
       <use style="stroke:#000000;stroke-width:1.25;" x="126.67427" xlink:href="#med85983b59" y="7.2"/>
      </g>
     </g>
     <g id="text_2">
      <!-- 0.5 -->
      <defs>
       <path d="M 10.796875 72.90625 
L 49.515625 72.90625 
L 49.515625 64.59375 
L 19.828125 64.59375 
L 19.828125 46.734375 
Q 21.96875 47.46875 24.109375 47.828125 
Q 26.265625 48.1875 28.421875 48.1875 
Q 40.625 48.1875 47.75 41.5 
Q 54.890625 34.8125 54.890625 23.390625 
Q 54.890625 11.625 47.5625 5.09375 
Q 40.234375 -1.421875 26.90625 -1.421875 
Q 22.3125 -1.421875 17.546875 -0.640625 
Q 12.796875 0.140625 7.71875 1.703125 
L 7.71875 11.625 
Q 12.109375 9.234375 16.796875 8.0625 
Q 21.484375 6.890625 26.703125 6.890625 
Q 35.15625 6.890625 40.078125 11.328125 
Q 45.015625 15.765625 45.015625 23.390625 
Q 45.015625 31 40.078125 35.4375 
Q 35.15625 39.890625 26.703125 39.890625 
Q 22.75 39.890625 18.8125 39.015625 
Q 14.890625 38.140625 10.796875 36.28125 
z
" id="DejaVuSans-53"/>
      </defs>
      <g transform="translate(118.722707 235.738437)scale(0.1 -0.1)">
       <use xlink:href="#DejaVuSans-48"/>
       <use x="63.623047" xlink:href="#DejaVuSans-46"/>
       <use x="95.410156" xlink:href="#DejaVuSans-53"/>
      </g>
     </g>
    </g>
    <g id="xtick_3">
     <g id="line2d_5">
      <g>
       <use style="stroke:#000000;stroke-width:1.25;" x="203.147545" xlink:href="#m845f4dfde2" y="224.64"/>
      </g>
     </g>
     <g id="line2d_6">
      <g>
       <use style="stroke:#000000;stroke-width:1.25;" x="203.147545" xlink:href="#med85983b59" y="7.2"/>
      </g>
     </g>
     <g id="text_3">
      <!-- 1.0 -->
      <defs>
       <path d="M 12.40625 8.296875 
L 28.515625 8.296875 
L 28.515625 63.921875 
L 10.984375 60.40625 
L 10.984375 69.390625 
L 28.421875 72.90625 
L 38.28125 72.90625 
L 38.28125 8.296875 
L 54.390625 8.296875 
L 54.390625 0 
L 12.40625 0 
z
" id="DejaVuSans-49"/>
      </defs>
      <g transform="translate(195.195983 235.738437)scale(0.1 -0.1)">
       <use xlink:href="#DejaVuSans-49"/>
       <use x="63.623047" xlink:href="#DejaVuSans-46"/>
       <use x="95.410156" xlink:href="#DejaVuSans-48"/>
      </g>
     </g>
    </g>
    <g id="xtick_4">
     <g id="line2d_7">
      <g>
       <use style="stroke:#000000;stroke-width:1.25;" x="279.620821" xlink:href="#m845f4dfde2" y="224.64"/>
      </g>
     </g>
     <g id="line2d_8">
      <g>
       <use style="stroke:#000000;stroke-width:1.25;" x="279.620821" xlink:href="#med85983b59" y="7.2"/>
      </g>
     </g>
     <g id="text_4">
      <!-- 1.5 -->
      <g transform="translate(271.669258 235.738437)scale(0.1 -0.1)">
       <use xlink:href="#DejaVuSans-49"/>
       <use x="63.623047" xlink:href="#DejaVuSans-46"/>
       <use x="95.410156" xlink:href="#DejaVuSans-53"/>
      </g>
     </g>
    </g>
    <g id="xtick_5">
     <g id="line2d_9">
      <g>
       <use style="stroke:#000000;stroke-width:1.25;" x="356.094096" xlink:href="#m845f4dfde2" y="224.64"/>
      </g>
     </g>
     <g id="line2d_10">
      <g>
       <use style="stroke:#000000;stroke-width:1.25;" x="356.094096" xlink:href="#med85983b59" y="7.2"/>
      </g>
     </g>
     <g id="text_5">
      <!-- 2.0 -->
      <defs>
       <path d="M 19.1875 8.296875 
L 53.609375 8.296875 
L 53.609375 0 
L 7.328125 0 
L 7.328125 8.296875 
Q 12.9375 14.109375 22.625 23.890625 
Q 32.328125 33.6875 34.8125 36.53125 
Q 39.546875 41.84375 41.421875 45.53125 
Q 43.3125 49.21875 43.3125 52.78125 
Q 43.3125 58.59375 39.234375 62.25 
Q 35.15625 65.921875 28.609375 65.921875 
Q 23.96875 65.921875 18.8125 64.3125 
Q 13.671875 62.703125 7.8125 59.421875 
L 7.8125 69.390625 
Q 13.765625 71.78125 18.9375 73 
Q 24.125 74.21875 28.421875 74.21875 
Q 39.75 74.21875 46.484375 68.546875 
Q 53.21875 62.890625 53.21875 53.421875 
Q 53.21875 48.921875 51.53125 44.890625 
Q 49.859375 40.875 45.40625 35.40625 
Q 44.1875 33.984375 37.640625 27.21875 
Q 31.109375 20.453125 19.1875 8.296875 
z
" id="DejaVuSans-50"/>
      </defs>
      <g transform="translate(348.142534 235.738437)scale(0.1 -0.1)">
       <use xlink:href="#DejaVuSans-50"/>
       <use x="63.623047" xlink:href="#DejaVuSans-46"/>
       <use x="95.410156" xlink:href="#DejaVuSans-48"/>
      </g>
     </g>
    </g>
    <g id="xtick_6">
     <g id="line2d_11">
      <defs>
       <path d="M 0 0 
L 0 -2 
" id="m6d803549bd" style="stroke:#000000;stroke-width:1.25;"/>
      </defs>
      <g>
       <use style="stroke:#000000;stroke-width:1.25;" x="65.495649" xlink:href="#m6d803549bd" y="224.64"/>
      </g>
     </g>
     <g id="line2d_12">
      <defs>
       <path d="M 0 0 
L 0 2 
" id="m715ac95440" style="stroke:#000000;stroke-width:1.25;"/>
      </defs>
      <g>
       <use style="stroke:#000000;stroke-width:1.25;" x="65.495649" xlink:href="#m715ac95440" y="7.2"/>
      </g>
     </g>
    </g>
    <g id="xtick_7">
     <g id="line2d_13">
      <g>
       <use style="stroke:#000000;stroke-width:1.25;" x="80.790305" xlink:href="#m6d803549bd" y="224.64"/>
      </g>
     </g>
     <g id="line2d_14">
      <g>
       <use style="stroke:#000000;stroke-width:1.25;" x="80.790305" xlink:href="#m715ac95440" y="7.2"/>
      </g>
     </g>
    </g>
    <g id="xtick_8">
     <g id="line2d_15">
      <g>
       <use style="stroke:#000000;stroke-width:1.25;" x="96.08496" xlink:href="#m6d803549bd" y="224.64"/>
      </g>
     </g>
     <g id="line2d_16">
      <g>
       <use style="stroke:#000000;stroke-width:1.25;" x="96.08496" xlink:href="#m715ac95440" y="7.2"/>
      </g>
     </g>
    </g>
    <g id="xtick_9">
     <g id="line2d_17">
      <g>
       <use style="stroke:#000000;stroke-width:1.25;" x="111.379615" xlink:href="#m6d803549bd" y="224.64"/>
      </g>
     </g>
     <g id="line2d_18">
      <g>
       <use style="stroke:#000000;stroke-width:1.25;" x="111.379615" xlink:href="#m715ac95440" y="7.2"/>
      </g>
     </g>
    </g>
    <g id="xtick_10">
     <g id="line2d_19">
      <g>
       <use style="stroke:#000000;stroke-width:1.25;" x="141.968925" xlink:href="#m6d803549bd" y="224.64"/>
      </g>
     </g>
     <g id="line2d_20">
      <g>
       <use style="stroke:#000000;stroke-width:1.25;" x="141.968925" xlink:href="#m715ac95440" y="7.2"/>
      </g>
     </g>
    </g>
    <g id="xtick_11">
     <g id="line2d_21">
      <g>
       <use style="stroke:#000000;stroke-width:1.25;" x="157.26358" xlink:href="#m6d803549bd" y="224.64"/>
      </g>
     </g>
     <g id="line2d_22">
      <g>
       <use style="stroke:#000000;stroke-width:1.25;" x="157.26358" xlink:href="#m715ac95440" y="7.2"/>
      </g>
     </g>
    </g>
    <g id="xtick_12">
     <g id="line2d_23">
      <g>
       <use style="stroke:#000000;stroke-width:1.25;" x="172.558235" xlink:href="#m6d803549bd" y="224.64"/>
      </g>
     </g>
     <g id="line2d_24">
      <g>
       <use style="stroke:#000000;stroke-width:1.25;" x="172.558235" xlink:href="#m715ac95440" y="7.2"/>
      </g>
     </g>
    </g>
    <g id="xtick_13">
     <g id="line2d_25">
      <g>
       <use style="stroke:#000000;stroke-width:1.25;" x="187.85289" xlink:href="#m6d803549bd" y="224.64"/>
      </g>
     </g>
     <g id="line2d_26">
      <g>
       <use style="stroke:#000000;stroke-width:1.25;" x="187.85289" xlink:href="#m715ac95440" y="7.2"/>
      </g>
     </g>
    </g>
    <g id="xtick_14">
     <g id="line2d_27">
      <g>
       <use style="stroke:#000000;stroke-width:1.25;" x="218.4422" xlink:href="#m6d803549bd" y="224.64"/>
      </g>
     </g>
     <g id="line2d_28">
      <g>
       <use style="stroke:#000000;stroke-width:1.25;" x="218.4422" xlink:href="#m715ac95440" y="7.2"/>
      </g>
     </g>
    </g>
    <g id="xtick_15">
     <g id="line2d_29">
      <g>
       <use style="stroke:#000000;stroke-width:1.25;" x="233.736855" xlink:href="#m6d803549bd" y="224.64"/>
      </g>
     </g>
     <g id="line2d_30">
      <g>
       <use style="stroke:#000000;stroke-width:1.25;" x="233.736855" xlink:href="#m715ac95440" y="7.2"/>
      </g>
     </g>
    </g>
    <g id="xtick_16">
     <g id="line2d_31">
      <g>
       <use style="stroke:#000000;stroke-width:1.25;" x="249.031511" xlink:href="#m6d803549bd" y="224.64"/>
      </g>
     </g>
     <g id="line2d_32">
      <g>
       <use style="stroke:#000000;stroke-width:1.25;" x="249.031511" xlink:href="#m715ac95440" y="7.2"/>
      </g>
     </g>
    </g>
    <g id="xtick_17">
     <g id="line2d_33">
      <g>
       <use style="stroke:#000000;stroke-width:1.25;" x="264.326166" xlink:href="#m6d803549bd" y="224.64"/>
      </g>
     </g>
     <g id="line2d_34">
      <g>
       <use style="stroke:#000000;stroke-width:1.25;" x="264.326166" xlink:href="#m715ac95440" y="7.2"/>
      </g>
     </g>
    </g>
    <g id="xtick_18">
     <g id="line2d_35">
      <g>
       <use style="stroke:#000000;stroke-width:1.25;" x="294.915476" xlink:href="#m6d803549bd" y="224.64"/>
      </g>
     </g>
     <g id="line2d_36">
      <g>
       <use style="stroke:#000000;stroke-width:1.25;" x="294.915476" xlink:href="#m715ac95440" y="7.2"/>
      </g>
     </g>
    </g>
    <g id="xtick_19">
     <g id="line2d_37">
      <g>
       <use style="stroke:#000000;stroke-width:1.25;" x="310.210131" xlink:href="#m6d803549bd" y="224.64"/>
      </g>
     </g>
     <g id="line2d_38">
      <g>
       <use style="stroke:#000000;stroke-width:1.25;" x="310.210131" xlink:href="#m715ac95440" y="7.2"/>
      </g>
     </g>
    </g>
    <g id="xtick_20">
     <g id="line2d_39">
      <g>
       <use style="stroke:#000000;stroke-width:1.25;" x="325.504786" xlink:href="#m6d803549bd" y="224.64"/>
      </g>
     </g>
     <g id="line2d_40">
      <g>
       <use style="stroke:#000000;stroke-width:1.25;" x="325.504786" xlink:href="#m715ac95440" y="7.2"/>
      </g>
     </g>
    </g>
    <g id="xtick_21">
     <g id="line2d_41">
      <g>
       <use style="stroke:#000000;stroke-width:1.25;" x="340.799441" xlink:href="#m6d803549bd" y="224.64"/>
      </g>
     </g>
     <g id="line2d_42">
      <g>
       <use style="stroke:#000000;stroke-width:1.25;" x="340.799441" xlink:href="#m715ac95440" y="7.2"/>
      </g>
     </g>
    </g>
   </g>
   <g id="matplotlib.axis_2">
    <g id="ytick_1">
     <g id="line2d_43">
      <defs>
       <path d="M 0 0 
L 4 0 
" id="me6d34e07b6" style="stroke:#000000;stroke-width:1.25;"/>
      </defs>
      <g>
       <use style="stroke:#000000;stroke-width:1.25;" x="34.982813" xlink:href="#me6d34e07b6" y="214.756364"/>
      </g>
     </g>
     <g id="line2d_44">
      <defs>
       <path d="M 0 0 
L -4 0 
" id="m66f1940e7d" style="stroke:#000000;stroke-width:1.25;"/>
      </defs>
      <g>
       <use style="stroke:#000000;stroke-width:1.25;" x="369.782813" xlink:href="#m66f1940e7d" y="214.756364"/>
      </g>
     </g>
     <g id="text_6">
      <!-- −1.0 -->
      <defs>
       <path d="M 10.59375 35.5 
L 73.1875 35.5 
L 73.1875 27.203125 
L 10.59375 27.203125 
z
" id="DejaVuSans-8722"/>
      </defs>
      <g transform="translate(7.2 218.555582)scale(0.1 -0.1)">
       <use xlink:href="#DejaVuSans-8722"/>
       <use x="83.789062" xlink:href="#DejaVuSans-49"/>
       <use x="147.412109" xlink:href="#DejaVuSans-46"/>
       <use x="179.199219" xlink:href="#DejaVuSans-48"/>
      </g>
     </g>
    </g>
    <g id="ytick_2">
     <g id="line2d_45">
      <g>
       <use style="stroke:#000000;stroke-width:1.25;" x="34.982813" xlink:href="#me6d34e07b6" y="165.338182"/>
      </g>
     </g>
     <g id="line2d_46">
      <g>
       <use style="stroke:#000000;stroke-width:1.25;" x="369.782813" xlink:href="#m66f1940e7d" y="165.338182"/>
      </g>
     </g>
     <g id="text_7">
      <!-- −0.5 -->
      <g transform="translate(7.2 169.137401)scale(0.1 -0.1)">
       <use xlink:href="#DejaVuSans-8722"/>
       <use x="83.789062" xlink:href="#DejaVuSans-48"/>
       <use x="147.412109" xlink:href="#DejaVuSans-46"/>
       <use x="179.199219" xlink:href="#DejaVuSans-53"/>
      </g>
     </g>
    </g>
    <g id="ytick_3">
     <g id="line2d_47">
      <g>
       <use style="stroke:#000000;stroke-width:1.25;" x="34.982813" xlink:href="#me6d34e07b6" y="115.92"/>
      </g>
     </g>
     <g id="line2d_48">
      <g>
       <use style="stroke:#000000;stroke-width:1.25;" x="369.782813" xlink:href="#m66f1940e7d" y="115.92"/>
      </g>
     </g>
     <g id="text_8">
      <!-- 0.0 -->
      <g transform="translate(15.579688 119.719219)scale(0.1 -0.1)">
       <use xlink:href="#DejaVuSans-48"/>
       <use x="63.623047" xlink:href="#DejaVuSans-46"/>
       <use x="95.410156" xlink:href="#DejaVuSans-48"/>
      </g>
     </g>
    </g>
    <g id="ytick_4">
     <g id="line2d_49">
      <g>
       <use style="stroke:#000000;stroke-width:1.25;" x="34.982813" xlink:href="#me6d34e07b6" y="66.501818"/>
      </g>
     </g>
     <g id="line2d_50">
      <g>
       <use style="stroke:#000000;stroke-width:1.25;" x="369.782813" xlink:href="#m66f1940e7d" y="66.501818"/>
      </g>
     </g>
     <g id="text_9">
      <!-- 0.5 -->
      <g transform="translate(15.579688 70.301037)scale(0.1 -0.1)">
       <use xlink:href="#DejaVuSans-48"/>
       <use x="63.623047" xlink:href="#DejaVuSans-46"/>
       <use x="95.410156" xlink:href="#DejaVuSans-53"/>
      </g>
     </g>
    </g>
    <g id="ytick_5">
     <g id="line2d_51">
      <g>
       <use style="stroke:#000000;stroke-width:1.25;" x="34.982813" xlink:href="#me6d34e07b6" y="17.083636"/>
      </g>
     </g>
     <g id="line2d_52">
      <g>
       <use style="stroke:#000000;stroke-width:1.25;" x="369.782813" xlink:href="#m66f1940e7d" y="17.083636"/>
      </g>
     </g>
     <g id="text_10">
      <!-- 1.0 -->
      <g transform="translate(15.579688 20.882855)scale(0.1 -0.1)">
       <use xlink:href="#DejaVuSans-49"/>
       <use x="63.623047" xlink:href="#DejaVuSans-46"/>
       <use x="95.410156" xlink:href="#DejaVuSans-48"/>
      </g>
     </g>
    </g>
    <g id="ytick_6">
     <g id="line2d_53">
      <defs>
       <path d="M 0 0 
L 2 0 
" id="m0d7f7fd636" style="stroke:#000000;stroke-width:1.25;"/>
      </defs>
      <g>
       <use style="stroke:#000000;stroke-width:1.25;" x="34.982813" xlink:href="#m0d7f7fd636" y="224.64"/>
      </g>
     </g>
     <g id="line2d_54">
      <defs>
       <path d="M 0 0 
L -2 0 
" id="mb1ce48b030" style="stroke:#000000;stroke-width:1.25;"/>
      </defs>
      <g>
       <use style="stroke:#000000;stroke-width:1.25;" x="369.782813" xlink:href="#mb1ce48b030" y="224.64"/>
      </g>
     </g>
    </g>
    <g id="ytick_7">
     <g id="line2d_55">
      <g>
       <use style="stroke:#000000;stroke-width:1.25;" x="34.982813" xlink:href="#m0d7f7fd636" y="204.872727"/>
      </g>
     </g>
     <g id="line2d_56">
      <g>
       <use style="stroke:#000000;stroke-width:1.25;" x="369.782813" xlink:href="#mb1ce48b030" y="204.872727"/>
      </g>
     </g>
    </g>
    <g id="ytick_8">
     <g id="line2d_57">
      <g>
       <use style="stroke:#000000;stroke-width:1.25;" x="34.982813" xlink:href="#m0d7f7fd636" y="194.989091"/>
      </g>
     </g>
     <g id="line2d_58">
      <g>
       <use style="stroke:#000000;stroke-width:1.25;" x="369.782813" xlink:href="#mb1ce48b030" y="194.989091"/>
      </g>
     </g>
    </g>
    <g id="ytick_9">
     <g id="line2d_59">
      <g>
       <use style="stroke:#000000;stroke-width:1.25;" x="34.982813" xlink:href="#m0d7f7fd636" y="185.105455"/>
      </g>
     </g>
     <g id="line2d_60">
      <g>
       <use style="stroke:#000000;stroke-width:1.25;" x="369.782813" xlink:href="#mb1ce48b030" y="185.105455"/>
      </g>
     </g>
    </g>
    <g id="ytick_10">
     <g id="line2d_61">
      <g>
       <use style="stroke:#000000;stroke-width:1.25;" x="34.982813" xlink:href="#m0d7f7fd636" y="175.221818"/>
      </g>
     </g>
     <g id="line2d_62">
      <g>
       <use style="stroke:#000000;stroke-width:1.25;" x="369.782813" xlink:href="#mb1ce48b030" y="175.221818"/>
      </g>
     </g>
    </g>
    <g id="ytick_11">
     <g id="line2d_63">
      <g>
       <use style="stroke:#000000;stroke-width:1.25;" x="34.982813" xlink:href="#m0d7f7fd636" y="155.454545"/>
      </g>
     </g>
     <g id="line2d_64">
      <g>
       <use style="stroke:#000000;stroke-width:1.25;" x="369.782813" xlink:href="#mb1ce48b030" y="155.454545"/>
      </g>
     </g>
    </g>
    <g id="ytick_12">
     <g id="line2d_65">
      <g>
       <use style="stroke:#000000;stroke-width:1.25;" x="34.982813" xlink:href="#m0d7f7fd636" y="145.570909"/>
      </g>
     </g>
     <g id="line2d_66">
      <g>
       <use style="stroke:#000000;stroke-width:1.25;" x="369.782813" xlink:href="#mb1ce48b030" y="145.570909"/>
      </g>
     </g>
    </g>
    <g id="ytick_13">
     <g id="line2d_67">
      <g>
       <use style="stroke:#000000;stroke-width:1.25;" x="34.982813" xlink:href="#m0d7f7fd636" y="135.687273"/>
      </g>
     </g>
     <g id="line2d_68">
      <g>
       <use style="stroke:#000000;stroke-width:1.25;" x="369.782813" xlink:href="#mb1ce48b030" y="135.687273"/>
      </g>
     </g>
    </g>
    <g id="ytick_14">
     <g id="line2d_69">
      <g>
       <use style="stroke:#000000;stroke-width:1.25;" x="34.982813" xlink:href="#m0d7f7fd636" y="125.803636"/>
      </g>
     </g>
     <g id="line2d_70">
      <g>
       <use style="stroke:#000000;stroke-width:1.25;" x="369.782813" xlink:href="#mb1ce48b030" y="125.803636"/>
      </g>
     </g>
    </g>
    <g id="ytick_15">
     <g id="line2d_71">
      <g>
       <use style="stroke:#000000;stroke-width:1.25;" x="34.982813" xlink:href="#m0d7f7fd636" y="106.036364"/>
      </g>
     </g>
     <g id="line2d_72">
      <g>
       <use style="stroke:#000000;stroke-width:1.25;" x="369.782813" xlink:href="#mb1ce48b030" y="106.036364"/>
      </g>
     </g>
    </g>
    <g id="ytick_16">
     <g id="line2d_73">
      <g>
       <use style="stroke:#000000;stroke-width:1.25;" x="34.982813" xlink:href="#m0d7f7fd636" y="96.152727"/>
      </g>
     </g>
     <g id="line2d_74">
      <g>
       <use style="stroke:#000000;stroke-width:1.25;" x="369.782813" xlink:href="#mb1ce48b030" y="96.152727"/>
      </g>
     </g>
    </g>
    <g id="ytick_17">
     <g id="line2d_75">
      <g>
       <use style="stroke:#000000;stroke-width:1.25;" x="34.982813" xlink:href="#m0d7f7fd636" y="86.269091"/>
      </g>
     </g>
     <g id="line2d_76">
      <g>
       <use style="stroke:#000000;stroke-width:1.25;" x="369.782813" xlink:href="#mb1ce48b030" y="86.269091"/>
      </g>
     </g>
    </g>
    <g id="ytick_18">
     <g id="line2d_77">
      <g>
       <use style="stroke:#000000;stroke-width:1.25;" x="34.982813" xlink:href="#m0d7f7fd636" y="76.385455"/>
      </g>
     </g>
     <g id="line2d_78">
      <g>
       <use style="stroke:#000000;stroke-width:1.25;" x="369.782813" xlink:href="#mb1ce48b030" y="76.385455"/>
      </g>
     </g>
    </g>
    <g id="ytick_19">
     <g id="line2d_79">
      <g>
       <use style="stroke:#000000;stroke-width:1.25;" x="34.982813" xlink:href="#m0d7f7fd636" y="56.618182"/>
      </g>
     </g>
     <g id="line2d_80">
      <g>
       <use style="stroke:#000000;stroke-width:1.25;" x="369.782813" xlink:href="#mb1ce48b030" y="56.618182"/>
      </g>
     </g>
    </g>
    <g id="ytick_20">
     <g id="line2d_81">
      <g>
       <use style="stroke:#000000;stroke-width:1.25;" x="34.982813" xlink:href="#m0d7f7fd636" y="46.734545"/>
      </g>
     </g>
     <g id="line2d_82">
      <g>
       <use style="stroke:#000000;stroke-width:1.25;" x="369.782813" xlink:href="#mb1ce48b030" y="46.734545"/>
      </g>
     </g>
    </g>
    <g id="ytick_21">
     <g id="line2d_83">
      <g>
       <use style="stroke:#000000;stroke-width:1.25;" x="34.982813" xlink:href="#m0d7f7fd636" y="36.850909"/>
      </g>
     </g>
     <g id="line2d_84">
      <g>
       <use style="stroke:#000000;stroke-width:1.25;" x="369.782813" xlink:href="#mb1ce48b030" y="36.850909"/>
      </g>
     </g>
    </g>
    <g id="ytick_22">
     <g id="line2d_85">
      <g>
       <use style="stroke:#000000;stroke-width:1.25;" x="34.982813" xlink:href="#m0d7f7fd636" y="26.967273"/>
      </g>
     </g>
     <g id="line2d_86">
      <g>
       <use style="stroke:#000000;stroke-width:1.25;" x="369.782813" xlink:href="#mb1ce48b030" y="26.967273"/>
      </g>
     </g>
    </g>
   </g>
   <g id="line2d_87">
    <path clip-path="url(#p5703e9a799)" d="M 50.200994 115.92 
L 354.564631 115.92 
L 354.564631 115.92 
" style="fill:none;stroke:#1f77b4;stroke-linecap:square;stroke-width:1.5;"/>
   </g>
   <g id="line2d_88">
    <path clip-path="url(#p5703e9a799)" d="M 50.200994 115.92 
L 354.564631 115.92 
L 354.564631 115.92 
" style="fill:none;stroke:#ff7f0e;stroke-dasharray:9.6,2.4,1.5,2.4;stroke-dashoffset:0;stroke-width:1.5;"/>
   </g>
   <g id="line2d_89">
    <path clip-path="url(#p5703e9a799)" d="M 50.200994 115.92 
L 56.318856 91.340396 
L 60.907253 73.837523 
L 63.966184 62.960828 
L 67.025115 52.919331 
L 70.084046 43.871392 
L 73.142977 35.959702 
L 74.672442 32.469698 
L 76.201908 29.309034 
L 77.731373 26.490184 
L 79.260839 24.024273 
L 80.790305 21.921032 
L 82.31977 20.188762 
L 83.849236 18.8343 
L 85.378701 17.862991 
L 86.908167 17.278667 
L 88.437632 17.083636 
L 89.967098 17.278667 
L 91.496563 17.862991 
L 93.026029 18.8343 
L 94.555494 20.188762 
L 96.08496 21.921032 
L 97.614425 24.024273 
L 99.143891 26.490184 
L 100.673356 29.309034 
L 102.202822 32.469698 
L 103.732287 35.959702 
L 105.261753 39.765273 
L 108.320684 48.261853 
L 111.379615 57.825443 
L 114.438546 68.305219 
L 117.497477 79.535908 
L 122.085873 97.399912 
L 135.851063 152.304092 
L 138.909994 163.534781 
L 141.968925 174.014557 
L 145.027856 183.578147 
L 148.086787 192.074727 
L 149.616252 195.880298 
L 151.145718 199.370302 
L 152.675183 202.530966 
L 154.204649 205.349816 
L 155.734114 207.815727 
L 157.26358 209.918968 
L 158.793045 211.651238 
L 160.322511 213.0057 
L 161.851977 213.977009 
L 163.381442 214.561333 
L 164.910908 214.756364 
L 166.440373 214.561333 
L 167.969839 213.977009 
L 169.499304 213.0057 
L 171.02877 211.651238 
L 172.558235 209.918968 
L 174.087701 207.815727 
L 175.617166 205.349816 
L 177.146632 202.530966 
L 178.676097 199.370302 
L 180.205563 195.880298 
L 181.735028 192.074727 
L 184.793959 183.578147 
L 187.85289 174.014557 
L 190.911821 163.534781 
L 193.970752 152.304092 
L 198.559149 134.440088 
L 212.324338 79.535908 
L 215.383269 68.305219 
L 218.4422 57.825443 
L 221.501131 48.261853 
L 224.560062 39.765273 
L 226.089528 35.959702 
L 227.618993 32.469698 
L 229.148459 29.309034 
L 230.677924 26.490184 
L 232.20739 24.024273 
L 233.736855 21.921032 
L 235.266321 20.188762 
L 236.795786 18.8343 
L 238.325252 17.862991 
L 239.854717 17.278667 
L 241.384183 17.083636 
L 242.913648 17.278667 
L 244.443114 17.862991 
L 245.97258 18.8343 
L 247.502045 20.188762 
L 249.031511 21.921032 
L 250.560976 24.024273 
L 252.090442 26.490184 
L 253.619907 29.309034 
L 255.149373 32.469698 
L 256.678838 35.959702 
L 258.208304 39.765273 
L 261.267235 48.261853 
L 264.326166 57.825443 
L 267.385097 68.305219 
L 270.444028 79.535908 
L 275.032424 97.399912 
L 288.797614 152.304092 
L 291.856545 163.534781 
L 294.915476 174.014557 
L 297.974407 183.578147 
L 301.033338 192.074727 
L 302.562803 195.880298 
L 304.092269 199.370302 
L 305.621734 202.530966 
L 307.1512 205.349816 
L 308.680665 207.815727 
L 310.210131 209.918968 
L 311.739596 211.651238 
L 313.269062 213.0057 
L 314.798527 213.977009 
L 316.327993 214.561333 
L 317.857458 214.756364 
L 319.386924 214.561333 
L 320.916389 213.977009 
L 322.445855 213.0057 
L 323.97532 211.651238 
L 325.504786 209.918968 
L 327.034252 207.815727 
L 328.563717 205.349816 
L 330.093183 202.530966 
L 331.622648 199.370302 
L 333.152114 195.880298 
L 334.681579 192.074727 
L 337.74051 183.578147 
L 340.799441 174.014557 
L 343.858372 163.534781 
L 346.917303 152.304092 
L 351.5057 134.440088 
L 354.564631 122.125987 
L 354.564631 122.125987 
" style="fill:none;stroke:#2ca02c;stroke-linecap:square;stroke-width:1.5;"/>
   </g>
   <g id="line2d_90">
    <path clip-path="url(#p5703e9a799)" d="M 50.200994 17.083636 
L 51.73046 17.278667 
L 53.259925 17.862991 
L 54.789391 18.8343 
L 56.318856 20.188762 
L 57.848322 21.921032 
L 59.377787 24.024273 
L 60.907253 26.490184 
L 62.436718 29.309034 
L 63.966184 32.469698 
L 65.495649 35.959702 
L 67.025115 39.765273 
L 70.084046 48.261853 
L 73.142977 57.825443 
L 76.201908 68.305219 
L 79.260839 79.535908 
L 83.849236 97.399912 
L 97.614425 152.304092 
L 100.673356 163.534781 
L 103.732287 174.014557 
L 106.791218 183.578147 
L 109.850149 192.074727 
L 111.379615 195.880298 
L 112.90908 199.370302 
L 114.438546 202.530966 
L 115.968011 205.349816 
L 117.497477 207.815727 
L 119.026942 209.918968 
L 120.556408 211.651238 
L 122.085873 213.0057 
L 123.615339 213.977009 
L 125.144804 214.561333 
L 126.67427 214.756364 
L 128.203735 214.561333 
L 129.733201 213.977009 
L 131.262666 213.0057 
L 132.792132 211.651238 
L 134.321597 209.918968 
L 135.851063 207.815727 
L 137.380528 205.349816 
L 138.909994 202.530966 
L 140.439459 199.370302 
L 141.968925 195.880298 
L 143.49839 192.074727 
L 146.557321 183.578147 
L 149.616252 174.014557 
L 152.675183 163.534781 
L 155.734114 152.304092 
L 160.322511 134.440088 
L 174.087701 79.535908 
L 177.146632 68.305219 
L 180.205563 57.825443 
L 183.264494 48.261853 
L 186.323425 39.765273 
L 187.85289 35.959702 
L 189.382356 32.469698 
L 190.911821 29.309034 
L 192.441287 26.490184 
L 193.970752 24.024273 
L 195.500218 21.921032 
L 197.029683 20.188762 
L 198.559149 18.8343 
L 200.088614 17.862991 
L 201.61808 17.278667 
L 203.147545 17.083636 
L 204.677011 17.278667 
L 206.206476 17.862991 
L 207.735942 18.8343 
L 209.265407 20.188762 
L 210.794873 21.921032 
L 212.324338 24.024273 
L 213.853804 26.490184 
L 215.383269 29.309034 
L 216.912735 32.469698 
L 218.4422 35.959702 
L 219.971666 39.765273 
L 223.030597 48.261853 
L 226.089528 57.825443 
L 229.148459 68.305219 
L 232.20739 79.535908 
L 236.795786 97.399912 
L 250.560976 152.304092 
L 253.619907 163.534781 
L 256.678838 174.014557 
L 259.737769 183.578147 
L 262.7967 192.074727 
L 264.326166 195.880298 
L 265.855631 199.370302 
L 267.385097 202.530966 
L 268.914562 205.349816 
L 270.444028 207.815727 
L 271.973493 209.918968 
L 273.502959 211.651238 
L 275.032424 213.0057 
L 276.56189 213.977009 
L 278.091355 214.561333 
L 279.620821 214.756364 
L 281.150286 214.561333 
L 282.679752 213.977009 
L 284.209217 213.0057 
L 285.738683 211.651238 
L 287.268148 209.918968 
L 288.797614 207.815727 
L 290.327079 205.349816 
L 291.856545 202.530966 
L 293.38601 199.370302 
L 294.915476 195.880298 
L 296.444941 192.074727 
L 299.503872 183.578147 
L 302.562803 174.014557 
L 305.621734 163.534781 
L 308.680665 152.304092 
L 313.269062 134.440088 
L 327.034252 79.535908 
L 330.093183 68.305219 
L 333.152114 57.825443 
L 336.211045 48.261853 
L 339.269976 39.765273 
L 340.799441 35.959702 
L 342.328907 32.469698 
L 343.858372 29.309034 
L 345.387838 26.490184 
L 346.917303 24.024273 
L 348.446769 21.921032 
L 349.976234 20.188762 
L 351.5057 18.8343 
L 353.035165 17.862991 
L 354.564631 17.278667 
L 354.564631 17.278667 
" style="fill:none;stroke:#d62728;stroke-linecap:square;stroke-width:1.5;"/>
   </g>
   <g id="line2d_91">
    <path clip-path="url(#p5703e9a799)" d="M 50.200994 17.083636 
L 51.73046 17.278667 
L 53.259925 17.862991 
L 54.789391 18.8343 
L 56.318856 20.188762 
L 57.848322 21.921032 
L 59.377787 24.024273 
L 60.907253 26.490184 
L 62.436718 29.309034 
L 63.966184 32.469698 
L 65.495649 35.959702 
L 67.025115 39.765273 
L 70.084046 48.261853 
L 73.142977 57.825443 
L 76.201908 68.305219 
L 79.260839 79.535908 
L 83.849236 97.399912 
L 97.614425 152.304092 
L 100.673356 163.534781 
L 103.732287 174.014557 
L 106.791218 183.578147 
L 109.850149 192.074727 
L 111.379615 195.880298 
L 112.90908 199.370302 
L 114.438546 202.530966 
L 115.968011 205.349816 
L 117.497477 207.815727 
L 119.026942 209.918968 
L 120.556408 211.651238 
L 122.085873 213.0057 
L 123.615339 213.977009 
L 125.144804 214.561333 
L 126.67427 214.756364 
L 128.203735 214.561333 
L 129.733201 213.977009 
L 131.262666 213.0057 
L 132.792132 211.651238 
L 134.321597 209.918968 
L 135.851063 207.815727 
L 137.380528 205.349816 
L 138.909994 202.530966 
L 140.439459 199.370302 
L 141.968925 195.880298 
L 143.49839 192.074727 
L 146.557321 183.578147 
L 149.616252 174.014557 
L 152.675183 163.534781 
L 155.734114 152.304092 
L 160.322511 134.440088 
L 174.087701 79.535908 
L 177.146632 68.305219 
L 180.205563 57.825443 
L 183.264494 48.261853 
L 186.323425 39.765273 
L 187.85289 35.959702 
L 189.382356 32.469698 
L 190.911821 29.309034 
L 192.441287 26.490184 
L 193.970752 24.024273 
L 195.500218 21.921032 
L 197.029683 20.188762 
L 198.559149 18.8343 
L 200.088614 17.862991 
L 201.61808 17.278667 
L 203.147545 17.083636 
L 204.677011 17.278667 
L 206.206476 17.862991 
L 207.735942 18.8343 
L 209.265407 20.188762 
L 210.794873 21.921032 
L 212.324338 24.024273 
L 213.853804 26.490184 
L 215.383269 29.309034 
L 216.912735 32.469698 
L 218.4422 35.959702 
L 219.971666 39.765273 
L 223.030597 48.261853 
L 226.089528 57.825443 
L 229.148459 68.305219 
L 232.20739 79.535908 
L 236.795786 97.399912 
L 250.560976 152.304092 
L 253.619907 163.534781 
L 256.678838 174.014557 
L 259.737769 183.578147 
L 262.7967 192.074727 
L 264.326166 195.880298 
L 265.855631 199.370302 
L 267.385097 202.530966 
L 268.914562 205.349816 
L 270.444028 207.815727 
L 271.973493 209.918968 
L 273.502959 211.651238 
L 275.032424 213.0057 
L 276.56189 213.977009 
L 278.091355 214.561333 
L 279.620821 214.756364 
L 281.150286 214.561333 
L 282.679752 213.977009 
L 284.209217 213.0057 
L 285.738683 211.651238 
L 287.268148 209.918968 
L 288.797614 207.815727 
L 290.327079 205.349816 
L 291.856545 202.530966 
L 293.38601 199.370302 
L 294.915476 195.880298 
L 296.444941 192.074727 
L 299.503872 183.578147 
L 302.562803 174.014557 
L 305.621734 163.534781 
L 308.680665 152.304092 
L 313.269062 134.440088 
L 327.034252 79.535908 
L 330.093183 68.305219 
L 333.152114 57.825443 
L 336.211045 48.261853 
L 339.269976 39.765273 
L 340.799441 35.959702 
L 342.328907 32.469698 
L 343.858372 29.309034 
L 345.387838 26.490184 
L 346.917303 24.024273 
L 348.446769 21.921032 
L 349.976234 20.188762 
L 351.5057 18.8343 
L 353.035165 17.862991 
L 354.564631 17.278667 
L 354.564631 17.278667 
" style="fill:none;stroke:#9467bd;stroke-dasharray:9.6,2.4,1.5,2.4;stroke-dashoffset:0;stroke-width:1.5;"/>
   </g>
   <g id="patch_3">
    <path d="M 34.982813 224.64 
L 34.982813 7.2 
" style="fill:none;stroke:#000000;stroke-linecap:square;stroke-linejoin:miter;stroke-width:1.5;"/>
   </g>
   <g id="patch_4">
    <path d="M 369.782813 224.64 
L 369.782813 7.2 
" style="fill:none;stroke:#000000;stroke-linecap:square;stroke-linejoin:miter;stroke-width:1.5;"/>
   </g>
   <g id="patch_5">
    <path d="M 34.982813 224.64 
L 369.782813 224.64 
" style="fill:none;stroke:#000000;stroke-linecap:square;stroke-linejoin:miter;stroke-width:1.5;"/>
   </g>
   <g id="patch_6">
    <path d="M 34.982813 7.2 
L 369.782813 7.2 
" style="fill:none;stroke:#000000;stroke-linecap:square;stroke-linejoin:miter;stroke-width:1.5;"/>
   </g>
  </g>
 </g>
 <defs>
  <clipPath id="p5703e9a799">
   <rect height="217.44" width="334.8" x="34.982813" y="7.2"/>
  </clipPath>
 </defs>
</svg>
